<?xml version="1.0" encoding="UTF-8" standalone="no"?>
<!-- Created with Inkscape (http://www.inkscape.org/) -->

<svg
   width="149.23999mm"
   height="149.23875mm"
   viewBox="0 0 149.23999 149.23875"
   version="1.1"
   id="svg21"
   xml:space="preserve"
   sodipodi:docname="Documento nuevo 1.2025_03_22_20_01_51.0.svg"
   xmlns:inkscape="http://www.inkscape.org/namespaces/inkscape"
   xmlns:sodipodi="http://sodipodi.sourceforge.net/DTD/sodipodi-0.dtd"
   xmlns="http://www.w3.org/2000/svg"
   xmlns:svg="http://www.w3.org/2000/svg"><sodipodi:namedview
     id="namedview23"
     pagecolor="#ffffff"
     bordercolor="#000000"
     borderopacity="0.25"
     inkscape:showpageshadow="2"
     inkscape:pageopacity="0.0"
     inkscape:pagecheckerboard="0"
     inkscape:deskcolor="#d1d1d1"
     inkscape:document-units="mm"
     showgrid="false" /><defs
     id="defs18" /><path
     d="m 149.24008,74.618505 c 0,41.211505 -33.4084,74.620265 -74.6199,74.620265 C 33.40868,149.23877 8.0442657e-5,115.83001 8.0442657e-5,74.618505 8.0442657e-5,33.406999 33.40868,-6.1123752e-7 74.62018,-6.1123752e-7 c 41.2115,0 74.6199,33.40699961123752 74.6199,74.61850561123752"
     style="fill:#f6f9fd;fill-opacity:1;fill-rule:nonzero;stroke:none;stroke-width:0.0352778"
     id="path6347" /><path
     d="M 75.30318,97.309165 V 39.335077 c 0,-0.807861 -0.6548,-1.462617 -1.4627,-1.462617 h -0.03 c -0.8078,0 -1.4626,0.654756 -1.4626,1.462617 v 58.033358 c -4.367,0.78423 -7.6814,4.600225 -7.6814,9.193045 0,5.16043 4.1829,9.34367 9.3433,9.34367 5.1605,0 9.3437,-4.18324 9.3437,-9.34367 0,-4.72123 -3.5027,-8.622245 -8.0507,-9.252315"
     style="fill:#a44040;fill-opacity:1;fill-rule:nonzero;stroke:none;stroke-width:0.0352778"
     id="path6351" /><path
     d="m 67.58048,92.988345 c 0,-2.28318 0,-4.56671 0,-6.84988 0,-10.76255 0,-21.525448 0,-32.287993 0,-4.606925 0,-9.21385 0,-13.820423 0,-2.593269 -0.4381,-5.632803 1.059,-7.889875 1.7075,-2.573162 6.4926,-2.83845 9.0629,-1.529645 1.9741,1.00577 2.7376,3.077634 2.7376,5.157964 0,3.052587 0,6.105526 0,9.158112 0,11.035242 0,22.070485 0,33.10573 0,4.99392 0,9.98749 0,14.98141 0,0.40605 0.158,0.71014 0.394,0.91299 0.066,0.0621 0.1425,0.11995 0.229,0.17286 7.869,4.80342 9.1122,15.644995 2.5618,22.106475 -6.2575,6.17255 -16.7156,4.48945 -21.3868,-2.661 -2.3957,-3.66713 -2.704,-8.23913 -1.2851,-12.31936 0.6953,-2.000605 1.9858,-3.762025 3.484,-5.232045 0.8262,-0.81033 3.1436,-1.69933 3.1436,-3.00532 z m -2.5149,-41.094731 c 0,13.477876 0,26.955751 0,40.433631 -5.9853,4.01179 -8.7874,11.305825 -6.864,18.333155 1.9035,6.95537 8.5054,11.68753 15.5829,11.90625 7.2009,0.2219 13.5643,-4.69829 15.8732,-11.36191 2.4419,-7.04674 -0.6802,-14.823725 -6.7028,-18.876445 0,-17.26459 0,-34.529534 0,-51.794126 0,-2.314575 0.223,-4.779081 -0.2021,-7.068962 -1.293,-6.96595 -11.6946,-7.9121 -15.8179,-3.201811 -2.1593,2.466622 -1.8693,5.602817 -1.8693,8.618361 0,4.337051 0,8.674454 0,13.011857"
     style="fill:#272425;fill-opacity:1;fill-rule:nonzero;stroke:none;stroke-width:0.0352778"
     id="path6369" /><path
     d="m 49.59408,47.491652 c 0,7.301795 5.9193,13.221054 13.2211,13.221054 V 34.270952 c -7.3018,0 -13.2211,5.919258 -13.2211,13.2207"
     style="fill:#272425;fill-opacity:1;fill-rule:nonzero;stroke:none;stroke-width:0.0352778"
     id="path6371" /><path
     d="m 41.27628,27.807357 c 2.799,2.247547 5.5983,4.495447 8.3976,6.742995 1.1796,0.947561 2.8687,-0.718962 1.6764,-1.6764 -2.799,-2.247901 -5.5983,-4.495448 -8.3976,-6.743348 -1.1797,-0.947561 -2.8688,0.718961 -1.6764,1.676753"
     style="fill:#272425;fill-opacity:1;fill-rule:nonzero;stroke:none;stroke-width:0.0352778"
     id="path6373" /><path
     d="m 57.11608,28.153432 c 0.6928,1.363486 2.7382,0.163336 2.0471,-1.196623 -1.6129,-3.174647 -3.2261,-6.349647 -4.839,-9.526058 -0.6929,-1.361723 -2.7383,-0.162278 -2.0476,1.198739 1.6133,3.174647 3.2262,6.349294 4.8395,9.523942"
     style="fill:#272425;fill-opacity:1;fill-rule:nonzero;stroke:none;stroke-width:0.0352778"
     id="path6375" /><path
     d="m 36.21428,55.325789 c 3.5472,-0.809625 7.0944,-1.61925 10.6416,-2.428875 1.4901,-0.340431 0.8579,-2.626431 -0.6304,-2.286353 -3.5472,0.809625 -7.0944,1.61925 -10.6416,2.428875 -1.4901,0.340078 -0.8579,2.625725 0.6304,2.286353"
     style="fill:#272425;fill-opacity:1;fill-rule:nonzero;stroke:none;stroke-width:0.0352778"
     id="path6377" /><path
     d="m 35.58388,41.008655 c 3.5327,0.806097 7.0654,1.612547 10.5982,2.418644 1.4887,0.339725 2.1209,-1.945922 0.63,-2.286 -3.5323,-0.80645 -7.0651,-1.6129 -10.5978,-2.418997 -1.4883,-0.339725 -2.1205,1.946275 -0.6304,2.286353"
     style="fill:#272425;fill-opacity:1;fill-rule:nonzero;stroke:none;stroke-width:0.0352778"
     id="path6379" /><path
     d="m 49.67388,59.543953 c -2.7993,2.232025 -5.5986,4.464403 -8.3976,6.696428 -1.1955,0.953559 0.4943,2.619728 1.6764,1.676753 2.7993,-2.232378 5.5986,-4.464403 8.3976,-6.696781 1.1955,-0.953205 -0.4939,-2.619375 -1.6764,-1.6764"
     style="fill:#272425;fill-opacity:1;fill-rule:nonzero;stroke:none;stroke-width:0.0352778"
     id="path6381" /><path
     d="m 54.32418,76.615225 c 1.6129,-3.192288 3.2261,-6.384574 4.839,-9.577213 0.6879,-1.361017 -1.3575,-2.56152 -2.0471,-1.196622 -1.6133,3.192286 -3.2262,6.384572 -4.8395,9.577215 -0.6875,1.36101 1.3579,2.56152 2.0476,1.19662"
     style="fill:#272425;fill-opacity:1;fill-rule:nonzero;stroke:none;stroke-width:0.0352778"
     id="path6383" /><path
     d="m 88.39858,45.805375 c 1.9156,0 3.8312,0 5.7468,0 1.3822,0 1.3822,-2.143126 0,-2.143126 -1.9156,0 -3.8312,0 -5.7468,0 -1.3822,0 -1.3822,2.143126 0,2.143126"
     style="fill:#272425;fill-opacity:1;fill-rule:nonzero;stroke:none;stroke-width:0.0352778"
     id="path6395" /><path
     d="m 88.39858,58.568875 c 1.9156,0 3.8312,0 5.7468,0 1.3822,0 1.3822,-2.143125 0,-2.143125 -1.9156,0 -3.8312,0 -5.7468,0 -1.3822,0 -1.3822,2.143125 0,2.143125"
     style="fill:#272425;fill-opacity:1;fill-rule:nonzero;stroke:none;stroke-width:0.0352778"
     id="path6397" /><path
     d="m 88.39858,72.475023 c 1.9156,0 3.8312,0 5.7468,0 1.3822,0 1.3822,-2.143125 0,-2.143125 -1.9156,0 -3.8312,0 -5.7468,0 -1.3822,0 -1.3822,2.143125 0,2.143125"
     style="fill:#272425;fill-opacity:1;fill-rule:nonzero;stroke:none;stroke-width:0.0352778"
     id="path6399" /></svg>
