<?xml version="1.0" encoding="UTF-8" standalone="no"?>
<!-- Created with Inkscape (http://www.inkscape.org/) -->

<svg
   width="54.990387mm"
   height="51.860565mm"
   viewBox="0 0 54.990387 51.860565"
   version="1.1"
   id="svg21"
   xml:space="preserve"
   sodipodi:docname="Documento nuevo 1.2025_03_22_20_01_51.0.svg"
   xmlns:inkscape="http://www.inkscape.org/namespaces/inkscape"
   xmlns:sodipodi="http://sodipodi.sourceforge.net/DTD/sodipodi-0.dtd"
   xmlns="http://www.w3.org/2000/svg"
   xmlns:svg="http://www.w3.org/2000/svg"><sodipodi:namedview
     id="namedview23"
     pagecolor="#ffffff"
     bordercolor="#000000"
     borderopacity="0.25"
     inkscape:showpageshadow="2"
     inkscape:pageopacity="0.0"
     inkscape:pagecheckerboard="0"
     inkscape:deskcolor="#d1d1d1"
     inkscape:document-units="mm"
     showgrid="false"
     showguides="true"><sodipodi:guide
       position="1657.4412,-68.719506"
       orientation="1,0"
       id="guide12263"
       inkscape:locked="false" /><sodipodi:guide
       position="1806.8384,-97.378284"
       orientation="1,0"
       id="guide12265"
       inkscape:locked="false" /><sodipodi:guide
       position="1669.3576,-147.44511"
       orientation="0,-1"
       id="guide12267"
       inkscape:locked="false" /><sodipodi:guide
       position="1732.5379,-66.596634"
       orientation="1,0"
       id="guide12271"
       inkscape:locked="false" /><sodipodi:guide
       position="1882.4657,87.311608"
       orientation="1,0"
       id="guide13663"
       inkscape:locked="false" /></sodipodi:namedview><defs
     id="defs18" /><g
     id="Objects-1"
     transform="matrix(0.06794908,0,0,0.06794908,-79.780939,-18.346263)">
	
	<g
   id="g30459">
		<path
   d="m 1935.049,714.319 h -54.66 v 250.649 c 0,37.702 -30.565,68.259 -68.259,68.259 h -466.715 c -37.693,0 -68.259,-30.557 -68.259,-68.259 V 714.319 h -54.66 c -43.283,0 -64.694,-52.583 -33.719,-82.823 l 111.508,-108.85 V 371.275 c 0,-12.154 9.855,-22.009 22.009,-22.009 h 67.318 c 12.154,0 22.009,9.855 22.009,22.009 v 42.702 l 133.432,-130.252 c 18.753,-18.3 48.685,-18.3 67.438,0 l 356.276,347.772 c 30.976,30.24 9.565,82.822 -33.718,82.822 z"
   id="path30453"
   style="fill:#f6f9fd;fill-opacity:1;stroke:none;stroke-width:1.00075;stroke-dasharray:none"
   inkscape:export-filename="Documentos/INGENIERÃA INFORMATICA/3er CURSO/2ndo CUATRI/siu/P2/images/casa_blanca.svg"
   inkscape:export-xdpi="96"
   inkscape:export-ydpi="96" />
		
	</g>
	
	
</g></svg>
