<?xml version="1.0" encoding="UTF-8" standalone="no"?>
<!-- Created with Inkscape (http://www.inkscape.org/) -->

<svg
   width="81.903564mm"
   height="76.019714mm"
   viewBox="0 0 81.903564 76.019714"
   version="1.1"
   id="svg21"
   xml:space="preserve"
   sodipodi:docname="Documento nuevo 1.2025_03_22_20_01_51.0.svg"
   inkscape:version="1.2.2 (b0a8486541, 2022-12-01)"
   xmlns:inkscape="http://www.inkscape.org/namespaces/inkscape"
   xmlns:sodipodi="http://sodipodi.sourceforge.net/DTD/sodipodi-0.dtd"
   xmlns="http://www.w3.org/2000/svg"
   xmlns:svg="http://www.w3.org/2000/svg"><sodipodi:namedview
     id="namedview23"
     pagecolor="#ffffff"
     bordercolor="#000000"
     borderopacity="0.25"
     inkscape:showpageshadow="2"
     inkscape:pageopacity="0.0"
     inkscape:pagecheckerboard="0"
     inkscape:deskcolor="#d1d1d1"
     inkscape:document-units="mm"
     showgrid="false"
     inkscape:zoom="1.3510998"
     inkscape:cx="546.96183"
     inkscape:cy="756.7909"
     inkscape:window-width="1854"
     inkscape:window-height="1011"
     inkscape:window-x="0"
     inkscape:window-y="0"
     inkscape:window-maximized="1"
     inkscape:current-layer="svg21" /><defs
     id="defs18" /><path
     d="m 52.264955,10.083084 c -2.1827,3.14713 -5.8166,5.21194 -9.9367,5.21194 -4.1201,0 -7.7537,-2.06481 -9.9363,-5.21194 l -13.7686,1.92758 v 61.39569 h 23.7049 23.7049 v -61.39569 l -13.7682,-1.92758"
     style="fill:#ffffff;fill-opacity:1;fill-rule:nonzero;stroke:none;stroke-width:0.0352778"
     id="path2920" /><path
     d="m 18.623355,12.010664 -15.4082995,11.61521 9.0077995,13.03796 6.4005,-4.02978 v -20.62339"
     style="fill:#d7e3fc;fill-opacity:1;fill-rule:nonzero;stroke:none;stroke-width:0.0352778"
     id="path2922" /><path
     d="m 66.033155,12.010664 15.4083,11.61521 -9.0079,13.03796 -6.4004,-4.02978 v -20.62339"
     style="fill:#d7e3fc;fill-opacity:1;fill-rule:nonzero;stroke:none;stroke-width:0.0352778"
     id="path2924" /><path
     d="m 3.8475555,23.727824 8.5037995,12.30877 5.8098,-3.65795 v -19.44053 z m 8.3756995,13.3985 c -0.1468,0 -0.2914,-0.0702 -0.3807,-0.20002 L 2.8351555,23.888694 c -0.1411,-0.20426 -0.096,-0.4826 0.1019,-0.63182 L 18.345355,11.641664 c 0.1397,-0.10584 0.327,-0.12348 0.4844,-0.0445 0.1569,0.078 0.2557,0.23812 0.2557,0.41345 v 20.62304 c 0,0.1591 -0.081,0.30621 -0.2159,0.39088 l -6.4004,4.03013 c -0.076,0.048 -0.1616,0.0716 -0.2459,0.0716"
     style="fill:#211c1d;fill-opacity:1;fill-rule:nonzero;stroke:none;stroke-width:0.0352778"
     id="path2926" /><path
     d="m 66.495255,32.378644 5.8099,3.65795 8.5037,-12.30877 -14.3136,-10.78971 z m 5.938,4.74768 c -0.084,0 -0.1693,-0.0236 -0.2459,-0.0716 l -6.4004,-4.03013 c -0.1345,-0.0847 -0.2159,-0.23178 -0.2159,-0.39088 v -20.62304 c 0,-0.17533 0.099,-0.33549 0.2557,-0.41345 0.1567,-0.0783 0.3447,-0.0607 0.4847,0.0445 l 15.408,11.61521 c 0.1979,0.14922 0.243,0.42756 0.1023,0.63182 l -9.0079,13.03761 c -0.089,0.12982 -0.2339,0.20002 -0.3806,0.20002"
     style="fill:#211c1d;fill-opacity:1;fill-rule:nonzero;stroke:none;stroke-width:0.0352778"
     id="path2928" /><path
     d="m 19.085455,72.944214 h 46.4856 v -60.53138 l -13.092,-1.83303 c -2.3629,3.24696 -6.1362,5.17736 -10.1505,5.17736 -4.0149,0 -7.7879,-1.9304 -10.1511,-5.17736 l -13.092,1.83303 z m 46.9477,0.92498 h -47.4098 c -0.2554,0 -0.4622,-0.20673 -0.4622,-0.46249 v -61.39604 c 0,-0.23071 0.1697,-0.4258 0.398,-0.45755 l 13.7685,-1.9279296 c 0.175,-0.025 0.3447,0.0515 0.4438,0.19403 2.177,3.1393696 5.75,5.0133196 9.5571,5.0133196 3.8065,0 7.3795,-1.87395 9.5564,-5.0133196 0.099,-0.14288 0.2685,-0.2219 0.4442,-0.19403 l 13.7682,1.9279296 c 0.2282,0.0317 0.3979,0.22684 0.3979,0.45755 v 61.39604 c 0,0.25576 -0.2067,0.46249 -0.4621,0.46249"
     style="fill:#211c1d;fill-opacity:1;fill-rule:nonzero;stroke:none;stroke-width:0.0352778"
     id="path2930" /><path
     d="m 8.3758555,6.5232044 c -1.0086,0 -1.2153,1.27071 -0.9952,2.47791 0.2198,1.2072096 0.9952,1.7942296 0.9952,1.7942296 0,0 0.7754,-0.58702 0.9952,-1.7942296 0.2198,-1.2072 0.013,-2.47791 -0.9952,-2.47791"
     style="fill:#e649ad;fill-opacity:1;fill-rule:nonzero;stroke:none;stroke-width:0.0352778"
     id="path2932" /><path
     d="m 4.1880555,9.7278444 c -0.1993,0.9888296 1.0054,1.4421496 2.232,1.4650796 1.227,0.0229 1.9558,-0.62124 1.9558,-0.62124 0,0 -0.4226,-0.8759496 -1.5625,-1.3299696 -1.1398,-0.45403 -2.4264,-0.50236 -2.6253,0.48613"
     style="fill:#e649ad;fill-opacity:1;fill-rule:nonzero;stroke:none;stroke-width:0.0352778"
     id="path2934" /><path
     d="m 5.7621555,13.813714 c 0.7905,0.62618 1.7413,-0.24165 2.3184,-1.32433 0.5772,-1.08303 0.3338,-2.02459 0.3338,-2.02459 0,0 -0.9723,-0.0212 -1.8941,0.78881 -0.9218,0.80963 -1.5491,1.93428 -0.7581,2.56011"
     style="fill:#e649ad;fill-opacity:1;fill-rule:nonzero;stroke:none;stroke-width:0.0352778"
     id="path2936" /><path
     d="m 10.927155,13.813714 c -0.7906,0.62618 -1.7416995,-0.24165 -2.3184995,-1.32433 -0.5771,-1.08303 -0.3337,-2.02459 -0.3337,-2.02459 0,0 0.9723,-0.0212 1.8940995,0.78881 0.9218,0.80963 1.5487,1.93428 0.7581,2.56011"
     style="fill:#e649ad;fill-opacity:1;fill-rule:nonzero;stroke:none;stroke-width:0.0352778"
     id="path2938" /><path
     d="m 12.563655,9.7278444 c 0.1993,0.9888296 -1.0054,1.4421496 -2.2324,1.4650796 -1.2265995,0.0229 -1.9553995,-0.62124 -1.9553995,-0.62124 0,0 0.4223,-0.8759496 1.5621,-1.3299696 1.1401995,-0.45403 2.4263995,-0.50236 2.6256995,0.48613"
     style="fill:#e649ad;fill-opacity:1;fill-rule:nonzero;stroke:none;stroke-width:0.0352778"
     id="path2940" /><path
     d="m 9.3710555,10.571684 c 0,0.54998 -0.4456,0.99554 -0.9952,0.99554 -0.5496,0 -0.9952,-0.44556 -0.9952,-0.99554 0,-0.54963 0.4456,-0.9951796 0.9952,-0.9951796 0.5496,0 0.9952,0.4455496 0.9952,0.9951796"
     style="fill:#f5f014;fill-opacity:1;fill-rule:nonzero;stroke:none;stroke-width:0.0352778"
     id="path2942" /><path
     d="m 73.737455,38.415734 c -1.0086,0 -1.2153,1.2707 -0.9952,2.47791 0.2198,1.20685 0.9952,1.79423 0.9952,1.79423 0,0 0.7754,-0.58738 0.9952,-1.79423 0.2198,-1.20721 0.013,-2.47791 -0.9952,-2.47791"
     style="fill:#e649ad;fill-opacity:1;fill-rule:nonzero;stroke:none;stroke-width:0.0352778"
     id="path2944" /><path
     d="m 69.549655,41.620364 c -0.1993,0.98848 1.0054,1.44216 2.232,1.46509 1.227,0.0229 1.9558,-0.62124 1.9558,-0.62124 0,0 -0.4226,-0.87595 -1.5624,-1.32998 -1.1399,-0.45402 -2.4264,-0.50271 -2.6254,0.48613"
     style="fill:#e649ad;fill-opacity:1;fill-rule:nonzero;stroke:none;stroke-width:0.0352778"
     id="path2946" /><path
     d="m 71.123755,45.706234 c 0.7906,0.62618 1.7413,-0.24165 2.3184,-1.32468 0.5772,-1.08267 0.3338,-2.02424 0.3338,-2.02424 0,0 -0.9723,-0.0212 -1.8941,0.78846 -0.9218,0.80998 -1.549,1.93428 -0.7581,2.56046"
     style="fill:#e649ad;fill-opacity:1;fill-rule:nonzero;stroke:none;stroke-width:0.0352778"
     id="path2948" /><path
     d="m 76.288755,45.706234 c -0.7906,0.62618 -1.7417,-0.24165 -2.3185,-1.32468 -0.5771,-1.08267 -0.3337,-2.02424 -0.3337,-2.02424 0,0 0.9723,-0.0212 1.8941,0.78846 0.9218,0.80998 1.5487,1.93428 0.7581,2.56046"
     style="fill:#e649ad;fill-opacity:1;fill-rule:nonzero;stroke:none;stroke-width:0.0352778"
     id="path2950" /><path
     d="m 77.925255,41.620364 c 0.1994,0.98848 -1.0054,1.44216 -2.2323,1.46509 -1.2267,0.0229 -1.9555,-0.62124 -1.9555,-0.62124 0,0 0.4223,-0.87595 1.5621,-1.32998 1.1402,-0.45402 2.4264,-0.50271 2.6257,0.48613"
     style="fill:#e649ad;fill-opacity:1;fill-rule:nonzero;stroke:none;stroke-width:0.0352778"
     id="path2952" /><path
     d="m 74.732655,42.464214 c 0,0.54962 -0.4456,0.99518 -0.9952,0.99518 -0.5496,0 -0.9952,-0.44556 -0.9952,-0.99518 0,-0.54963 0.4456,-0.99519 0.9952,-0.99519 0.5496,0 0.9952,0.44556 0.9952,0.99519"
     style="fill:#f5f014;fill-opacity:1;fill-rule:nonzero;stroke:none;stroke-width:0.0352778"
     id="path2954" /><path
     d="m 12.882255,40.678094 c -0.7028,0 -0.8467,0.88512 -0.6932,1.72614 0.1531,0.84103 0.6932,1.25025 0.6932,1.25025 0,0 0.5404,-0.40922 0.6935,-1.25025 0.1531,-0.84102 0.01,-1.72614 -0.6935,-1.72614"
     style="fill:#e649ad;fill-opacity:1;fill-rule:nonzero;stroke:none;stroke-width:0.0352778"
     id="path2956" /><path
     d="m 9.9644555,42.910824 c -0.1387,0.68862 0.7005995,1.00471 1.5553995,1.02059 0.8547,0.0162 1.3624,-0.43251 1.3624,-0.43251 0,0 -0.2942,-0.61066 -1.0883,-0.92674 -0.7945,-0.31645 -1.6905,-0.35031 -1.8294995,0.33866"
     style="fill:#e649ad;fill-opacity:1;fill-rule:nonzero;stroke:none;stroke-width:0.0352778"
     id="path2958" /><path
     d="m 11.061155,45.757744 c 0.5511,0.43603 1.2136,-0.16863 1.6154,-0.92287 0.4022,-0.75459 0.2325,-1.41076 0.2325,-1.41076 0,0 -0.6773,-0.0148 -1.3197,0.54963 -0.6421,0.56409 -1.0788,1.34761 -0.5282,1.784"
     style="fill:#e649ad;fill-opacity:1;fill-rule:nonzero;stroke:none;stroke-width:0.0352778"
     id="path2960" /><path
     d="m 14.659855,45.757744 c -0.5507,0.43603 -1.2132,-0.16863 -1.6153,-0.92287 -0.4022,-0.75459 -0.2325,-1.41076 -0.2325,-1.41076 0,0 0.6773,-0.0148 1.3197,0.54963 0.6424,0.56409 1.0792,1.34761 0.5281,1.784"
     style="fill:#e649ad;fill-opacity:1;fill-rule:nonzero;stroke:none;stroke-width:0.0352778"
     id="path2962" /><path
     d="m 15.800455,42.910824 c 0.1386,0.68862 -0.7007,1.00471 -1.5554,1.02059 -0.8548,0.0162 -1.3628,-0.43251 -1.3628,-0.43251 0,0 0.2946,-0.61066 1.0887,-0.92674 0.7941,-0.31645 1.6905,-0.35031 1.8295,0.33866"
     style="fill:#e649ad;fill-opacity:1;fill-rule:nonzero;stroke:none;stroke-width:0.0352778"
     id="path2964" /><path
     d="m 13.575755,43.498904 c 0,0.38277 -0.3104,0.69321 -0.6935,0.69321 -0.3828,0 -0.6932,-0.31044 -0.6932,-0.69321 0,-0.38311 0.3104,-0.69356 0.6932,-0.69356 0.3831,0 0.6935,0.31045 0.6935,0.69356"
     style="fill:#f5f014;fill-opacity:1;fill-rule:nonzero;stroke:none;stroke-width:0.0352778"
     id="path2966" /><path
     d="m 72.294955,70.793324 c -0.7027,0 -0.8467,0.88547 -0.6932,1.7265 0.1531,0.84102 0.6932,1.25024 0.6932,1.25024 0,0 0.5405,-0.40922 0.6936,-1.25024 0.1531,-0.84103 0.01,-1.7265 -0.6936,-1.7265"
     style="fill:#e649ad;fill-opacity:1;fill-rule:nonzero;stroke:none;stroke-width:0.0352778"
     id="path2968" /><path
     d="m 69.377155,73.026054 c -0.1387,0.68898 0.7006,1.00507 1.5554,1.02094 0.8548,0.0159 1.3624,-0.43286 1.3624,-0.43286 0,0 -0.2942,-0.6103 -1.0883,-0.92674 -0.7945,-0.31645 -1.6905,-0.35031 -1.8295,0.33866"
     style="fill:#e649ad;fill-opacity:1;fill-rule:nonzero;stroke:none;stroke-width:0.0352778"
     id="path2970" /><path
     d="m 70.473955,75.872974 c 0.5506,0.43638 1.2132,-0.16828 1.6153,-0.92287 0.4022,-0.75459 0.2325,-1.4104 0.2325,-1.4104 0,0 -0.6773,-0.0148 -1.3197,0.54927 -0.6421,0.56445 -1.0792,1.34761 -0.5281,1.784"
     style="fill:#e649ad;fill-opacity:1;fill-rule:nonzero;stroke:none;stroke-width:0.0352778"
     id="path2972" /><path
     d="m 74.072555,75.872974 c -0.5506,0.43638 -1.2132,-0.16828 -1.6153,-0.92287 -0.4022,-0.75459 -0.2325,-1.4104 -0.2325,-1.4104 0,0 0.6773,-0.0148 1.3197,0.54927 0.6421,0.56445 1.0792,1.34761 0.5281,1.784"
     style="fill:#e649ad;fill-opacity:1;fill-rule:nonzero;stroke:none;stroke-width:0.0352778"
     id="path2974" /><path
     d="m 75.212755,73.026054 c 0.139,0.68898 -0.7006,1.00507 -1.555,1.02094 -0.8548,0.0159 -1.3628,-0.43286 -1.3628,-0.43286 0,0 0.2942,-0.6103 1.0887,-0.92674 0.7941,-0.31645 1.6905,-0.35031 1.8291,0.33866"
     style="fill:#e649ad;fill-opacity:1;fill-rule:nonzero;stroke:none;stroke-width:0.0352778"
     id="path2976" /><path
     d="m 72.988555,73.614134 c 0,0.38312 -0.3105,0.69356 -0.6936,0.69356 -0.3828,0 -0.6932,-0.31044 -0.6932,-0.69356 0,-0.38311 0.3104,-0.69356 0.6932,-0.69356 0.3831,0 0.6936,0.31045 0.6936,0.69356"
     style="fill:#f5f014;fill-opacity:1;fill-rule:nonzero;stroke:none;stroke-width:0.0352778"
     id="path2978" /><path
     d="m 4.1661555,55.054854 c -0.998,0 -1.2026,1.25765 -0.985,2.45215 0.2177,1.19486 0.985,1.77589 0.985,1.77589 0,0 0.7673,-0.58103 0.985,-1.77589 0.2176,-1.1945 0.013,-2.45215 -0.985,-2.45215"
     style="fill:#e649ad;fill-opacity:1;fill-rule:nonzero;stroke:none;stroke-width:0.0352778"
     id="path2980" /><path
     d="m 0.02135546,58.226324 c -0.1972,0.9786 0.99520004,1.42734 2.20950004,1.45027 1.2139,0.0226 1.9353,-0.61489 1.9353,-0.61489 0,0 -0.418,-0.86713 -1.5462,-1.31657 -1.1282,-0.44909 -2.40140004,-0.49707 -2.59860004,0.48119"
     style="fill:#e649ad;fill-opacity:1;fill-rule:nonzero;stroke:none;stroke-width:0.0352778"
     id="path2982" /><path
     d="m 1.5792555,62.270214 c 0.7824,0.61983 1.7237,-0.23918 2.2948,-1.31057 0.5711,-1.07174 0.3302,-2.00378 0.3302,-2.00378 0,0 -0.9624,-0.0208 -1.8747,0.78035 -0.9122,0.80151 -1.53280004,1.91452 -0.7503,2.534"
     style="fill:#e649ad;fill-opacity:1;fill-rule:nonzero;stroke:none;stroke-width:0.0352778"
     id="path2984" /><path
     d="m 6.6913555,62.270214 c -0.7825,0.61983 -1.7237,-0.23918 -2.2948,-1.31057 -0.5712,-1.07174 -0.3302,-2.00378 -0.3302,-2.00378 0,0 0.9623,-0.0208 1.8746,0.78035 0.9123,0.80151 1.5328,1.91452 0.7504,2.534"
     style="fill:#e649ad;fill-opacity:1;fill-rule:nonzero;stroke:none;stroke-width:0.0352778"
     id="path2986" /><path
     d="m 8.3109555,58.226324 c 0.1972,0.9786 -0.9952,1.42734 -2.2095,1.45027 -1.2139,0.0226 -1.9353,-0.61489 -1.9353,-0.61489 0,0 0.418,-0.86713 1.5462,-1.31657 1.1282,-0.44909 2.4014,-0.49707 2.5986,0.48119"
     style="fill:#e649ad;fill-opacity:1;fill-rule:nonzero;stroke:none;stroke-width:0.0352778"
     id="path2988" /><path
     d="m 5.1511555,59.061704 c 0,0.54398 -0.441,0.98495 -0.985,0.98495 -0.544,0 -0.985,-0.44097 -0.985,-0.98495 0,-0.54399 0.441,-0.98496 0.985,-0.98496 0.544,0 0.985,0.44097 0.985,0.98496"
     style="fill:#f5f014;fill-opacity:1;fill-rule:nonzero;stroke:none;stroke-width:0.0352778"
     id="path2990" /><path
     d="m 59.221055,-5.6225074e-6 c -0.9981,0 -1.2027,1.2576500225074 -0.985,2.4521600225074 0.2177,1.19486 0.985,1.77588 0.985,1.77588 0,0 0.7676,-0.58102 0.9849,-1.77588 0.2177,-1.19451 0.013,-2.4521600225074 -0.9849,-2.4521600225074"
     style="fill:#e649ad;fill-opacity:1;fill-rule:nonzero;stroke:none;stroke-width:0.0352778"
     id="path2992" /><path
     d="m 55.076255,3.1714644 c -0.1972,0.97861 0.9952,1.42734 2.2094,1.45027 1.2143,0.0226 1.9354,-0.61489 1.9354,-0.61489 0,0 -0.4181,-0.86713 -1.5463,-1.31657 -1.1282,-0.44944 -2.4013,-0.49741 -2.5985,0.48119"
     style="fill:#e649ad;fill-opacity:1;fill-rule:nonzero;stroke:none;stroke-width:0.0352778"
     id="path2994" /><path
     d="m 56.634055,7.2153544 c 0.7825,0.61983 1.7237,-0.23918 2.2949,-1.31092 0.5711,-1.07174 0.3302,-2.00342 0.3302,-2.00342 0,0 -0.9624,-0.0212 -1.8747,0.78034 -0.9123,0.80151 -1.5328,1.91453 -0.7504,2.534"
     style="fill:#e649ad;fill-opacity:1;fill-rule:nonzero;stroke:none;stroke-width:0.0352778"
     id="path2996" /><path
     d="m 61.746155,7.2153544 c -0.7824,0.61983 -1.7236,-0.23918 -2.2948,-1.31092 -0.5711,-1.07174 -0.3302,-2.00342 -0.3302,-2.00342 0,0 0.9624,-0.0212 1.8747,0.78034 0.9123,0.80151 1.5328,1.91453 0.7503,2.534"
     style="fill:#e649ad;fill-opacity:1;fill-rule:nonzero;stroke:none;stroke-width:0.0352778"
     id="path2998" /><path
     d="m 63.365755,3.1714644 c 0.1972,0.97861 -0.9951,1.42734 -2.2094,1.45027 -1.2139,0.0226 -1.9353,-0.61489 -1.9353,-0.61489 0,0 0.418,-0.86713 1.5462,-1.31657 1.1282,-0.44944 2.4013,-0.49741 2.5985,0.48119"
     style="fill:#e649ad;fill-opacity:1;fill-rule:nonzero;stroke:none;stroke-width:0.0352778"
     id="path3000" /><path
     d="m 60.205955,4.0068444 c 0,0.54398 -0.441,0.98495 -0.9849,0.98495 -0.544,0 -0.985,-0.44097 -0.985,-0.98495 0,-0.54398 0.441,-0.98496 0.985,-0.98496 0.5439,0 0.9849,0.44098 0.9849,0.98496"
     style="fill:#f5f014;fill-opacity:1;fill-rule:nonzero;stroke:none;stroke-width:0.0352778"
     id="path3002" /><path
     d="m 26.428555,64.672274 c -0.7486,0 -0.9021,0.94333 -0.7387,1.83939 0.163,0.89605 0.7387,1.33173 0.7387,1.33173 0,0 0.5754,-0.43568 0.7387,-1.33173 0.1633,-0.89606 0.01,-1.83939 -0.7387,-1.83939"
     style="fill:#e649ad;fill-opacity:1;fill-rule:nonzero;stroke:none;stroke-width:0.0352778"
     id="path3004" /><path
     d="m 23.319855,67.051054 c -0.1478,0.73378 0.7465,1.07033 1.657,1.08762 0.9105,0.0169 1.4517,-0.46108 1.4517,-0.46108 0,0 -0.3136,-0.65052 -1.1599,-0.98743 -0.846,-0.3369 -1.801,-0.37288 -1.9488,0.36089"
     style="fill:#e649ad;fill-opacity:1;fill-rule:nonzero;stroke:none;stroke-width:0.0352778"
     id="path3006" /><path
     d="m 24.488255,70.083884 c 0.587,0.46497 1.2926,-0.17921 1.7212,-0.98319 0.4283,-0.80362 0.2477,-1.50248 0.2477,-1.50248 0,0 -0.7218,-0.0159 -1.4062,0.58526 -0.684,0.60113 -1.1497,1.43581 -0.5627,1.90041"
     style="fill:#e649ad;fill-opacity:1;fill-rule:nonzero;stroke:none;stroke-width:0.0352778"
     id="path3008" /><path
     d="m 28.322255,70.083884 c -0.587,0.46497 -1.2926,-0.17921 -1.7208,-0.98319 -0.4287,-0.80362 -0.248,-1.50248 -0.248,-1.50248 0,0 0.7217,-0.0159 1.4061,0.58526 0.6844,0.60113 1.1497,1.43581 0.5627,1.90041"
     style="fill:#e649ad;fill-opacity:1;fill-rule:nonzero;stroke:none;stroke-width:0.0352778"
     id="path3010" /><path
     d="m 29.537255,67.051054 c 0.1478,0.73378 -0.7465,1.07033 -1.657,1.08762 -0.9109,0.0169 -1.4517,-0.46108 -1.4517,-0.46108 0,0 0.3136,-0.65052 1.1596,-0.98743 0.8463,-0.3369 1.8009,-0.37288 1.9491,0.36089"
     style="fill:#e649ad;fill-opacity:1;fill-rule:nonzero;stroke:none;stroke-width:0.0352778"
     id="path3012" /><path
     d="m 27.167255,67.677594 c 0,0.40781 -0.3309,0.73871 -0.7387,0.73871 -0.4082,0 -0.7387,-0.3309 -0.7387,-0.73871 0,-0.40817 0.3305,-0.73872 0.7387,-0.73872 0.4078,0 0.7387,0.33055 0.7387,0.73872"
     style="fill:#f5f014;fill-opacity:1;fill-rule:nonzero;stroke:none;stroke-width:0.0352778"
     id="path3014" /><path
     d="m 56.515955,52.270724 c -0.6012,0 -0.7243,0.75742 -0.5934,1.47708 0.1312,0.71967 0.5934,1.06963 0.5934,1.06963 0,0 0.4621,-0.34996 0.5933,-1.06963 0.1309,-0.71966 0.01,-1.47708 -0.5933,-1.47708"
     style="fill:#e649ad;fill-opacity:1;fill-rule:nonzero;stroke:none;stroke-width:0.0352778"
     id="path3016" /><path
     d="m 54.019655,54.181014 c -0.1189,0.5895 0.5994,0.85972 1.3307,0.87348 0.7313,0.0134 1.1656,-0.37041 1.1656,-0.37041 0,0 -0.2519,-0.52212 -0.9314,-0.7927 -0.6794,-0.27093 -1.4464,-0.29986 -1.5649,0.28963"
     style="fill:#e649ad;fill-opacity:1;fill-rule:nonzero;stroke:none;stroke-width:0.0352778"
     id="path3018" /><path
     d="m 54.958055,56.616594 c 0.4709,0.37324 1.0379,-0.14393 1.3818,-0.78951 0.344,-0.64559 0.199,-1.20686 0.199,-1.20686 0,0 -0.5796,-0.0127 -1.1293,0.47026 -0.5492,0.4826 -0.9228,1.15287 -0.4515,1.52611"
     style="fill:#e649ad;fill-opacity:1;fill-rule:nonzero;stroke:none;stroke-width:0.0352778"
     id="path3020" /><path
     d="m 58.036755,56.616594 c -0.4713,0.37324 -1.0382,-0.14393 -1.3822,-0.78951 -0.344,-0.64559 -0.199,-1.20686 -0.199,-1.20686 0,0 0.5796,-0.0127 1.1293,0.47026 0.5496,0.4826 0.9232,1.15287 0.4519,1.52611"
     style="fill:#e649ad;fill-opacity:1;fill-rule:nonzero;stroke:none;stroke-width:0.0352778"
     id="path3022" /><path
     d="m 59.012155,54.181014 c 0.1189,0.5895 -0.5994,0.85972 -1.3307,0.87348 -0.7313,0.0134 -1.1655,-0.37041 -1.1655,-0.37041 0,0 0.2518,-0.52212 0.9313,-0.7927 0.6794,-0.27093 1.4464,-0.29986 1.5649,0.28963"
     style="fill:#e649ad;fill-opacity:1;fill-rule:nonzero;stroke:none;stroke-width:0.0352778"
     id="path3024" /><path
     d="m 57.109255,54.684084 c 0,0.32773 -0.2656,0.59337 -0.5933,0.59337 -0.3278,0 -0.5934,-0.26564 -0.5934,-0.59337 0,-0.32773 0.2656,-0.59338 0.5934,-0.59338 0.3277,0 0.5933,0.26565 0.5933,0.59338"
     style="fill:#f5f014;fill-opacity:1;fill-rule:nonzero;stroke:none;stroke-width:0.0352778"
     id="path3026" /></svg>
