<?xml version="1.0" encoding="UTF-8" standalone="no"?>
<!-- Created with Inkscape (http://www.inkscape.org/) -->

<svg
   width="350.33789mm"
   height="321.37354mm"
   viewBox="0 0 350.33789 321.37354"
   version="1.1"
   id="svg21"
   xml:space="preserve"
   sodipodi:docname="Documento nuevo 1.2025_03_22_20_01_51.0.svg"
   xmlns:inkscape="http://www.inkscape.org/namespaces/inkscape"
   xmlns:sodipodi="http://sodipodi.sourceforge.net/DTD/sodipodi-0.dtd"
   xmlns="http://www.w3.org/2000/svg"
   xmlns:svg="http://www.w3.org/2000/svg"><sodipodi:namedview
     id="namedview23"
     pagecolor="#ffffff"
     bordercolor="#000000"
     borderopacity="0.25"
     inkscape:showpageshadow="2"
     inkscape:pageopacity="0.0"
     inkscape:pagecheckerboard="0"
     inkscape:deskcolor="#d1d1d1"
     inkscape:document-units="mm"
     showgrid="false"
     showguides="true"><sodipodi:guide
       position="-3196.2994,277.54537"
       orientation="1,0"
       id="guide12263"
       inkscape:locked="false" /><sodipodi:guide
       position="-3046.9022,248.8866"
       orientation="1,0"
       id="guide12265"
       inkscape:locked="false" /><sodipodi:guide
       position="-3184.383,198.81977"
       orientation="0,-1"
       id="guide12267"
       inkscape:locked="false" /><sodipodi:guide
       position="-3121.2027,279.66824"
       orientation="1,0"
       id="guide12271"
       inkscape:locked="false" /><sodipodi:guide
       position="-2971.2749,433.57649"
       orientation="1,0"
       id="guide13663"
       inkscape:locked="false" /></sodipodi:namedview><defs
     id="defs18" /><g
     id="g128533"
     transform="matrix(0.03527778,0,0,-0.03527778,-33.315074,548.74235)"><path
       d="m 8314.26,15554.9 c -1641.06,0 -2404.5,-1775.7 -2404.5,-1775.7 0,0 -725.44,1775.7 -2404.51,1775.7 -1414.35,0 -2560.887,-1146.6 -2560.887,-2560.9 0,-4124.8 4965.397,-6548.9 4965.397,-6548.9 0,0 4965.44,2424.1 4965.44,6548.9 0,1414.3 -1146.58,2560.9 -2560.94,2560.9 z m 0,-441.2 c 566.21,0 1098.53,-220.5 1498.89,-620.8 400.35,-400.4 620.85,-932.7 620.85,-1498.9 0,-447.7 -65.2,-896.9 -193.7,-1335.3 -117.9,-402.1 -291.93,-805 -517.28,-1197.5 C 9336.94,9788.7 8795.2,9133.8 8112.84,8514.7 7497.08,7956 6879.41,7531.4 6469.68,7273.7 6236.72,7127.1 6042.6,7016.3 5909.76,6943.6 c -132.88,72.7 -326.99,183.5 -559.92,330.1 -742.33,467 -1303.29,932.6 -1643.16,1241 -682.36,619.1 -1224.11,1274 -1610.19,1946.5 -225.34,392.5 -399.38,795.4 -517.28,1197.5 -128.53,438.4 -193.7,887.6 -193.7,1335.3 0,566.2 220.5,1098.5 620.86,1498.9 400.36,400.3 932.68,620.8 1498.88,620.8 556.63,0 1056.03,-242.1 1484.34,-719.7 488.12,-598.7 905.91,-1400 905.91,-1400 0,0 432.41,781.8 930.31,1379.4 438.23,491.2 939.01,740.3 1488.45,740.3"
       style="fill:#ed2448;fill-opacity:1;fill-rule:nonzero;stroke:none"
       id="path128539" /></g></svg>
