<?xml version="1.0" encoding="UTF-8" standalone="no"?>
<!-- Created with Inkscape (http://www.inkscape.org/) -->

<svg
   width="28.443115mm"
   height="28.442719mm"
   viewBox="0 0 28.443115 28.442719"
   version="1.1"
   id="svg21"
   xml:space="preserve"
   sodipodi:docname="Documento nuevo 1.2025_03_22_20_01_51.0.svg"
   inkscape:version="1.2.2 (b0a8486541, 2022-12-01)"
   xmlns:inkscape="http://www.inkscape.org/namespaces/inkscape"
   xmlns:sodipodi="http://sodipodi.sourceforge.net/DTD/sodipodi-0.dtd"
   xmlns="http://www.w3.org/2000/svg"
   xmlns:svg="http://www.w3.org/2000/svg"><sodipodi:namedview
     id="namedview23"
     pagecolor="#ffffff"
     bordercolor="#000000"
     borderopacity="0.25"
     inkscape:showpageshadow="2"
     inkscape:pageopacity="0.0"
     inkscape:pagecheckerboard="0"
     inkscape:deskcolor="#d1d1d1"
     inkscape:document-units="mm"
     showgrid="false"
     inkscape:zoom="1.5730382"
     inkscape:cx="1217.3893"
     inkscape:cy="217.73151"
     inkscape:window-width="1854"
     inkscape:window-height="1011"
     inkscape:window-x="0"
     inkscape:window-y="0"
     inkscape:window-maximized="1"
     inkscape:current-layer="svg21" /><defs
     id="defs18" /><g
     id="g8617"
     transform="matrix(0.26458333,0,0,0.26458333,-63.499837,-110.14527)"><g
       id="objects">
	<g
   id="g8587">
		
		
		
		
		
		
		
		<path
   style="fill:#f6f9fd;fill-opacity:1"
   d="m 343.144,420.653 c -5.81,-5.808 -15.226,-5.808 -21.036,0 l -28.358,28.358 -28.358,-28.358 c -5.81,-5.808 -15.226,-5.808 -21.036,0 -5.809,5.809 -5.809,15.227 0,21.036 l 28.358,28.358 -28.358,28.358 c -5.809,5.809 -5.809,15.227 0,21.036 2.905,2.904 6.711,4.356 10.518,4.356 3.807,0 7.613,-1.453 10.518,-4.356 l 28.358,-28.358 28.358,28.358 c 2.905,2.904 6.711,4.356 10.518,4.356 3.807,0 7.613,-1.453 10.518,-4.356 5.809,-5.809 5.809,-15.227 0,-21.036 l -28.358,-28.358 28.358,-28.358 c 5.809,-5.809 5.809,-15.227 0,-21.036 z"
   id="path8583" />
		
	</g>
</g></g></svg>
