<?xml version="1.0" encoding="UTF-8" standalone="no"?>
<!-- Created with Inkscape (http://www.inkscape.org/) -->

<svg
   width="13.387207mm"
   height="15.901459mm"
   viewBox="0 0 13.387207 15.901459"
   version="1.1"
   id="svg21"
   xml:space="preserve"
   sodipodi:docname="Documento nuevo 1.2025_03_22_20_01_51.0.svg"
   xmlns:inkscape="http://www.inkscape.org/namespaces/inkscape"
   xmlns:sodipodi="http://sodipodi.sourceforge.net/DTD/sodipodi-0.dtd"
   xmlns="http://www.w3.org/2000/svg"
   xmlns:svg="http://www.w3.org/2000/svg"><sodipodi:namedview
     id="namedview23"
     pagecolor="#ffffff"
     bordercolor="#000000"
     borderopacity="0.25"
     inkscape:showpageshadow="2"
     inkscape:pageopacity="0.0"
     inkscape:pagecheckerboard="0"
     inkscape:deskcolor="#d1d1d1"
     inkscape:document-units="mm"
     showgrid="false"
     showguides="true"><sodipodi:guide
       position="222.36147,-101.21066"
       orientation="1,0"
       id="guide12263"
       inkscape:locked="false" /><sodipodi:guide
       position="371.75867,-129.86943"
       orientation="1,0"
       id="guide12265"
       inkscape:locked="false" /><sodipodi:guide
       position="234.27787,-179.93626"
       orientation="0,-1"
       id="guide12267"
       inkscape:locked="false" /><sodipodi:guide
       position="297.45817,-99.087785"
       orientation="1,0"
       id="guide12271"
       inkscape:locked="false" /><sodipodi:guide
       position="447.38597,54.820458"
       orientation="1,0"
       id="guide13663"
       inkscape:locked="false" /></sodipodi:namedview><defs
     id="defs18" /><g
     id="_x38_"
     transform="matrix(0.26458333,0,0,0.26458333,-86.105729,-52.096469)">
	<g
   id="g60062">
		<g
   id="g60058">
				<g
   id="_x36_23_x2C__Bathroom_x2C__Cleaning_Gel_x2C__Shower_x2C__Soap">
					<g
   id="XMLID_2230_">
						<g
   id="XMLID_6964_">
							<g
   id="g60008">
								<g
   id="g59980">
									<g
   id="g59978">
										<path
   style="opacity:0.2;fill:#5d6b8b;fill-opacity:1"
   d="m 329.277,217 c 1.414,0 2.524,1.1 2.524,2.5 0,1.4 -1.111,2.5 -2.524,2.5 -1.414,0 -2.525,-1.1 -2.525,-2.5 0,-1.4 1.111,-2.5 2.525,-2.5 z"
   id="path59976" />
									</g>
								</g>
								<g
   id="g59986">
									<g
   id="g59984">
										<path
   style="opacity:0.2;fill:#5d6b8b;fill-opacity:1"
   d="m 371.593,208.3 c 1.717,0 3.131,1.4 3.131,3.1 0,1.7 -1.414,3.1 -3.131,3.1 -1.717,0 -3.131,-1.4 -3.131,-3.1 0,-1.7 1.313,-3.1 3.131,-3.1 z"
   id="path59982" />
									</g>
								</g>
								<g
   id="g59990">
									<polygon
   style="opacity:0;fill:#ffffff"
   points="348.263,198.3 354.525,198.3 354.525,203.3 353.313,203.3 349.476,203.3 348.263,203.3 "
   id="polygon59988" />
								</g>
								<g
   id="g59996">
									<g
   id="g59994">
										<polygon
   style="opacity:0.2;fill:#5d6b8b;fill-opacity:1"
   points="354.525,203.3 359.574,203.3 359.574,209.5 343.214,209.5 343.214,203.3 348.263,203.3 349.476,203.3 353.313,203.3 "
   id="polygon59992" />
									</g>
								</g>
								<g
   id="g60000">
									<path
   style="opacity:0;fill:#ffffff"
   d="m 367.352,241 c 0,5.3 -0.506,10.3 -1.314,14.8 h -29.086 c -0.808,-4.5 -1.313,-9.5 -1.313,-14.8 0,-13.3 3.03,-24.9 7.474,-31.5 v 0 h 16.461 c 4.545,6.5 7.778,18.2 7.778,31.5 z m -7.676,1 c 0.505,-1.8 0.707,-3.9 0.707,-6 0,-5.4 -1.818,-10.1 -4.444,-12.8 h -9.292 c -2.525,2.6 -4.242,7.4 -4.242,12.8 0,2.1 0.303,4.2 0.707,6 z"
   id="path59998" />
								</g>
								<g
   id="g60006">
									<g
   id="g60004">
										<path
   style="opacity:0.2;fill:#5d6b8b;fill-opacity:1"
   d="m 342.507,236 c 0,-5.4 1.717,-10.1 4.242,-12.8 h 9.292 c 2.524,2.6 4.443,7.4 4.443,12.8 0,2.1 -0.303,4.2 -0.707,6 h -16.462 c -0.505,-1.8 -0.808,-3.9 -0.808,-6 z"
   id="path60002" />
									</g>
								</g>
							</g>
							<g
   id="g60052">
								<g
   id="g60050">
									<g
   id="g60012">
										<path
   style="fill:#f6f9fd;fill-opacity:1"
   d="m 366.038,257 h -29.086 c -0.606,0 -1.111,-0.4 -1.212,-1 -0.909,-4.8 -1.313,-9.8 -1.313,-15 0,-13.1 2.929,-25.1 7.776,-32.2 0.202,-0.3 0.606,-0.5 1.01,-0.5 v 0 c 0.707,0 1.313,0.6 1.313,1.3 0,0.4 -0.202,0.7 -0.404,0.9 -4.544,6.5 -7.271,17.9 -7.271,30.5 0,4.7 0.404,9.2 1.111,13.5 h 26.966 c 0.808,-4.3 1.212,-8.9 1.212,-13.5 0,-12.2 -2.929,-24 -7.575,-30.7 -0.403,-0.6 -0.201,-1.3 0.304,-1.7 0.605,-0.4 1.313,-0.2 1.717,0.3 2.322,3.4 4.343,8.1 5.756,13.6 1.516,5.7 2.223,12.1 2.223,18.6 0,5.2 -0.404,10.3 -1.314,15 -0.102,0.5 -0.606,0.9 -1.213,0.9 z"
   id="path60010" />
									</g>
									<g
   id="g60016">
										<path
   style="fill:#f6f9fd;fill-opacity:1"
   d="m 359.676,243.3 h -16.361 c -0.606,0 -1.111,-0.4 -1.212,-0.9 -0.505,-2 -0.808,-4.1 -0.808,-6.3 0,-5.5 1.717,-10.6 4.544,-13.6 0.202,-0.2 0.606,-0.4 0.909,-0.4 h 9.292 c 0.303,0 0.707,0.1 0.909,0.4 2.929,3 4.746,8.3 4.746,13.6 0,2.2 -0.303,4.3 -0.808,6.3 -0.101,0.5 -0.606,0.9 -1.211,0.9 z m -15.351,-2.5 h 14.442 c 0.303,-1.5 0.505,-3.1 0.505,-4.8 0,-4.5 -1.414,-8.8 -3.736,-11.5 h -8.181 c -2.222,2.6 -3.535,6.9 -3.535,11.5 0,1.6 0.101,3.2 0.505,4.8 z"
   id="path60014" />
									</g>
									<g
   id="g60020">
										<path
   style="fill:#f6f9fd;fill-opacity:1"
   d="m 359.574,210.8 h -16.36 c -0.707,0 -1.313,-0.6 -1.313,-1.3 v -6.3 c 0,-0.7 0.606,-1.3 1.313,-1.3 h 5.049 c 0.707,0 1.313,0.6 1.313,1.3 0,0.7 -0.606,1.3 -1.313,1.3 h -3.837 v 3.8 h 13.938 v -3.8 h -3.838 c -0.707,0 -1.313,-0.6 -1.313,-1.3 0,-0.7 0.606,-1.3 1.313,-1.3 h 5.049 c 0.707,0 1.314,0.6 1.314,1.3 v 6.3 c -0.001,0.7 -0.608,1.3 -1.315,1.3 z"
   id="path60018" />
									</g>
									<g
   id="g60024">
										<path
   style="fill:#f6f9fd;fill-opacity:1"
   d="m 354.525,204.5 h -6.362 c -0.707,0 -1.313,-0.6 -1.313,-1.3 v -5 c 0,-0.7 0.606,-1.3 1.313,-1.3 h 6.362 c 0.707,0 1.313,0.6 1.313,1.3 v 5 c 0,0.7 -0.606,1.3 -1.313,1.3 z m -5.049,-2.5 h 3.837 v -2.5 h -3.837 z"
   id="path60022" />
									</g>
									<g
   id="g60028">
										<path
   style="fill:#f6f9fd;fill-opacity:1"
   d="M 353.313,207 C 352.606,207 352,206.4 352,205.7 v -2.5 c 0,-0.7 0.606,-1.3 1.313,-1.3 0.707,0 1.313,0.6 1.313,1.3 v 2.5 c -0.101,0.7 -0.707,1.3 -1.313,1.3 z"
   id="path60026" />
									</g>
									<g
   id="g60032">
										<path
   style="fill:#f6f9fd;fill-opacity:1"
   d="m 349.476,207 c -0.707,0 -1.313,-0.6 -1.313,-1.3 v -2.5 c 0,-0.7 0.606,-1.3 1.313,-1.3 0.707,0 1.313,0.6 1.313,1.3 v 2.5 c -10e-4,0.7 -0.607,1.3 -1.313,1.3 z"
   id="path60030" />
									</g>
									<g
   id="g60036">
										<path
   style="fill:#f6f9fd;fill-opacity:1"
   d="m 353.313,233.3 h -10.099 c -0.707,0 -1.313,-0.6 -1.313,-1.3 0,-0.7 0.606,-1.3 1.313,-1.3 h 10.099 c 0.707,0 1.313,0.6 1.313,1.3 0,0.7 -0.707,1.3 -1.313,1.3 z"
   id="path60034" />
									</g>
									<g
   id="g60040">
										<path
   style="fill:#f6f9fd;fill-opacity:1"
   d="m 359.574,238.3 h -11.311 c -0.707,0 -1.313,-0.6 -1.313,-1.3 0,-0.7 0.606,-1.3 1.313,-1.3 h 11.413 c 0.707,0 1.313,0.6 1.313,1.3 0,0.7 -0.708,1.3 -1.415,1.3 z"
   id="path60038" />
									</g>
									<g
   id="g60044">
										<path
   style="fill:#f6f9fd;fill-opacity:1"
   d="m 329.277,223.3 c -2.121,0 -3.838,-1.7 -3.838,-3.8 0,-2.1 1.717,-3.8 3.838,-3.8 2.121,0 3.837,1.7 3.837,3.8 0,2.1 -1.717,3.8 -3.837,3.8 z m 0,-5 c -0.707,0 -1.313,0.6 -1.313,1.3 0,0.7 0.606,1.3 1.313,1.3 0.707,0 1.313,-0.6 1.313,-1.3 -10e-4,-0.7 -0.607,-1.3 -1.313,-1.3 z"
   id="path60042" />
									</g>
									<g
   id="g60048">
										<path
   style="fill:#f6f9fd;fill-opacity:1"
   d="m 371.593,215.8 c -2.424,0 -4.443,-2 -4.443,-4.4 0,-2.4 2.02,-4.4 4.443,-4.4 2.423,0 4.443,2 4.443,4.4 0,2.4 -2.019,4.4 -4.443,4.4 z m 0,-6.3 c -1.01,0 -1.919,0.8 -1.919,1.9 0,1.1 0.809,1.9 1.919,1.9 1.111,0 1.919,-0.8 1.919,-1.9 0,-1.1 -0.91,-1.9 -1.919,-1.9 z"
   id="path60046" />
									</g>
								</g>
							</g>
						</g>
					</g>
				</g>
				
			</g>
	</g>
</g></svg>
