<?xml version="1.0" encoding="UTF-8" standalone="no"?>
<!-- Created with Inkscape (http://www.inkscape.org/) -->

<svg
   width="16.34668mm"
   height="11.791597mm"
   viewBox="0 0 16.34668 11.791597"
   version="1.1"
   id="svg21"
   xml:space="preserve"
   sodipodi:docname="Documento nuevo 1.2025_03_22_20_01_51.0.svg"
   xmlns:inkscape="http://www.inkscape.org/namespaces/inkscape"
   xmlns:sodipodi="http://sodipodi.sourceforge.net/DTD/sodipodi-0.dtd"
   xmlns="http://www.w3.org/2000/svg"
   xmlns:svg="http://www.w3.org/2000/svg"><sodipodi:namedview
     id="namedview23"
     pagecolor="#ffffff"
     bordercolor="#000000"
     borderopacity="0.25"
     inkscape:showpageshadow="2"
     inkscape:pageopacity="0.0"
     inkscape:pagecheckerboard="0"
     inkscape:deskcolor="#d1d1d1"
     inkscape:document-units="mm"
     showgrid="false"
     showguides="true"><sodipodi:guide
       position="-2585.1182,-227.81303"
       orientation="1,0"
       id="guide12263"
       inkscape:locked="false" /><sodipodi:guide
       position="-2435.721,-256.47181"
       orientation="1,0"
       id="guide12265"
       inkscape:locked="false" /><sodipodi:guide
       position="-2573.2018,-306.53864"
       orientation="0,-1"
       id="guide12267"
       inkscape:locked="false" /><sodipodi:guide
       position="-2510.0215,-225.69016"
       orientation="1,0"
       id="guide12271"
       inkscape:locked="false" /><sodipodi:guide
       position="-2360.0937,-71.781919"
       orientation="1,0"
       id="guide13663"
       inkscape:locked="false" /></sodipodi:namedview><defs
     id="defs18" /><path
     d="m 14.957792,3.9687508 -6.7732996,6.7380562 -6.7734,-6.7380562 c -0.70549996,-0.705556 -0.70549996,-1.834445 0,-2.54 0.7056,-0.70555604 1.8345,-0.70555604 2.54,0 l 3.9159,3.915833 c 0.1764,0.176389 0.4586,0.176389 0.635,0 l 3.9157996,-3.915833 c 0.7056,-0.70555604 1.8345,-0.70555604 2.54,0 0.6703,0.705555 0.6703,1.834444 0,2.54 z m 0.5997,-3.17500004 c -1.0583,-1.058334 -2.7516,-1.058334 -3.7747,0 L 8.1844924,4.3920838 4.5860924,0.79375076 c -0.4938,-0.493889 -1.1641,-0.776112 -1.905,-0.776112 -1.4816,0 -2.6810999553453,1.19944504 -2.6810999553453,2.68111204 0,0.705555 0.2822999953453,1.375833 0.7760999953453,1.905 L 7.8316924,11.659307 c 0.1764,0.176389 0.4586,0.176389 0.635,0 L 15.522292,4.6037508 c 1.0936,-1.058334 1.0936,-2.751667 0.035,-3.81000004"
     style="fill:#f6f9fd;fill-opacity:1;fill-rule:nonzero;stroke:none;stroke-width:0.0352778"
     id="path106884" /></svg>
