<?xml version="1.0" encoding="UTF-8" standalone="no"?>
<!-- Created with Inkscape (http://www.inkscape.org/) -->

<svg
   width="149.23999mm"
   height="149.24052mm"
   viewBox="0 0 149.23999 149.24052"
   version="1.1"
   id="svg21"
   xml:space="preserve"
   sodipodi:docname="Documento nuevo 1.2025_03_22_20_01_51.0.svg"
   xmlns:inkscape="http://www.inkscape.org/namespaces/inkscape"
   xmlns:sodipodi="http://sodipodi.sourceforge.net/DTD/sodipodi-0.dtd"
   xmlns="http://www.w3.org/2000/svg"
   xmlns:svg="http://www.w3.org/2000/svg"><sodipodi:namedview
     id="namedview23"
     pagecolor="#ffffff"
     bordercolor="#000000"
     borderopacity="0.25"
     inkscape:showpageshadow="2"
     inkscape:pageopacity="0.0"
     inkscape:pagecheckerboard="0"
     inkscape:deskcolor="#d1d1d1"
     inkscape:document-units="mm"
     showgrid="false"
     showguides="true"><sodipodi:guide
       position="0.43897626,78.733115"
       orientation="1,0"
       id="guide12263"
       inkscape:locked="false" /><sodipodi:guide
       position="149.83618,50.074338"
       orientation="1,0"
       id="guide12265"
       inkscape:locked="false" /><sodipodi:guide
       position="12.355376,0.007513179"
       orientation="0,-1"
       id="guide12267"
       inkscape:locked="false" /><sodipodi:guide
       position="-13.915224,149.30514"
       orientation="0,-1"
       id="guide12269"
       inkscape:locked="false" /><sodipodi:guide
       position="75.535677,80.855987"
       orientation="1,0"
       id="guide12271"
       inkscape:locked="false" /><sodipodi:guide
       position="-124.27973,75.018088"
       orientation="0,-1"
       id="guide12336"
       inkscape:locked="false" /></sodipodi:namedview><defs
     id="defs18" /><path
     d="m 149.23998,74.619916 c 0,41.211504 -33.4084,74.620594 -74.619899,74.620594 -41.2115,0 -74.620100157275,-33.40909 -74.620100157275,-74.620594 C -1.9157275e-5,33.408416 33.408581,6.2519421e-6 74.620081,6.2519421e-6 115.83158,6.2519421e-6 149.23998,33.408416 149.23998,74.619916"
     style="fill:#f6f9fd;fill-opacity:1;fill-rule:nonzero;stroke:none;stroke-width:0.0352778"
     id="path6343" /><path
     d="m 61.915781,37.006856 c 0,0 1.9939,-1.44732 4.4669,-2.34572 3.7093,-1.44801 13.837,-5.14026 23.786,2.42147 l 8.5909,12.56338 5.889199,-3.39992 -6.339499,19.93859 -20.4338,-4.48202 6.2108,-3.58648 -5.396,-9.35285 c 0,0 -5.3176,-10.87448 -16.7745,-11.75645"
     style="fill:#a6c498;fill-opacity:1;fill-rule:nonzero;stroke:none;stroke-width:0.0714722"
     id="path11359-3" /><path
     d="m 50.174981,106.41062 c 0,0 -2.2492,-1.00132 -4.2655,-2.69593 -3.1077,-2.48723 -11.3684,-9.410034 -9.7932,-21.805434 l 6.584,-13.72411 c -5e-4,0 -5.8885,-3.39992 -5.8885,-3.39992 l 20.4367,-4.48202 6.3324,19.93858 -6.2108,-3.58718 -5.4034,9.35285 c 0,0 -6.7547,10.04398 -1.7917,20.403164"
     style="fill:#a6c498;fill-opacity:1;fill-rule:nonzero;stroke:none;stroke-width:0.0714722"
     id="path11361-6" /><path
     d="m 117.50668,82.520336 c 0,0 0.2573,2.44935 -0.2006,5.04164 -0.6003,3.93526 -2.4656,14.551024 -13.987,19.384674 l -15.180699,1.1593 c 0,7.1e-4 0,6.79986 0,6.79986 l -14.0943,-15.456584 14.0943,-15.45586 v 7.17367 h 10.7994 c 0,0 12.078799,0.83123 18.568499,-8.6467"
     style="fill:#a6c498;fill-opacity:1;fill-rule:nonzero;stroke:none;stroke-width:0.0714722"
     id="path11363-7" /><path
     d="m 59.163981,35.121426 c 0,0 2.0155,-1.46091 4.5099,-2.36787 3.745,-1.46161 13.9657,-5.18889 24.0075,2.44434 l 8.6696,12.68132 5.946499,-3.4321 -6.396899,20.12584 -20.6267,-4.5242 6.268,-3.62005 -5.4461,-9.44076 c 0,0 -5.3676,-10.9767 -16.9318,-11.86652"
     style="fill:none;stroke:#414042;stroke-width:3.19222;stroke-linecap:round;stroke-linejoin:round;stroke-miterlimit:10;stroke-dasharray:none;stroke-opacity:1"
     id="path11365-5" /><path
     d="m 59.163981,35.121426 c -1.4652,1.49162 -8.7476,13.09655 -8.7476,13.09655 l 14.6512,8.53234 8.3481,-13.73836 c 0,0 -4.9676,-7.01643 -14.2517,-7.89053 z"
     style="fill:none;stroke:#414042;stroke-width:3.19222;stroke-linecap:round;stroke-linejoin:round;stroke-miterlimit:10;stroke-dasharray:none;stroke-opacity:1"
     id="path11367-3" /><path
     d="m 47.312481,105.17558 c 0,0 -2.2699,-1.01062 -4.3048,-2.72093 -3.1377,-2.510834 -11.4756,-9.498664 -9.8854,-22.009874 l 6.6462,-13.85273 c -6e-4,0 -5.9442,-3.43137 -5.9442,-3.43137 l 20.6297,-4.5242 6.3896,20.12513 -6.2682,-3.62077 -5.4505,9.44075 c 0,0 -6.8213,10.13762 -1.8124,20.593994"
     style="fill:none;stroke:#414042;stroke-width:3.19222;stroke-linecap:round;stroke-linejoin:round;stroke-miterlimit:10;stroke-dasharray:none;stroke-opacity:1"
     id="path11369-5" /><path
     d="m 47.312481,105.17558 c 2.027,0.52676 15.7181,1.0292 15.7181,1.0292 l 0.065,-16.956054 -16.0754,-0.36237 c 0,0 -3.59,7.81405 0.2929,16.289224 z"
     style="fill:none;stroke:#414042;stroke-width:3.19222;stroke-linecap:round;stroke-linejoin:round;stroke-miterlimit:10;stroke-dasharray:none;stroke-opacity:1"
     id="path11371-6" /><path
     d="m 114.10468,80.475506 c 0,0 0.2643,2.47222 -0.2006,5.08882 -0.6074,3.97243 -2.4873,14.687524 -14.122899,19.566244 l -15.3165,1.1707 v 6.86348 l -14.2301,-15.600944 14.2301,-15.60096 v 7.24013 h 10.8996 c 0,0 12.192999,0.83908 18.739999,-8.72747"
     style="fill:none;stroke:#414042;stroke-width:3.19222;stroke-linecap:round;stroke-linejoin:round;stroke-miterlimit:10;stroke-dasharray:none;stroke-opacity:1"
     id="path11373-2" /><path
     d="m 114.10468,80.475506 c -0.5576,-2.01836 -6.9686,-14.12575 -6.9686,-14.12575 l -14.709099,8.4237 7.718999,14.10075 c 0,0 8.5624,-0.79834 13.9587,-8.3987 z"
     style="fill:none;stroke:#414042;stroke-width:3.19222;stroke-linecap:round;stroke-linejoin:round;stroke-miterlimit:10;stroke-dasharray:none;stroke-opacity:1"
     id="path11375-9" /></svg>
