<?xml version="1.0" encoding="UTF-8" standalone="no"?>
<!-- Created with Inkscape (http://www.inkscape.org/) -->

<svg
   width="55.47493mm"
   height="55.837116mm"
   viewBox="0 0 55.47493 55.837117"
   version="1.1"
   id="svg942"
   xml:space="preserve"
   sodipodi:docname="editar.svg"
   inkscape:export-filename="../../../../../../../../Descargas/imagesINTERFACES/editar.png"
   inkscape:export-xdpi="96"
   inkscape:export-ydpi="96"
   xmlns:inkscape="http://www.inkscape.org/namespaces/inkscape"
   xmlns:sodipodi="http://sodipodi.sourceforge.net/DTD/sodipodi-0.dtd"
   xmlns="http://www.w3.org/2000/svg"
   xmlns:svg="http://www.w3.org/2000/svg"><sodipodi:namedview
     id="namedview944"
     pagecolor="#ffffff"
     bordercolor="#000000"
     borderopacity="0.25"
     inkscape:showpageshadow="2"
     inkscape:pageopacity="0.0"
     inkscape:pagecheckerboard="0"
     inkscape:deskcolor="#d1d1d1"
     inkscape:document-units="mm"
     showgrid="false" /><defs
     id="defs939" /><g
     inkscape:label="Capa 1"
     inkscape:groupmode="layer"
     id="layer1"
     transform="translate(-93.839809,-88.292531)"><path
       style="fill:#5d6b8b;fill-opacity:1;stroke-width:0.0113165"
       d="m 103.4899,144.12088 c -1.59763,-0.0566 -3.00919,-0.39381 -4.31024,-1.02972 -0.94917,-0.46392 -1.75468,-1.03727 -2.48589,-1.7694 -0.95734,-0.95855 -1.66523,-2.06982 -2.15375,-3.38102 -0.35178,-0.94421 -0.55704,-1.93751 -0.6356,-3.0759 -0.006,-0.084 -0.0155,-1.22218 -0.0216,-2.52923 -0.006,-1.30705 -0.0165,-3.54261 -0.0231,-4.96792 -0.0307,-6.57596 -0.025,-17.77473 0.0109,-21.55784 0.006,-0.60372 0.0135,-1.43378 0.0172,-1.84457 0.007,-0.77033 0.0203,-1.26152 0.0404,-1.48811 0.19617,-2.21678 1.16876,-4.290103 2.76052,-5.884753 1.6106,-1.61353 3.66745,-2.56288 5.83363,-2.69253 0.22455,-0.0134 0.79737,-0.0208 2.75555,-0.0353 3.47109,-0.0258 8.15004,-0.0318 16.05805,-0.0207 l 8.07429,0.0113 0.16125,0.0414 c 0.0887,0.0228 0.16126,0.0442 0.16126,0.0476 0,0.0121 -2.27481,2.28751 -2.59177,2.59247 -0.48224,0.46397 -0.84346,0.80306 -0.88701,0.83265 -0.0537,0.0365 -0.18767,0.0794 -0.29324,0.0939 -0.0624,0.009 -2.62147,0.0126 -8.66275,0.0136 -4.71582,7.7e-4 -9.77602,0.005 -11.2449,0.01 -2.61989,0.008 -2.67518,0.009 -2.90733,0.0325 -1.6059,0.16488 -2.90289,0.73731 -3.87649,1.71091 -1.04245,1.042463 -1.63288,2.475893 -1.73149,4.203673 -0.009,0.1527 -0.0114,3.80771 -0.009,12.61217 0.002,9.26475 -5.9e-4,13.00479 -0.0116,14.80192 -0.0238,3.87296 -0.0256,3.60001 0.0271,4.05695 0.12784,1.10717 0.55112,2.17523 1.21105,3.05585 0.23939,0.31944 0.62594,0.73225 0.92105,0.98361 0.78821,0.67136 1.74254,1.14121 2.76687,1.36222 0.51318,0.11073 1.03299,0.15559 1.66352,0.14358 0.52576,-0.01 2.96103,-0.0276 5.44321,-0.0393 3.45165,-0.0163 7.39934,-0.0181 16.5786,-0.008 6.31477,0.007 8.45461,0.006 8.59485,-0.003 0.99271,-0.0693 1.79891,-0.27517 2.57449,-0.6574 0.56815,-0.28001 1.00341,-0.58844 1.4415,-1.02147 0.63449,-0.62716 1.08283,-1.36133 1.37663,-2.25427 0.19395,-0.58947 0.29698,-1.16965 0.3346,-1.88419 0.015,-0.28436 0.008,-5.77397 -0.0129,-10.16783 -0.0163,-3.42329 -0.0171,-8.68404 -0.002,-9.91321 0.007,-0.56017 0.0182,-1.46407 0.0246,-2.00867 0.0123,-1.03631 0.0214,-1.2598 0.0565,-1.39717 0.0393,-0.15353 0.0569,-0.17669 0.41322,-0.54248 0.50638,-0.51986 2.72674,-2.72258 3.18371,-3.15841 l 0.0593,-0.0566 -0.004,13.6533 c -0.003,10.13217 -0.008,13.7 -0.0173,13.83436 -0.024,0.3338 -0.0368,0.47388 -0.0654,0.71294 -0.21921,1.8337 -0.89681,3.50812 -1.98584,4.90727 -0.22591,0.29024 -0.45013,0.54129 -0.76224,0.85344 -0.30743,0.30747 -0.49043,0.47205 -0.78981,0.71034 -0.87061,0.69294 -1.88331,1.23573 -2.97118,1.5925 -0.88259,0.28944 -1.67234,0.43561 -2.75788,0.51043 -0.22558,0.0155 -30.89582,0.0241 -31.3296,0.009 z m 6.90591,-16.94241 c 0.004,-0.009 0.0446,-0.15603 0.0914,-0.32665 0.11981,-0.43655 0.25777,-0.93918 0.42217,-1.53806 0.0777,-0.2832 0.15595,-0.56837 0.17382,-0.63372 0.0572,-0.20943 0.37795,-1.37878 0.54315,-1.98038 0.088,-0.32054 0.21031,-0.76613 0.27177,-0.99019 0.0614,-0.22407 0.17603,-0.64165 0.2546,-0.92795 0.13507,-0.49213 0.38852,-1.41619 0.64093,-2.33677 0.0623,-0.22714 0.11553,-0.41528 0.11834,-0.41809 0.003,-0.003 0.22522,0.21357 0.49423,0.48084 0.67819,0.6738 1.36492,1.35395 2.68451,2.65875 0.6224,0.61544 1.38117,1.36647 1.68615,1.66896 0.30497,0.30249 0.83634,0.82895 1.18082,1.16992 0.34447,0.34096 0.62455,0.62136 0.6224,0.6231 -0.002,0.002 -0.95873,0.26925 -2.12574,0.59446 -1.16701,0.32521 -2.15494,0.6007 -2.19539,0.61221 -0.0405,0.0115 -0.21106,0.0592 -0.3791,0.10607 -1.45741,0.40613 -4.45176,1.24179 -4.46889,1.24717 -0.0157,0.005 -0.0198,0.002 -0.0152,-0.01 z m 9.73493,-4.79825 c -0.9809,-0.96149 -5.11819,-5.01437 -5.76695,-5.6493 -0.15938,-0.15598 -0.29051,-0.28894 -0.2914,-0.29545 -8.8e-4,-0.007 1.45354,-1.46518 3.23206,-3.24147 1.77853,-1.7763 6.91106,-6.90604 11.40563,-11.39943 l 8.17196,-8.169813 2.59565,2.58959 c 1.42761,1.42427 3.01197,3.00482 3.5208,3.51233 0.50882,0.507513 0.92385,0.926343 0.92229,0.930743 -0.005,0.0133 -1.53635,1.54755 -12.34249,12.36368 -5.71004,5.71532 -10.38486,10.39132 -10.3885,10.39111 -0.004,-2.2e-4 -0.48022,-0.46461 -1.05905,-1.03199 z m 25.33074,-23.215943 c -0.01,-0.0109 -0.6002,-0.59754 -1.3124,-1.30365 -1.5938,-1.58018 -2.38125,-2.36129 -3.22436,-3.19837 -0.35788,-0.35533 -1.09493,-1.08606 -1.63788,-1.62384 l -0.98718,-0.97779 0.0651,-0.068 c 0.0358,-0.0374 0.14412,-0.1495 0.24067,-0.24909 0.0965,-0.0996 0.34564,-0.35929 0.55355,-0.57713 1.1736,-1.2297 2.08906,-2.13764 2.39207,-2.37244 0.27576,-0.21368 0.60653,-0.36852 0.94719,-0.4434 0.1423,-0.0313 0.18076,-0.0367 0.37264,-0.0529 0.19957,-0.0168 0.45601,0.008 0.70365,0.0687 0.32728,0.0799 0.64475,0.23703 0.91484,0.45273 0.44287,0.35369 3.79987,3.69851 4.23543,4.22008 0.33669,0.40316 0.52832,0.85467 0.57878,1.36363 0.0147,0.14822 0.0148,0.19089 7.8e-4,0.33643 -0.0377,0.39127 -0.15051,0.71358 -0.36162,1.03286 -0.10432,0.15777 -0.17898,0.24634 -0.45176,0.53592 -0.45721,0.48537 -1.07518,1.08736 -1.96472,1.91392 -0.26448,0.24575 -0.60401,0.56275 -0.75451,0.70445 -0.1505,0.14169 -0.27795,0.25762 -0.28322,0.25762 -0.005,0 -0.0175,-0.009 -0.0271,-0.0198 z"
       id="path1107" /></g></svg>
