<?xml version="1.0" encoding="UTF-8" standalone="no"?>
<!-- Created with Inkscape (http://www.inkscape.org/) -->

<svg
   width="548.2793mm"
   height="685.09448mm"
   viewBox="0 0 548.2793 685.09448"
   version="1.1"
   id="svg21"
   xml:space="preserve"
   sodipodi:docname="Documento nuevo 1.2025_03_22_20_01_51.0.svg"
   xmlns:inkscape="http://www.inkscape.org/namespaces/inkscape"
   xmlns:sodipodi="http://sodipodi.sourceforge.net/DTD/sodipodi-0.dtd"
   xmlns="http://www.w3.org/2000/svg"
   xmlns:svg="http://www.w3.org/2000/svg"><sodipodi:namedview
     id="namedview23"
     pagecolor="#ffffff"
     bordercolor="#000000"
     borderopacity="0.25"
     inkscape:showpageshadow="2"
     inkscape:pageopacity="0.0"
     inkscape:pagecheckerboard="0"
     inkscape:deskcolor="#d1d1d1"
     inkscape:document-units="mm"
     showgrid="false"
     showguides="true"><sodipodi:guide
       position="-4451.0674,459.40583"
       orientation="1,0"
       id="guide12263"
       inkscape:locked="false" /><sodipodi:guide
       position="-4301.6702,430.74706"
       orientation="1,0"
       id="guide12265"
       inkscape:locked="false" /><sodipodi:guide
       position="-4439.151,380.68023"
       orientation="0,-1"
       id="guide12267"
       inkscape:locked="false" /><sodipodi:guide
       position="-4375.9707,461.5287"
       orientation="1,0"
       id="guide12271"
       inkscape:locked="false" /><sodipodi:guide
       position="-4226.0429,615.43694"
       orientation="1,0"
       id="guide13663"
       inkscape:locked="false" /></sodipodi:namedview><defs
     id="defs18" /><g
     id="g137066"
     transform="matrix(0.03527778,0,0,-0.03527778,-113.91667,730.60282)"><path
       d="m 8211.81,15727.3 h -3115.9 v 3115.9 h 3115.9 z m 599.49,3715.4 H 4496.41 V 15127.8 H 8811.3 v 4314.9"
       style="fill:#f6f9fd;fill-opacity:1;fill-rule:nonzero;stroke:none"
       id="path137070"
       inkscape:export-filename="Documentos/INGENIERÃA INFORMATICA/3er CURSO/2ndo CUATRI/siu/P2/images/escaner.svg"
       inkscape:export-xdpi="96"
       inkscape:export-ydpi="96" /><path
       d="M 7590.11,18221.5 H 5717.61 V 16349 h 1872.5 v 1872.5"
       style="fill:#f6f9fd;fill-opacity:1;fill-rule:nonzero;stroke:none"
       id="path137072" /><path
       d="m 16904.1,15727.3 h -3115.9 v 3115.9 h 3115.9 z m -3715.4,3715.4 v -4314.9 h 4314.9 v 4314.9 h -4314.9"
       style="fill:#f6f9fd;fill-opacity:1;fill-rule:nonzero;stroke:none"
       id="path137074" /><path
       d="M 16282.4,18221.5 H 14409.9 V 16349 h 1872.5 v 1872.5"
       style="fill:#f6f9fd;fill-opacity:1;fill-rule:nonzero;stroke:none"
       id="path137076" /><path
       d="m 5095.91,10206.2 h 3115.9 V 7090.3 H 5095.91 Z M 4496.41,6490.8 H 8811.3 v 4314.9 H 4496.41 V 6490.8"
       style="fill:#f6f9fd;fill-opacity:1;fill-rule:nonzero;stroke:none"
       id="path137078" /><path
       d="m 5717.61,7712 h 1872.5 V 9584.5 H 5717.61 V 7712"
       style="fill:#f6f9fd;fill-opacity:1;fill-rule:nonzero;stroke:none"
       id="path137080" /><path
       d="m 5717.61,14512.9 h -1221.2 v -619.7 h 1221.2 v 619.7"
       style="fill:#f6f9fd;fill-opacity:1;fill-rule:nonzero;stroke:none"
       id="path137082" /><path
       d="m 8200.7,13863.7 h 622.65 v -593.4 H 7590.11 v -84.8 -535 -617.8 -619.7 -0.3 h 610.59 v 0.3 h 1250.81 v 619.7 H 8200.7 v 617.8 H 9451.51 V 12033 h 610.59 v 617.5 535 84.8 h -628.16 v 1215.2 h -610.59 v -2.1 H 8200.7 v -619.7"
       style="fill:#f6f9fd;fill-opacity:1;fill-rule:nonzero;stroke:none"
       id="path137084" /><path
       d="m 11879.1,12650.6 v -619.8 h -610.6 V 11413 h -610.6 v -620.1 h -595.8 v -615.8 h -610.59 v 1235.6 l 610.59,0.3 v 619.7 h 610.6 v 617.9 h 1206.4"
       style="fill:#f6f9fd;fill-opacity:1;fill-rule:nonzero;stroke:none"
       id="path137086" /><path
       d="m 13139.8,9584.5 v 1212.3 h -610.6 v -592.5 h -1856.5 v -619.8 h 603.2 V 8928 h -603.2 v 656.5 h -610.6 v -643.8 h -625.9 v -619.8 h 625.9 V 7712 H 9436.2 V 6490.8 h 625.9 580.5 30.1 V 7712 h 603.2 v 620.7 h 610.6 v 1251.8 h 1253.3"
       style="fill:#f6f9fd;fill-opacity:1;fill-rule:nonzero;stroke:none"
       id="path137088" /><path
       d="m 12497.1,7712 v -619.7 h 1860.2 v -619.7 h 1877.2 v 619.7 h -1270.3 v 619.7 620.7 h -610.6 V 7712 h -1856.5"
       style="fill:#f6f9fd;fill-opacity:1;fill-rule:nonzero;stroke:none"
       id="path137090" /><path
       d="m 11283.3,6472.6 h 1213.8 v 619.7 h -1213.8 v -619.7"
       style="fill:#f6f9fd;fill-opacity:1;fill-rule:nonzero;stroke:none"
       id="path137092" /><path
       d="m 11879.1,12650.5 h 1272.8 v 619.8 h -1272.8 v -619.8"
       style="fill:#f6f9fd;fill-opacity:1;fill-rule:nonzero;stroke:none"
       id="path137094" /><path
       d="m 16799.2,12650.1 v -611.6 h 608.1 v -620.8 h -610.6 v 620.8 h -610.6 v -620.8 h -610.6 v 620.8 h -606.4 v 1231.4 l 1210.2,1.1 v 602.5 h -625.8 v 619.7 h 1236.4 v -619.7 0 -603.6 h 635.9 v -619.8 h -626.6"
       style="fill:#f6f9fd;fill-opacity:1;fill-rule:nonzero;stroke:none"
       id="path137096" /><path
       d="M 11268.5,11412.7 V 10793 h 610.6 v 618.1 h 610.6 v 619.7 h -610.6 v -618.1 h -610.6"
       style="fill:#f6f9fd;fill-opacity:1;fill-rule:nonzero;stroke:none"
       id="path137098" /><path
       d="M 11886.5,8332.7 V 7712 h 610.6 v 620.7 h -610.6"
       style="fill:#f6f9fd;fill-opacity:1;fill-rule:nonzero;stroke:none"
       id="path137100" /><path
       d="m 15575.4,7712.8 h 610.6 v 620.7 h -610.6 v -620.7"
       style="fill:#f6f9fd;fill-opacity:1;fill-rule:nonzero;stroke:none"
       id="path137102" /><path
       d="m 13140.9,12030.8 v -619.7 h 610.6 v 619.7 h -610.6"
       style="fill:#f6f9fd;fill-opacity:1;fill-rule:nonzero;stroke:none"
       id="path137104" /><path
       d="m 13151.9,13270.3 h 610.6 v 602.4 h 1232.6 v 619.8 h -1843.3 v -619.8 h 0.1 v -602.4"
       style="fill:#f6f9fd;fill-opacity:1;fill-rule:nonzero;stroke:none"
       id="path137106" /><path
       d="m 5107.01,13272.9 h -610.6 v -1860.2 h 610.6 v 1860.2"
       style="fill:#f6f9fd;fill-opacity:1;fill-rule:nonzero;stroke:none"
       id="path137108" /><path
       d="m 10041.5,14483.4 h 20.6 v -1213.1 h 610.6 v 638.3 h 610.6 v 574.8 h 908.4 v 2.1 h 340.8 v 2483.6 h -610.6 v -643.8 h -638.6 v -610.6 h 638.6 V 15094 h -638.6 v 620.7 h -610.6 V 15094 h -628.2 v 1865.2 h 610.6 v 2483.5 h -610.6 v -620.9 H 9433.94 V 17580 h 610.56 v -610.9 h -610.56 v -2483.6 h 607.56 v -2.1"
       style="fill:#f6f9fd;fill-opacity:1;fill-rule:nonzero;stroke:none"
       id="path137110" /><path
       d="m 14964.2,10205.1 h -602.1 v 595.8 h 602.5 z m 1832.5,-21 v -648 h -610.6 v 648 h -610.9 v 1233.6 h -606.4 v 620.8 h -610.6 v -627.4 h -606.7 V 9584.6 h -611.7 v -619.8 h 554.1 v -632.1 h 659.7 v 632.1 h 610.6 v 621.3 l 0.4,-0.8 h 610.6 v 2.6 l 0.3,-2.6 v -619.8 h 610.6 v -632 h 610.6 V 7099 h 610.6 v 3085.1 h -610.6"
       style="fill:#f6f9fd;fill-opacity:1;fill-rule:nonzero;stroke:none"
       id="path137112" /><path
       d="m 16186,10184 h 610.6 v 1233.7 H 16186 V 10184"
       style="fill:#f6f9fd;fill-opacity:1;fill-rule:nonzero;stroke:none"
       id="path137114" /><path
       d="m 15575.5,8965.5 v -632 h -610.9 v 632 h 610.9"
       style="fill:#f6f9fd;fill-opacity:1;fill-rule:nonzero;stroke:none"
       id="path137116" /><path
       d="m 12527.8,18832.1 v 610.6 h -1244.5 v -1252.4 h 638.6 v 641.8 h 605.9"
       style="fill:#f6f9fd;fill-opacity:1;fill-rule:nonzero;stroke:none"
       id="path137118" /><path
       d="m 11283.3,17579.7 v -610.6 h 638.6 v 610.6 h -638.6"
       style="fill:#f6f9fd;fill-opacity:1;fill-rule:nonzero;stroke:none"
       id="path137120" /><path
       d="m 12560.5,18190.3 h -638.6 v -610.6 h 638.6 v 610.6"
       style="fill:#f6f9fd;fill-opacity:1;fill-rule:nonzero;stroke:none"
       id="path137122" /><path
       d="m 6938.8,11412.7 v 620.3 h -610.6 v -620.3 h 610.6"
       style="fill:#f6f9fd;fill-opacity:1;fill-rule:nonzero;stroke:none"
       id="path137124" /><path
       d="m 6938.8,12623.2 v 1860.2 h -610.6 v -590.2 H 5717.61 V 12033 h 610.59 v 590.2 h 610.6"
       style="fill:#f6f9fd;fill-opacity:1;fill-rule:nonzero;stroke:none"
       id="path137126" /><path
       d="m 3470.75,17655.9 c -133.45,0 -241.62,108.2 -241.62,241.6 v 2570.9 c 0,133.4 108.17,241.6 241.62,241.6 h 2570.84 c 133.43,0 241.62,-108.2 241.62,-241.6 0,-133.5 -108.19,-241.6 -241.62,-241.6 H 3712.36 v -2329.3 c 0,-133.4 -108.17,-241.6 -241.61,-241.6"
       style="fill:#f6f9fd;fill-opacity:1;fill-rule:nonzero;stroke:none"
       id="path137128" /><path
       d="m 18529.3,17655.9 c -133.5,0 -241.7,108.2 -241.7,241.6 v 2329.3 h -2329.2 c -133.4,0 -241.6,108.1 -241.6,241.6 0,133.4 108.2,241.6 241.6,241.6 h 2570.9 c 133.4,0 241.6,-108.2 241.6,-241.6 v -2570.9 c 0,-133.4 -108.2,-241.6 -241.6,-241.6"
       style="fill:#f6f9fd;fill-opacity:1;fill-rule:nonzero;stroke:none"
       id="path137130" /><path
       d="M 6041.59,5205.3 H 3470.75 c -133.45,0 -241.62,108.2 -241.62,241.6 v 2570.8 c 0,133.5 108.17,241.7 241.62,241.7 133.44,0 241.61,-108.2 241.61,-241.7 V 5688.5 h 2329.23 c 133.43,0 241.62,-108.2 241.62,-241.6 0,-133.4 -108.19,-241.6 -241.62,-241.6"
       style="fill:#f6f9fd;fill-opacity:1;fill-rule:nonzero;stroke:none"
       id="path137132" /><path
       d="m 18529.3,5205.3 h -2570.9 c -133.4,0 -241.6,108.2 -241.6,241.6 0,133.4 108.2,241.6 241.6,241.6 h 2329.2 v 2329.2 c 0,133.5 108.2,241.7 241.7,241.7 133.4,0 241.6,-108.2 241.6,-241.7 V 5446.9 c 0,-133.4 -108.2,-241.6 -241.6,-241.6"
       style="fill:#f6f9fd;fill-opacity:1;fill-rule:nonzero;stroke:none"
       id="path137134" /><path
       d="M 15912.4,3507.7 V 1823.6 c 0,-294.7 -238.8,-533.6 -533.6,-533.6 H 6621.2 c -294.75,0 -533.64,238.9 -533.64,533.6 v 1684.1 c 0,294.8 238.89,533.7 533.64,533.7 h 3590 l 788.8,1009.9 788.8,-1009.9 h 3590 c 294.8,0 533.6,-238.9 533.6,-533.7"
       style="fill:#f6f9fd;fill-opacity:1;fill-rule:nonzero;stroke:none"
       id="path137136" /><path
       d="m 7958.76,2644.4 c -59.96,55.4 -154.4,95.9 -283.36,121.4 l -130.38,26.5 c -70.45,14.1 -122.16,33 -155.1,56.6 -32.96,23.6 -49.43,55 -49.43,94.2 v 0.8 c 0,29 8.37,54.7 25.15,77.2 16.74,22.4 41.03,39.9 72.85,52.4 31.81,12.5 69.59,18.7 113.34,18.7 42.61,0 80.11,-6.2 112.49,-18.7 32.39,-12.5 58.65,-30.1 78.82,-52.9 20.17,-22.7 32.25,-50.2 36.23,-82.6 l 1.7,-10.2 h 242.88 l -0.86,15.3 c -3.98,72.1 -25.28,135.1 -63.91,188.7 -38.64,53.7 -92.46,95.5 -161.5,125.3 -69.01,29.8 -150.97,44.8 -245.85,44.8 -90.9,0 -171.58,-15.7 -242.02,-46.9 -70.45,-31.3 -125.84,-74.7 -166.17,-130.4 -40.35,-55.7 -60.8,-121 -61.36,-196 v -0.8 c 0,-92.7 30.81,-168.1 92.47,-226.3 61.62,-58.2 152.96,-99.3 273.97,-123.1 l 129.53,-26.5 c 76.13,-15.3 130.52,-34.8 163.19,-58.3 32.66,-23.6 49.01,-56.1 49.01,-97.6 v -0.9 c 0,-31.2 -9.38,-58.6 -28.13,-82.2 -18.74,-23.6 -45.31,-41.8 -79.67,-54.5 -34.39,-12.8 -75.42,-19.2 -123.15,-19.2 -46.59,0 -88.34,6.4 -125.27,19.2 -36.93,12.7 -66.89,30.6 -89.91,53.6 -23,23.1 -37.35,50.5 -43.03,82.3 l -1.7,9.4 h -242.88 l 0.86,-13.7 c 4.54,-75.5 27.69,-140.2 69.45,-193.9 41.75,-53.6 98.86,-94.8 171.28,-123.5 72.45,-28.7 157.24,-43.1 254.39,-43.1 103.39,0 192.16,15.8 266.31,47.3 74.13,31.6 130.94,76.2 170.44,133.8 39.47,57.7 59.22,126 59.22,205 v 0.8 c 0,96.6 -29.98,172.6 -89.9,228"
       style="fill:#5d6b8b;fill-opacity:1;fill-rule:nonzero;stroke:none"
       id="path137138" /><path
       d="m 9107,2478.6 c -10.79,-48.8 -29.26,-90.4 -55.39,-124.8 -26.13,-34.4 -58.52,-60.6 -97.15,-78.8 -38.64,-18.2 -82.66,-27.3 -132.09,-27.3 -65.33,0 -122.29,16.9 -170.85,50.7 -48.59,33.8 -86.09,82.1 -112.49,144.9 -26.43,62.7 -39.63,137.3 -39.63,223.7 v 0.8 c 0,85.8 13.2,159.7 39.63,221.6 26.4,61.9 63.76,109.8 112.06,143.6 48.28,33.8 105.38,50.7 171.28,50.7 51.14,0 96.01,-9.4 134.65,-28.1 38.63,-18.8 70.44,-44.9 95.44,-78.4 25,-33.5 42.32,-73 51.99,-118.5 l 3.41,-14.5 h 251.39 l -0.85,8.6 c -7.96,86.9 -35.51,164.1 -82.66,231.8 -47.16,67.6 -109.65,120.7 -187.48,159.3 -77.84,38.6 -166.47,58 -265.89,58 -119.87,0 -223.69,-25.5 -311.47,-76.3 -87.77,-50.9 -155.52,-123.6 -203.25,-218.2 -47.72,-94.6 -71.58,-208 -71.58,-340.4 v -0.9 c 0,-132.4 23.86,-246 71.58,-340.8 47.73,-94.9 115.48,-167.9 203.25,-219.1 87.78,-51.1 191.6,-76.7 311.47,-76.7 99.42,0 188.05,19.2 265.89,57.6 77.83,38.3 140.46,91.3 187.9,158.9 47.43,67.6 75.13,144.9 83.09,231.8 l 0.85,9.4 h -251.39 l -1.71,-8.6"
       style="fill:#5d6b8b;fill-opacity:1;fill-rule:nonzero;stroke:none"
       id="path137140" /><path
       d="m 9889.92,2541.7 155.28,500.2 h 5.1 l 154.9,-500.2 z m 233.68,738.9 H 9896.06 L 9467.41,2050.9 h 270.14 l 92.59,298.2 h 434.66 l 92.3,-298.2 h 271 l -428.7,1229.7 h -75.8"
       style="fill:#5d6b8b;fill-opacity:1;fill-rule:nonzero;stroke:none"
       id="path137142" /><path
       d="m 11609.7,2481.2 h -5.6 l -555.1,799.4 h -225 V 2050.9 h 256.5 v 804.4 h 5.4 l 557.1,-804.4 h 223.3 v 1229.7 h -256.6 v -799.4"
       style="fill:#5d6b8b;fill-opacity:1;fill-rule:nonzero;stroke:none"
       id="path137144" /><path
       d="m 13207.5,2396.8 h -5.2 l -349.4,883.8 h -297.4 V 2050.9 h 229.3 v 830.8 h 7.5 l 331.6,-830.8 h 162 l 331.6,830.8 h 6.7 v -830.8 h 230.1 V 3280.6 H 13556 l -348.5,-883.8"
       style="fill:#5d6b8b;fill-opacity:1;fill-rule:nonzero;stroke:none"
       id="path137146" /><path
       d="m 14943.3,3068.4 v 212.2 h -814.7 V 2050.9 h 814.7 V 2263 H 14386 v 308.5 h 525.8 v 202 H 14386 v 294.9 h 557.3"
       style="fill:#5d6b8b;fill-opacity:1;fill-rule:nonzero;stroke:none"
       id="path137148" /></g></svg>
