<?xml version="1.0" encoding="UTF-8" standalone="no"?>
<!-- Created with Inkscape (http://www.inkscape.org/) -->

<svg
   width="275.41113mm"
   height="262.65692mm"
   viewBox="0 0 275.41113 262.65692"
   version="1.1"
   id="svg21"
   xml:space="preserve"
   sodipodi:docname="Documento nuevo 1.2025_03_22_20_01_51.0.svg"
   xmlns:inkscape="http://www.inkscape.org/namespaces/inkscape"
   xmlns:sodipodi="http://sodipodi.sourceforge.net/DTD/sodipodi-0.dtd"
   xmlns="http://www.w3.org/2000/svg"
   xmlns:svg="http://www.w3.org/2000/svg"><sodipodi:namedview
     id="namedview23"
     pagecolor="#ffffff"
     bordercolor="#000000"
     borderopacity="0.25"
     inkscape:showpageshadow="2"
     inkscape:pageopacity="0.0"
     inkscape:pagecheckerboard="0"
     inkscape:deskcolor="#d1d1d1"
     inkscape:document-units="mm"
     showgrid="false"
     showguides="true"><sodipodi:guide
       position="-2463.9761,419.45967"
       orientation="1,0"
       id="guide12263"
       inkscape:locked="false" /><sodipodi:guide
       position="-2314.5789,390.8009"
       orientation="1,0"
       id="guide12265"
       inkscape:locked="false" /><sodipodi:guide
       position="-2452.0597,340.73407"
       orientation="0,-1"
       id="guide12267"
       inkscape:locked="false" /><sodipodi:guide
       position="-2388.8794,421.58255"
       orientation="1,0"
       id="guide12271"
       inkscape:locked="false" /><sodipodi:guide
       position="-2238.9516,575.49079"
       orientation="1,0"
       id="guide13663"
       inkscape:locked="false" /></sodipodi:namedview><defs
     id="defs18" /><g
     id="g115696"
     transform="matrix(0.03527778,0,0,-0.03527778,-87.102615,348.11144)"><path
       d="M 6560.61,9750.8 7653.17,7537 10096.2,7182.1 c 172,-25 240.7,-236.5 116.2,-357.8 L 8444.65,5101.1 8861.97,2668 c 29.38,-171.4 -150.46,-302 -304.33,-221.1 L 6372.53,3595.6 4187.41,2446.9 C 4033.54,2366 3853.7,2496.6 3883.09,2668 l 417.32,2433.1 -1767.79,1723.2 c -124.49,121.3 -55.8,332.8 116.24,357.8 L 5091.89,7537 6184.45,9750.8 c 76.93,155.9 299.22,155.9 376.16,0"
       style="fill:#eab22c;fill-opacity:1;fill-rule:nonzero;stroke:none"
       id="path115702" /></g></svg>
