<?xml version="1.0" encoding="UTF-8" standalone="no"?>
<!-- Created with Inkscape (http://www.inkscape.org/) -->

<svg
   width="290.91895mm"
   height="278.14856mm"
   viewBox="0 0 290.91895 278.14856"
   version="1.1"
   id="svg21"
   xml:space="preserve"
   sodipodi:docname="Documento nuevo 1.2025_03_22_20_01_51.0.svg"
   xmlns:inkscape="http://www.inkscape.org/namespaces/inkscape"
   xmlns:sodipodi="http://sodipodi.sourceforge.net/DTD/sodipodi-0.dtd"
   xmlns="http://www.w3.org/2000/svg"
   xmlns:svg="http://www.w3.org/2000/svg"><sodipodi:namedview
     id="namedview23"
     pagecolor="#ffffff"
     bordercolor="#000000"
     borderopacity="0.25"
     inkscape:showpageshadow="2"
     inkscape:pageopacity="0.0"
     inkscape:pagecheckerboard="0"
     inkscape:deskcolor="#d1d1d1"
     inkscape:document-units="mm"
     showgrid="false"
     showguides="true"><sodipodi:guide
       position="-2782.7326,427.22866"
       orientation="1,0"
       id="guide12263"
       inkscape:locked="false" /><sodipodi:guide
       position="-2633.3354,398.56989"
       orientation="1,0"
       id="guide12265"
       inkscape:locked="false" /><sodipodi:guide
       position="-2770.8162,348.50306"
       orientation="0,-1"
       id="guide12267"
       inkscape:locked="false" /><sodipodi:guide
       position="-2707.6359,429.35154"
       orientation="1,0"
       id="guide12271"
       inkscape:locked="false" /><sodipodi:guide
       position="-2557.708,583.25978"
       orientation="1,0"
       id="guide13663"
       inkscape:locked="false" /></sodipodi:namedview><defs
     id="defs18" /><g
     id="g115696"
     transform="matrix(0.03527778,0,0,-0.03527778,-405.85897,355.83409)"><path
       d="m 19316,6962.4 c 0.5,-0.1 1,-0.3 1.6,-0.4 4.3,-2.8 8.6,-5.5 13,-7.8 -5.7,3 -10.5,5.7 -14.6,8.2 z m -1.7,-1.2 c 6.1,-13 4.7,-20.8 -1.1,-5.7 -0.4,2.6 -0.7,5.2 -1.1,7.8 0.3,-0.1 0.6,-0.1 0.9,-0.2 -0.4,0.5 -0.7,1 -1,1.5 -0.1,0.1 -0.1,0.2 -0.1,0.2 0,0.1 -0.1,0.1 -0.1,0.1 -0.3,0.4 -0.6,0.9 -0.9,1.4 0.3,-0.2 0.6,-0.4 0.9,-0.6 0,0 0,0.1 0,0.2 0,-0.1 0.1,-0.2 0.2,-0.3 0.8,-0.5 1.6,-1.1 2.5,-1.6 0.4,-0.5 0.8,-1 1.2,-1.5 -1.1,0.7 -2.1,1.3 -3.1,1.9 0.3,-0.5 0.5,-0.9 0.7,-1.4 0.9,-0.2 1.7,-0.4 2.5,-0.6 9.1,-10.8 10.4,-18.8 -1.5,-1.2 z m -9.4,3.8 c 0.1,0 0.1,0 0.1,0 -0.6,-2.3 -1.3,-4.5 -1.9,-6.7 0.7,2.4 1.2,4.5 1.8,6.7 z m -7.7,1.8 c 0.5,-0.1 0.9,-0.2 1.3,-0.3 -0.7,-0.3 -1.1,-0.2 -1.3,0.3 z m -125.5,-120.6 c -136.6,-133.2 -273.2,-266.3 -409.8,-399.5 -326.1,-317.8 -652.1,-635.7 -978.2,-953.6 -78.5,-76.4 -158.5,-151.5 -235.4,-229.4 -62,-62.7 -76.7,-136.6 -62.7,-222.1 1.2,-7.7 2.6,-15.4 3.9,-23.1 7.9,-46 15.8,-92.1 23.7,-138.2 71.7,-418.1 143.4,-836.1 215.1,-1254.2 55.6,-324 111.2,-648 166.7,-971.9 -5.7,3 -11.3,6 -17,9 -50.9,26.7 -101.8,53.4 -152.7,80.2 -174.4,91.7 -348.8,183.4 -523.2,275.1 -399.2,209.9 -798.4,419.7 -1197.7,629.6 -87.4,46 -174.1,93.5 -262.3,138 -78.3,39.4 -151.2,39.3 -229.5,-0.2 -9.4,-4.8 -18.8,-9.9 -28.2,-14.8 -45.5,-23.9 -91,-47.9 -136.6,-71.8 -381.4,-200.5 -762.8,-401 -1144.2,-601.6 -281.5,-148 -562.3,-297.3 -844.5,-444 41.1,268.3 92.6,535.5 138.5,803 75.5,440.2 151,880.4 226.5,1320.6 15.1,88.2 30.9,176.2 45.3,264.5 14,85.7 -1.5,160.1 -63.4,222.6 -9.8,9.8 -19.8,19.3 -29.7,28.9 -40.6,39.6 -81.2,79.2 -121.9,118.8 -313.6,305.7 -627.2,611.4 -940.9,917.1 -218.1,212.6 -439.6,422.3 -654.7,638 6.2,1 12.5,1.9 18.8,2.9 43.9,6.5 87.9,12.8 131.9,19.1 185.1,26.9 370.1,53.8 555.2,80.7 467.5,68 935,135.9 1402.6,203.8 110.5,16.1 222.7,27.9 332.5,48.4 126.7,23.6 172.8,171.9 222.5,272.6 198.5,402.1 396.9,804.2 595.4,1206.3 136.5,276.6 268,556.4 409.7,830.5 129,-261.3 257.9,-522.6 386.9,-783.9 198.7,-402.7 397.4,-805.3 596.2,-1208 26.4,-53.5 52.8,-107 79.2,-160.6 34.6,-70.1 68.2,-137 159.4,-156.1 85.5,-17.8 174.5,-25.3 260.9,-37.9 448.5,-65.1 896.9,-130.3 1345.4,-195.5 200,-29 399.9,-58.1 599.9,-87.1 79.4,-11.6 161.6,-18.4 240.5,-35.3 -3.8,-3.6 -7.5,-7.3 -11.2,-10.9 -37.6,-36.7 -75.3,-73.4 -112.9,-110 z M 17895.9,2633.7 c -3.3,-5.4 -6,-10 -5.9,-10.2 -0.8,1.3 2,5.4 5.9,10.2 z m 1.4,7.1 c 0.1,-0.3 0.1,-0.7 0.2,-1 -1.1,-0.7 -2.3,-1.4 -3.4,-2.1 -9.8,-6 -8.3,-6.6 -2.5,-4.9 -8.2,-5.3 -9.5,-1.6 5.7,8 z m 11.5,6.1 c -0.1,0.1 -0.3,0.2 -0.4,0.3 2.8,1.5 5.8,3 9.3,4.7 -3,-1.4 -6,-3.2 -8.9,-5 z m -4548.4,-12.6 c 0.1,0 0.1,0 0.1,0 5.8,-5.5 8.2,-8 -0.1,0 z m -2.3,0.7 c 0.3,-0.1 0.5,-0.1 0.7,-0.2 1.9,-3.3 3.9,-7 6.1,-11.3 -2,3.9 -4.3,7.7 -6.8,11.5 z m -12.5,12.4 c -4.6,2.6 -8.1,4.6 -8.3,4.5 1,0.7 4.3,-1.4 8.3,-4.5 z m 3.8,1.2 c -4.2,6.5 -5.4,6.7 -4.9,3.8 -2.9,5 -0.9,5.6 5.5,-3.5 -0.2,-0.1 -0.4,-0.2 -0.6,-0.3 z m -1393.5,4318.1 c 0.6,0.1 1.3,0.2 1.9,0.3 0,-0.9 -0.7,-0.9 -1.9,-0.3 z m -6.1,-1.2 v 0 c 0.7,-2.3 1.3,-4.6 2,-7.2 -0.6,2.4 -1.3,4.8 -2,7.2 z m -9.1,-4.3 c -12,-17.7 -10.6,-9.5 -1.5,1.3 -4.2,-2.5 -9,-5.2 -14.8,-8.3 4.9,2.6 9.8,5.7 14.6,8.9 0.3,0 0.6,0.1 0.8,0.2 0.3,0.2 0.4,0.4 0.6,0.7 0.9,0.5 1.7,1.1 2.6,1.6 0,0.1 0.1,0.2 0.2,0.3 0,-0.1 -0.1,-0.2 -0.1,-0.2 0.3,0.2 0.6,0.4 0.9,0.6 -0.2,-0.5 -0.5,-1 -0.8,-1.4 -0.1,0 -0.1,0 -0.2,-0.1 0,0 0,-0.1 0,-0.2 -0.1,-0.2 -0.3,-0.5 -0.4,-0.7 0.1,0.1 0.2,0.1 0.3,0.1 -0.4,-2.8 -0.7,-5.6 -1.1,-8.5 -5.9,-15.1 -7.2,-7.3 -1.1,5.7 z m 1.1,29.7 c 0.3,-1.8 0.5,-3.6 0.7,-5.3 0.7,-0.6 1.3,-1.2 1.8,-1.7 0.3,-0.8 0.6,-1.9 0.9,-2.8 0,0 0,-0.1 0,-0.2 -0.8,0.8 -1.6,1.6 -2.4,2.5 0,0 0,0 0,-0.1 0,0.1 0,0.1 0,0.2 -3.7,4.1 -7.2,8.3 -11.3,11.7 3.7,-3.1 6.8,-5.8 9.6,-8.3 -5.1,11.1 -4.5,17.7 0.7,4 z m 3.5,-9.3 c -0.2,0.6 -0.4,1.2 -0.5,1.9 0.2,-0.3 0.4,-0.5 0.6,-0.7 0,-0.4 -0.1,-0.8 -0.1,-1.2 z m 3.5,-12.3 v 0 c 0.1,-0.2 0.1,-0.4 0.2,-0.7 0,0 0,0 -0.1,0 0,0.2 -0.1,0.4 -0.1,0.7 z m -0.9,3.1 c 0,0.1 -0.1,0.1 -0.1,0.2 0,0 0.1,-0.1 0.1,-0.2 z m -0.7,-0.2 c -0.1,-0.2 -0.1,-0.3 -0.2,-0.5 v 0 c 0,0.1 0,0.2 0.1,0.4 0,0 0,0.1 0.1,0.1 z m 4.1,15.9 c -0.8,-3.2 -1.5,-6.1 -2.2,-8.9 0.5,-0.6 1,-1.1 1.5,-1.6 1.9,2.9 3.9,5.8 5.6,8.8 -1.9,-3.3 -3.7,-6.4 -5.3,-9.2 0.7,-0.8 1.4,-1.6 2,-2.3 6.4,4.1 9.2,3.5 1.8,-2.2 1.2,-1.6 2,-2.9 2.5,-3.9 -1.1,1.1 -2.2,2.2 -3.3,3.3 -0.7,-0.5 -1.4,-1.1 -2.3,-1.7 -0.1,0.2 -0.3,0.4 -0.5,0.6 2.1,1.7 1.3,2 -1.2,1.5 -0.1,0 -0.1,0.1 -0.2,0.1 0.8,0.6 1.5,1.1 2.1,1.5 -0.6,0.6 -1.2,1.2 -1.8,1.8 -0.4,-0.7 -0.8,-1.3 -1.2,-2 -0.1,0.1 -0.2,0.3 -0.3,0.4 0.4,0.6 0.8,1.3 1.2,1.9 -0.4,0.4 -0.7,0.8 -1.1,1.2 -0.2,-0.9 -0.4,-1.6 -0.7,-2.3 v 0 c 0.2,0.8 0.4,1.6 0.6,2.3 -0.5,0.6 -1.1,1.2 -1.7,1.7 -0.1,0.2 -0.2,0.3 -0.4,0.4 0.1,0.8 0.1,1.5 0.1,2.3 0.9,-0.9 1.7,-1.8 2.5,-2.6 0.8,3 1.6,5.9 2.3,8.9 z m 3671.9,2651.8 c 0.2,-0.4 0.4,-0.8 0.6,-1.2 0.1,-0.1 0.1,-0.2 0.2,-0.3 -5,-3.7 -4.6,-2 -0.8,1.5 z m -1.7,2.9 c 0.1,0 0.1,0 0.1,-0.1 -2.7,-0.7 -5.5,-1.4 -8.6,-2.1 2.9,0.7 5.7,1.5 8.5,2.2 z M 19302,6974.9 c 0.7,0.7 1.3,1.5 2.1,2.3 -1.7,2.8 -3.5,5.9 -5.4,9.2 1.8,-3 3.7,-5.9 5.7,-8.8 0.5,0.5 0.9,1 1.5,1.6 -0.8,2.8 -1.5,5.7 -2.3,8.9 0.7,-3 1.5,-5.9 2.3,-8.9 0.8,0.8 1.7,1.7 2.5,2.6 0.1,-0.8 0.1,-1.5 0.1,-2.2 -0.2,-0.3 -0.4,-0.5 -0.6,-0.7 -0.5,-0.5 -1,-1 -1.5,-1.4 0.2,-0.8 0.4,-1.6 0.6,-2.4 v 0 c -0.2,0.8 -0.4,1.5 -0.7,2.3 -0.3,-0.4 -0.7,-0.7 -1.1,-1.1 0.4,-0.7 0.8,-1.3 1.2,-2 -0.1,-0.1 -0.2,-0.3 -0.3,-0.4 -0.4,0.7 -0.8,1.3 -1.2,2.1 -0.6,-0.6 -1.2,-1.2 -1.8,-1.8 0.4,-0.3 0.9,-0.7 1.4,-1.1 -0.9,0.3 -1.6,0.4 -2.1,0.4 -0.3,-0.2 -0.5,-0.4 -0.7,-0.7 0.2,-0.4 0.9,-1 2,-1.9 -0.1,-0.1 -0.2,-0.3 -0.4,-0.5 -0.9,0.6 -1.6,1.2 -2.3,1.7 -1,-0.9 -2,-1.8 -2.9,-2.8 0.5,0.9 1.1,2 2.2,3.4 -7.5,5.7 -4.6,6.3 1.7,2.2 z m 7.7,6.7 c -0.1,0.4 -0.1,0.8 -0.2,1.2 0.2,0.2 0.4,0.4 0.7,0.7 -0.2,-0.7 -0.4,-1.3 -0.5,-1.9 z m 4.1,5.3 c 2.8,2.5 5.9,5.2 9.6,8.3 -4,-3.4 -7.6,-7.6 -11.2,-11.6 0,-0.1 -0.1,-0.2 -0.1,-0.3 0,0.1 0,0.1 0,0.1 -0.8,-0.8 -1.6,-1.7 -2.3,-2.5 0,0.1 -0.1,0.2 -0.1,0.2 0.3,0.9 0.6,2 0.9,2.8 0.6,0.5 1.2,1.1 1.8,1.7 0.2,1.7 0.5,3.5 0.7,5.3 5.3,13.7 5.8,7.1 0.7,-4 z m -7.6,-17.6 c -0.1,-0.3 -0.1,-0.5 -0.2,-0.7 v 0 c 0,0.3 0.1,0.4 0.2,0.7 z m 0.9,3.1 v 0 c 0,0.1 0,0.2 0,0.2 0,0 0,-0.1 0,-0.2 z m 0.7,-0.2 z m 100.8,424.2 c -30.7,5 -61.6,9 -92.5,13.4 -171.9,25 -343.9,50 -515.8,75 -244.3,35.5 -488.6,71 -732.9,106.5 -231.3,33.6 -462.7,67.2 -694.1,100.8 -105.8,15.4 -211.6,30.8 -317.5,46.2 -108.9,220.8 -217.9,441.6 -326.9,662.5 -195.6,396.3 -391.2,792.7 -586.8,1189 -45,91 -89.9,182.1 -134.8,273.1 -2.3,4.7 -5,9.2 -7.7,13.7 -136.5,239.7 -477.5,280.4 -674.4,90.2 -48,-46.2 -75.3,-99.4 -103.7,-156.8 -75.3,-152.7 -150.6,-305.3 -226,-458 -115.5,-234.1 -231.1,-468.3 -346.6,-702.4 -108.8,-220.3 -217.5,-440.7 -326.3,-661 -41.2,-83.6 -84.9,-166.6 -125.7,-250.6 -60.8,-8.9 -121.6,-17.7 -182.4,-26.5 -213.4,-31 -426.8,-62.1 -640.1,-93.1 -250.2,-36.3 -500.3,-72.7 -750.4,-109 -198,-28.8 -396,-57.5 -594,-86.3 -149.6,-21.7 -298.2,-28.9 -409.4,-151.3 -157.5,-173.6 -155.2,-438.4 11,-605.6 22,-22.1 44.7,-43.5 67,-65.2 124.4,-121.3 248.9,-242.6 373.3,-363.9 176.7,-172.3 353.5,-344.6 530.3,-516.9 167.4,-163.2 334.8,-326.4 502.2,-489.6 71.1,-69.3 142.2,-138.6 213.3,-207.8 -44,-256.3 -87.9,-512.5 -131.9,-768.7 -76.4,-445.4 -152.8,-890.8 -229.2,-1336.2 -9,-52.8 -18.1,-105.6 -27.1,-158.4 -1.8,-10.2 -3.6,-20.3 -5.2,-30.5 -17.9,-108.6 -9.5,-207.5 42.6,-306 56.8,-107.4 173,-193.1 292.9,-213.2 106.2,-17.7 200.4,-2.1 296.9,46.5 29.4,14.8 58.4,30.7 87.6,46.1 373.7,196.5 747.5,393 1121.2,589.4 287.3,151.1 574.7,302.1 862,453.2 233.9,-123 467.7,-245.9 701.6,-368.9 400,-210.3 800,-420.6 1200,-630.9 47.4,-24.9 94.8,-49.8 142.2,-74.7 9.1,-4.8 18.2,-9.8 27.4,-14.4 98.4,-49.6 197.4,-66.2 305.7,-44.9 119.4,23.5 233.6,111.3 287.8,220.1 48.4,97 55.9,192.2 38.4,298.2 -5.4,32.6 -11.2,65 -16.7,97.5 -71.4,416.2 -142.8,832.4 -214.2,1248.6 -54.1,315.7 -108.3,631.4 -162.4,947.2 39,38 78,76 117.1,114.1 154.4,150.5 308.8,301 463.2,451.5 181,176.4 362,352.8 543,529.3 143.2,139.6 286.5,279.3 429.8,419 37.5,36.5 74.9,73 112.4,109.6 77.3,75.3 130.2,164.4 144.8,272.9 28.8,214.1 -118.6,441.6 -339,477.2"
       style="fill:#eab22c;fill-opacity:1;fill-rule:nonzero;stroke:none"
       id="path115740"
       inkscape:export-filename="Documentos/INGENIERÃA INFORMATICA/3er CURSO/2ndo CUATRI/siu/P2/images/estrella_vacia.svg"
       inkscape:export-xdpi="96"
       inkscape:export-ydpi="96" /></g></svg>
