<?xml version="1.0" encoding="UTF-8" standalone="no"?>
<!-- Created with Inkscape (http://www.inkscape.org/) -->

<svg
   width="650.16699mm"
   height="649.7171mm"
   viewBox="0 0 650.16699 649.7171"
   version="1.1"
   id="svg21"
   xml:space="preserve"
   sodipodi:docname="Documento nuevo 1.2025_03_22_20_01_51.0.svg"
   inkscape:version="1.2.2 (b0a8486541, 2022-12-01)"
   xmlns:inkscape="http://www.inkscape.org/namespaces/inkscape"
   xmlns:sodipodi="http://sodipodi.sourceforge.net/DTD/sodipodi-0.dtd"
   xmlns="http://www.w3.org/2000/svg"
   xmlns:svg="http://www.w3.org/2000/svg"><sodipodi:namedview
     id="namedview23"
     pagecolor="#ffffff"
     bordercolor="#000000"
     borderopacity="0.25"
     inkscape:showpageshadow="2"
     inkscape:pageopacity="0.0"
     inkscape:pagecheckerboard="0"
     inkscape:deskcolor="#d1d1d1"
     inkscape:document-units="mm"
     showgrid="false"
     inkscape:zoom="1.3510998"
     inkscape:cx="546.96183"
     inkscape:cy="756.7909"
     inkscape:window-width="1854"
     inkscape:window-height="1011"
     inkscape:window-x="0"
     inkscape:window-y="0"
     inkscape:window-maximized="1"
     inkscape:current-layer="svg21" /><defs
     id="defs18" /><g
     id="g600"
     transform="matrix(0.03527778,0,0,-0.03527778,-62.891407,712.57367)"><path
       d="M 13235.956,1845.8126 3351.6071,11609.19 c 0,0 292.0692,5627.877 1076.7171,6057.699 1534.9525,840.831 5997.3388,978.557 5997.3388,978.557 L 20098.29,8770.7659"
       style="fill:#f6f9fd;fill-opacity:1;fill-rule:nonzero;stroke:none"
       id="path602"
       inkscape:export-filename="Descargas/etiqueta.png"
       inkscape:export-xdpi="96"
       inkscape:export-ydpi="96"
       sodipodi:nodetypes="ccscc" /><path
       d="m 5200.75,18286.6 c -9.82,-1 -18.57,-1.7 -29.27,-2.9 l -32.07,-3.8 -32.06,-3.8 -31.9,-5.2 c -21.26,-3.5 -42.56,-6.7 -63.59,-11.5 -84.48,-17 -167.65,-40.7 -248.35,-71 -161.32,-60.9 -312.4,-147.9 -445.81,-256.1 -133.48,-108.1 -249.3,-237.3 -341.97,-381.1 -81.05,-125.8 -143.79,-262.8 -186.75,-405.3 -89.71,57.6 -208.26,137.8 -342.66,238.9 -141.14,105.7 -297.84,236.2 -456.57,384.6 -78.76,74.8 -158.62,153.4 -236.45,236.3 -19.71,20.5 -38.61,41.9 -58.06,62.9 l -29.03,31.6 -28.44,32.4 c -38.05,43.1 -76,86.7 -112.03,130.8 -72.18,88.1 -139.63,177.8 -196.69,269.1 -57.66,91.1 -104.38,183.9 -139.04,275.9 -17.04,46.4 -30.5,91.2 -41.24,136.2 -9.86,45.1 -17.02,89.6 -21.13,133 -7.06,86.9 -3.24,169 11.98,240.8 14.73,71.9 37.81,134.3 66.06,184.7 7.58,12.3 14.11,24.7 21.55,36 7.84,11 15.3,21.7 22.4,32.1 7.62,10.1 15.88,19.2 23.17,28.4 3.85,4.5 7.05,9.3 11.16,13.2 3.98,4.1 7.87,8.1 11.66,12 7.71,7.7 14.4,15.5 21.76,22.2 7.44,6.6 14.47,12.8 21.09,18.6 12.66,12.3 25.97,20.9 36.18,29.2 5.22,4 9.96,7.7 14.19,10.9 4.54,3 8.54,5.6 11.99,7.8 6.88,4.6 11.55,7.6 13.87,9.2 50.46,31.8 102.86,64.5 163.6,82.2 52.67,15.8 107.3,26.7 162.16,33.9 27.36,4.2 55.12,5.6 82.63,7.6 l 41.39,0.8 c 13.77,0.3 27.51,-0.9 41.22,-1.3 20.04,-1.7 158.38,3.6 355.88,-53 49.33,-13.5 102.12,-31.5 157.38,-52.7 55.29,-21.1 112.93,-46.2 171.87,-74.8 117.78,-56.6 241.85,-127.2 360.88,-203.8 239.32,-152.1 458.74,-334.2 614.2,-486.7 19.5,-19 38.26,-37.3 56.18,-54.8 17.32,-18.1 33.83,-35.3 49.44,-51.6 15.61,-16.4 30.32,-31.8 44.05,-46.2 13.22,-14.8 25.5,-28.6 36.75,-41.2 22.37,-25.4 40.65,-46.1 54.15,-61.4 12.88,-15.8 21.08,-26.2 23.92,-30.2 9.33,-28.1 32.7,-47.7 50.82,-69.6 25.74,-32.1 44.67,-69.6 77.69,-95.6 16.04,-15.8 30.96,-32.9 46.31,-49.4 34.68,-37.2 76.22,-65.4 108.28,-105.8 5.83,-11.6 15.09,-15.8 24.46,-20.6 8.39,-5.8 17,-11.3 25.12,-17.7 16.92,-12.5 31.61,-27.6 46.04,-43.4 z M 20174.2,9072.8 c -31.7,104.2 -84.2,204.1 -148.8,289.5 -8.3,10.5 -16.2,21.2 -24.7,31.4 -8.6,10 -17.2,20 -25.8,29.9 -17.3,18.8 -37,39.4 -50.7,52.7 -29.8,29.7 -58.6,58.5 -86,85.8 -109.8,109.1 -196.8,195.6 -233.4,231.9 -61.6,61.8 -122.1,122.4 -183.7,184.2 -25.7,27.6 -65.7,70.7 -92.5,99.6 -4.6,5.2 -62.6,64 -161.1,163.3 -98.6,99.3 -237.5,239.2 -403.7,406.5 -332.6,334.5 -774.5,778.6 -1220.7,1227.2 -893.4,896.4 -1804.5,1810.6 -1894.8,1901.3 -506.7,501.8 -1008.1,1008.8 -1518.2,1508.4 -94.7,92.8 -1011,1008.5 -2338.6,2336.3 -166,165.9 -338.3,338.4 -516.3,516.4 -44.6,44.5 -89.4,89.4 -134.6,134.6 -13,12.3 -26,24.6 -39.1,37 -13.1,12.3 -25.9,24.9 -39.9,36.3 -27.5,23.2 -54.7,47.2 -84.1,68.5 -14.6,10.9 -29,22 -43.7,32.7 -15.2,10.2 -30.3,20.4 -45.5,30.6 l -22.8,15.2 c -7.7,5 -15.7,9.5 -23.5,14.3 -15.8,9.3 -31.6,18.7 -47.4,28.1 -15.9,9.4 -32.5,17.4 -48.8,26.1 l -24.6,12.8 c -8.2,4.4 -16.4,8.5 -24.9,12.2 -33.8,15.2 -67.3,31.5 -102.4,44.4 -17.4,6.7 -34.7,13.7 -52.3,20 -17.8,5.9 -35.6,11.8 -53.4,17.6 l -26.8,8.7 -27.3,7.4 c -18.2,4.9 -36.4,9.7 -54.6,14.6 -73.7,16.4 -148.6,30.9 -224.8,37.1 -38,4.6 -76.4,5.4 -114.8,7.1 -9.6,0.5 -19.2,0.6 -28.9,0.4 l -28.85,-0.4 -28.94,-0.4 c -9.65,-0.1 -19.31,-0.2 -28.94,-1.1 -80.87,-4.6 -145.28,-12.2 -215.66,-18.7 -277.77,-26.9 -561.21,-54.3 -849.19,-82.1 -1086.38,-105 -2237.35,-216.2 -3392.26,-327.8 -17.03,38.2 -36.25,75.6 -51.68,114.8 -4.06,10 -8.65,20 -13.9,29.7 -5.47,9.5 -11.73,18.6 -18.71,27.1 -13.98,16.9 -31.11,31.1 -52.32,40.1 -54.78,24.2 -88.31,77.8 -118.04,133.8 0.89,1.7 1.98,3.3 3.06,4.9 9.07,1.1 17.13,-9.4 25.6,-12.9 11.02,-4.6 26.23,-15.8 24.91,6.2 -0.64,5 -11.41,25.5 -28.94,54.1 -18.02,28.3 -42.43,64.9 -68.64,103.3 -26.56,38.1 -56.35,76.8 -82.33,111.3 -12.88,17.4 -25.77,32.9 -37.16,46.5 -11.36,13.6 -21.27,25.2 -29.1,34.1 -5.24,4.4 -10.67,8.9 -7.85,15 -6.04,14.9 -13.96,28 -24,38.9 -10.06,10.8 -22.79,18.9 -37.58,24.6 -4.16,4.9 -28.34,30.5 -67.64,71.6 -19.74,20.5 -44.36,43.8 -71.73,70.7 -13.77,13.4 -28.35,27.6 -43.66,42.5 -15.8,14.4 -32.35,29.5 -49.58,45.2 -137.4,126 -328.16,281 -535.03,416.6 -26.08,16.6 -52.19,33.2 -78.23,49.7 -13.04,8.3 -26.06,16.5 -39.05,24.7 -13.26,7.8 -26.49,15.6 -39.68,23.4 -26.39,15.5 -52.61,30.9 -78.58,46.1 -26.28,14.9 -52.34,29.4 -78.51,43.3 -104.36,56 -206.87,104.2 -300.36,141.1 -93.28,37.2 -177.04,63.3 -241.19,80.7 -64.31,17.1 -108.98,25.5 -124.48,29.4 -19.37,2.9 -38.42,7.8 -57.61,11.8 -19.19,3.9 -38.85,5.9 -58.5,4.8 -8.84,0.7 -17.37,1.9 -26.28,2.3 -3.06,0.6 -13.47,2 -30.34,3.9 -8.44,0.9 -18.49,1.9 -30.03,3.2 -11.64,0.7 -24.78,1.4 -39.31,2.3 -28.79,2.2 -64.48,1.8 -104.49,1.5 -20,-1.1 -41.19,-2.3 -63.45,-3.5 -22.19,-2 -45.39,-4.8 -69.56,-7.5 -96.42,-12.5 -206.89,-39.6 -319.57,-87.1 -112.81,-46.6 -226.67,-118 -325.17,-211 l -35.47,-36.6 c -5.84,-6.2 -11.83,-12.2 -17.49,-18.5 l -16.34,-19.7 c -10.75,-13.3 -21.88,-26.2 -32.09,-39.8 -9.77,-14 -19.51,-28 -29.22,-41.9 -10.02,-13.7 -18.38,-28.4 -26.89,-42.9 -8.43,-14.6 -17.33,-28.9 -24.35,-43.9 -7.39,-14.8 -14.83,-29.6 -21.87,-44.4 -6.28,-15 -12.51,-30 -18.71,-44.8 -6.53,-14.8 -10.99,-30 -16.28,-44.9 -5.07,-14.9 -10.32,-29.6 -14.07,-44.5 -4.03,-14.9 -8.03,-29.6 -11.99,-44.1 -3.11,-14.7 -6.18,-29.2 -9.22,-43.5 -1.44,-7.2 -3.11,-14.3 -4.29,-21.4 -1.09,-7.1 -2.17,-14.1 -3.25,-21.1 -2.06,-14.1 -4.36,-27.9 -6.04,-41.6 -1.31,-13.6 -2.61,-27.1 -3.89,-40.3 -0.59,-6.6 -1.19,-13.2 -1.78,-19.7 -0.29,-6.5 -0.58,-13 -0.86,-19.3 -5.16,-102.3 3.06,-188.8 12.01,-252.4 2.43,-15.9 4.2,-30.5 6.61,-43.4 2.4,-13 4.53,-24.5 6.36,-34.5 3.39,-19.9 6.47,-33.3 7.43,-39.7 2.87,-17.5 5.18,-35.3 9.16,-52.7 3.84,-17.4 7.73,-34.9 12.09,-52.1 l 14.56,-50.8 c 5.22,-16.7 11.08,-33.3 16.76,-49.9 23.6,-66.1 51.94,-129.8 81.95,-192 16.4,-30.7 33.89,-60.3 51.28,-89.8 4.2,-6.4 26.46,-42.8 65.32,-98.9 38.85,-56 95.11,-130.6 164.99,-214.4 35.05,-41.7 72.96,-86.2 114.29,-131.4 20.68,-22.7 41.32,-46.5 63.54,-69.9 22.07,-23.5 44.63,-47.5 67.6,-71.9 92.99,-96.6 195.81,-196.7 303.53,-293.8 107.66,-97.1 220.14,-191.1 330.94,-277.2 110.95,-86 220.14,-163.9 319.66,-231.2 112.92,-76.1 213.55,-138 290.27,-183.3 -5.79,-59.5 -11.59,-119 -17.36,-178.2 -14.57,-149.7 -29.08,-298.6 -43.5,-446.6 -28.85,-296.2 -57.37,-589 -85.45,-877.3 -56.19,-576.6 -110.62,-1135.2 -162.42,-1666.7 -25.9,-265.8 -51.15,-524.9 -75.63,-776 -12.24,-125.6 -24.29,-249.2 -36.13,-370.7 -5.92,-60.7 -11.79,-121 -17.61,-180.6 -2.91,-29.9 -5.81,-59.6 -8.69,-89.1 l -2.16,-22.2 c -0.71,-7.4 -1.48,-14.4 -2.02,-23.1 -1.16,-16.5 -2.31,-33 -3.46,-49.5 -8.12,-131.9 0.04,-262.2 22.6,-387.1 22.91,-124.9 59.99,-244.3 108.46,-355.5 48.46,-111.3 108.3,-214.4 176.37,-307.7 8.69,-11.5 17.35,-23 25.98,-34.5 8.63,-11.4 17.16,-22.9 26.56,-33.6 18.54,-21.7 36.19,-43.9 55.29,-64.5 9.65,-10.2 19.26,-20.4 28.84,-30.6 l 14.37,-15.1 c 4.66,-4.9 9.86,-10.6 14.02,-14.6 17.44,-17.5 34.76,-34.8 51.95,-52 275.07,-275.4 518.14,-518.7 722.78,-723.6 409.22,-409.9 664.78,-665.8 715.39,-716.5 272.23,-273.5 546.95,-539.8 820.32,-819.3 477.31,-488.5 960.71,-975.6 1440.63,-1462.6 180.53,-183.1 2361.13,-2353.5 4533.57,-4516.2 135.8,-135.1 271.5,-270.3 406.8,-404.9 33.8,-33.7 67.5,-67.3 101.3,-100.9 l 6.4,-6.4 7.9,-7.5 15.9,-15.1 c 10.4,-10.1 21.6,-19.5 32.7,-29 l 16.7,-14.2 17.3,-13.4 c 11.5,-8.9 23.1,-17.8 35.2,-26 95.4,-67.4 203.1,-116.9 315.5,-145.2 224.6,-57.3 466.9,-30.7 669.9,72.7 50.7,25.5 99.1,55.5 144.2,89.3 l 33.3,26 32,27.6 c 10.5,9.3 20.4,19.1 30.6,28.7 l 7.5,7.3 6.4,6.3 12.1,12.2 c 64.4,64.7 128.5,129.1 192.1,192.9 508.6,510.7 985.5,989.5 1399.4,1405.1 828.1,831.1 1404.9,1409.2 1481,1483.2 112.6,97.4 223.1,215.9 331,323.9 156.5,156.7 319.5,309.4 467.1,471.4 82.9,86.7 167,174.7 250,261.4 187.5,196.8 353,386.1 543.6,583.5 49.7,47.5 78.6,84 109.3,122 33,38.3 65,76.2 99.6,115.2 184.1,209.7 402.9,433.5 594.8,646.2 122.1,135.4 259.7,283.7 292.5,357.7 109.5,139.6 159,223 107.1,219.1 -105.4,-7.3 -317.2,-204.8 -403.1,-286.2 -191.8,-182 -384.5,-368.9 -577.3,-548.6 -155.9,-145.5 -319.6,-309.3 -438.8,-464.2 -156.4,-203.1 -387.1,-426.7 -616,-643.9 -4.2,-1.8 -7.8,-2.9 -11.5,-4 10.4,21.7 56.9,68.9 81.4,100.2 31.7,40.6 91.1,108.2 16.9,50.7 -69.3,-55.3 -1186.4,-1149.7 -1518.6,-1481.9 -23,-24.5 -46.5,-49.6 -60.4,-54.7 -113.7,-98.7 -217.6,-202.4 -307.4,-311.9 C 15904.2,4574 15456.7,4125 14804.4,3470.1 14478.3,3142.6 14101,2763.6 13697,2358 c -12.6,-12.7 -25.2,-25.4 -37.9,-38.1 l -4.8,-4.8 c -1.6,-1.7 -3.1,-3.2 -4.3,-4.2 l -7.6,-7.3 c -5.2,-4.8 -10.1,-9.9 -15.4,-14.5 -21.1,-18.6 -43.1,-36.3 -66.5,-52.1 -23.6,-15.5 -47.8,-30.4 -73.5,-42.5 -25.5,-12.4 -52,-23.4 -79.3,-32 -109,-35.5 -230.2,-39.7 -343.7,-9.9 -28.5,7.1 -56.3,16.9 -83.4,28.3 -27.2,11.1 -53.2,25 -78.5,40.2 -25.5,14.9 -49.2,32.8 -72.3,51.4 l -17,14.4 c -5.6,4.9 -10.9,10.3 -16.4,15.3 l -8.1,7.7 -10,9.8 -20.2,20.2 c -108,107.5 -216.4,215.4 -325,323.5 -1737.2,1729.4 -3505.13,3489.4 -3717.16,3702.7 -130.05,128.6 -255.28,263.2 -388.24,385.4 -29.31,28.8 -58.02,57 -87.33,85.8 -79.61,84.2 -1706.84,1712.5 -3354.42,3361.9 -205.94,206.2 -412.21,412.7 -615.82,616.6 -50.9,50.9 -101.63,101.7 -152.15,152.3 -25.26,25.3 -50.47,50.6 -75.62,75.7 l -37.67,37.8 -18.81,18.8 -9.18,9.3 -8.06,8.6 -32.3,34.2 c -5.53,5.5 -10.62,11.5 -15.57,17.5 l -15.1,17.9 c -20.78,23.4 -38.94,48.7 -57.7,73.4 l -7.02,9.3 -6.44,9.7 -12.91,19.3 -12.92,19.2 -6.47,9.7 -5.9,9.9 c -15.6,26.6 -31.96,52.7 -45.4,80.2 -29.19,53.9 -52.03,110.5 -72.95,167 -4.68,14.3 -9.35,28.6 -14,42.9 -2.24,7.1 -4.94,14.2 -6.81,21.4 l -5.76,21.7 c -3.85,14.5 -7.69,28.9 -11.52,43.2 -3.04,14.6 -6.07,29.1 -9.09,43.6 -24.2,116.1 -29.42,233.3 -21.15,346.5 1.39,26.7 5.16,60.4 8.11,91.5 3.09,31.5 6.16,62.7 9.21,93.8 6.1,62.2 12.12,123.6 18.05,184 11.88,120.9 23.41,238.3 34.54,351.6 89.14,906.3 153.43,1551.4 167.2,1667 75.86,636.6 139.87,1277.8 209.04,1917.6 6.21,63.2 12.43,126.5 18.64,189.7 20.24,-10.2 40.48,-20.5 60.58,-30.7 15.48,-7.7 242.11,-124.9 499.97,-224 102.7,-40 209.78,-77.6 308.14,-109.1 -1.45,-40.8 -0.07,-81.8 4.43,-122.6 7.27,-66.4 21.81,-132.1 43.84,-194.3 22.02,-62.3 50.87,-121.1 84.61,-174.4 67.55,-107.2 153.87,-190.3 238.31,-248.7 42.23,-29.2 83.72,-52.6 122.12,-70.9 38.62,-17.8 73.59,-31.8 103.83,-41.2 14.97,-5.1 28.8,-8.8 41.08,-12.2 12.23,-3.5 23.04,-6.1 32.21,-8.1 18.28,-4.2 29.87,-6.6 33.74,-7.2 41.45,-8.8 83.52,-6.8 125.76,-12.9 37.09,-5.6 74.82,-6.5 112.62,-5.7 37.71,1.8 75.62,5 113.15,11.4 7.07,1.1 33.25,6.9 72.58,19.9 39.29,13 91.78,33.7 149.03,66.2 57.11,32.3 119.34,76 176.43,131.5 28.79,27.4 55.93,58.1 81.91,90.5 25.3,32.9 49.3,67.6 70.13,104.2 41.82,73.1 72.47,152 90.56,228.4 18.71,76.4 24.52,150.1 24.1,213.6 -0.52,63.6 -8.14,117.1 -15.48,155.8 -7.3,38.7 -13.66,62.8 -14.49,68.6 3.05,9.1 2.03,17.6 -0.31,25.8 -2.59,8.2 -6.62,15.9 -9.22,23.8 -1.9,5.7 -3.32,11.6 -4.78,17.5 -1.63,5.9 -3.2,11.7 -5.08,17.5 -3.78,11.5 -8.62,22.7 -18.21,31.6 -7.85,10.8 -14.93,22 -23.44,32.3 -18.62,23.7 -46.02,39 -65,60.7 -2.42,6.9 -9.54,8.2 -16.53,9.6 -5.99,2.4 -11.96,4.5 -17.67,7 -15.66,6.6 -28.15,15.8 -41.11,24.5 -13.13,8.5 -25.26,17.7 -40.16,23.3 -9.31,3.7 -18.52,7.9 -28.63,9.4 -10.24,1.3 -21.54,-0.3 -34.47,-7.8 -26.56,-2.9 -48.77,-14.4 -70.53,-40.7 -44.62,-54 -37.92,-75.1 -34.94,-83.6 7.12,-18.6 15.57,-35.9 18.58,-55.9 1.09,-8.1 3.89,-15.2 9.94,-20 5.73,-5 14.88,-7.7 29.32,-6.9 18.96,1 29.86,-5.1 37.06,-13.9 6.74,-9 9,-21 10.16,-33.1 -1.48,-1 -3.03,-2 -4.58,-3 -7.84,-1.7 -10.28,2.3 -15.91,2.7 -7.3,0.6 -15.22,3.4 -23,-7.4 -1.55,-2.4 -0.61,-10.4 0.93,-21.8 1.91,-11.1 4.4,-25.5 7.02,-40.7 5.26,-30.1 8.08,-62.9 10.86,-77.6 1.36,-2 2.85,-4 -3.09,-5.9 -4.45,-5.6 -6.34,-10.6 -5.18,-15 0.88,-4.6 4.78,-8.6 12.25,-12.2 -0.04,-1.1 0.3,-4.4 1,-9.6 0.48,-5.3 1.13,-12.6 1.95,-21.6 1.12,-18.1 2.84,-43.2 0.9,-73 -1.67,-29.7 -6.21,-64.1 -15.33,-100.1 -9.08,-35.9 -23.23,-73.1 -41.55,-108.6 -18.32,-35.4 -40.88,-69.2 -66.14,-98.3 -25.13,-29.3 -52.16,-54.2 -77.44,-73.8 -50.87,-39.2 -94.22,-57.6 -103.4,-61.2 -5.3,-3.1 -11.62,-3.7 -17.46,-5.3 -5.92,-1.5 -11.28,-4.3 -15.84,-9.5 -2.47,-1.3 -4.96,-2.3 -7.47,-3.5 -2.09,0.2 -12.73,-2.9 -30.23,-6.7 -8.63,-2.4 -19.26,-3.9 -31.06,-6.5 -11.98,-1.7 -25.28,-4.2 -39.93,-5.4 -29.17,-3.1 -63.25,-4.3 -99.43,-1.4 -36.15,2.8 -74.33,9.7 -111.32,20.8 -36.97,11.1 -72.54,26.7 -104.26,44.7 -31.75,18 -59.54,38.4 -82.22,58.2 -45.45,39.8 -70.19,75.4 -72.62,82.8 -14.42,41.5 -34.06,76.8 -43.75,116.7 l -5.77,13.9 c -1.88,4.7 -3.34,9.5 -5,14.2 -1.48,3.9 -18.1,40.9 -29.08,100.6 27.91,-5.1 55.32,-6.4 81.05,-4.9 35.55,1.9 68.35,10.6 95.96,23.9 55.31,26.5 89.75,72.1 89.22,128.5 -0.03,1.4 -0.05,2.8 -0.07,4.1 -0.49,28.2 -14.84,55.7 -38.21,78.2 -11.69,11.3 -25.66,21.3 -41.36,29.6 -15.66,8.4 -32.99,15.4 -51.58,20 -16.43,4 -33.17,8.1 -49.34,12 -16.1,4.3 -31.62,8.3 -45.69,12 -0.38,0.1 -0.73,0.2 -1.1,0.3 2.9,6.3 5.91,12.5 9.16,18.6 4.94,10.5 11.26,20.2 16.77,30.3 6.4,9.5 12,19.5 18.85,28.6 26.11,37 56.1,69.8 85.96,95.3 29.72,25.7 58.85,45 82.88,59 6.08,3.4 11.78,6.6 17.05,9.5 5.29,2.9 10.37,5.1 14.84,7.5 8.92,4.7 16.25,7.8 21.3,10.1 3.2,3.1 6.76,5.3 10.61,6.6 3.9,1.3 8.15,1.5 12.58,1 6.94,3.8 13.51,8.9 20.59,12.8 7.03,4.1 14.25,8 22.36,8.7 3.64,0.5 7.15,1 10.73,1.5 7.74,2.3 15.75,3.4 23.56,5.2 1.48,0.1 7.83,1.4 18.15,2.4 5.15,0.6 11.22,1.5 18.17,2.2 6.95,0.5 14.73,1.2 23.19,1.9 33.89,2.1 79.05,0.7 125.35,-6.7 46.2,-7.8 93.27,-21.7 131.54,-38.1 38.34,-16.1 68.66,-32.9 84.88,-40.9 l 0.08,-0.2 c 5.77,-4 11.93,-7.1 18.84,-9 6.87,-1.9 14.71,-2.3 22.76,-2.2 16,0.3 35.15,5.3 54.78,12.7 39.39,15.4 85.12,44 119.41,87 0.85,1.1 1.7,2.2 2.48,3.2 16.95,21.6 25.88,45.7 26.02,68.5 0.31,22.8 -9.12,43.4 -26.04,57.3 -30.49,23.8 -65.15,47 -75.14,51.9 -7.88,5.1 -15.62,10 -23.51,15.1 -2.69,3.4 -7.11,8.4 -10.13,11.7 -0.43,0.7 -7.95,5.6 -20.91,13.4 -6.41,4.1 -14.53,8.3 -23.71,13.3 -9.22,4.8 -19.5,10.6 -31.17,15.8 -46.02,22.4 -110.17,46.5 -177.49,61.6 -67.21,15.6 -137.16,21.1 -191.4,20.6 -27.16,0.2 -50.39,-1.8 -67.71,-3 -17.27,-1.8 -28.64,-3.2 -32.1,-3.8 -38.32,-7.4 -76.67,-14.4 -114.06,-25.6 -9.42,-2.5 -18.72,-5.5 -27.92,-8.7 -9.21,-3.2 -18.44,-6.4 -27.51,-9.9 -17.98,-7.6 -35.96,-15.1 -52.92,-24.9 -3.1,-1.9 -13.79,-6.2 -30.19,-14.6 -8.21,-4.2 -17.96,-9.1 -29.14,-14.8 -10.91,-6.2 -23.22,-13.1 -36.82,-20.8 -53.32,-32.2 -124.68,-82.2 -193.56,-156.9 -58.73,-63 -115.81,-144.8 -157.87,-240.6 -72.04,26 -155.71,57.4 -239.12,91.4 -109.92,45 -219.19,94.5 -303.47,134.3 -41.86,20.5 -77.98,37.5 -104.55,50.9 -26.57,13.5 -44.13,22.3 -49.57,24.8 -67.45,31.8 -133.12,66.9 -198.63,102.4 4.51,20.1 10.4,43.5 17.95,70.3 6.1,19.7 12,41.6 20.56,64.5 4.23,11.5 7.79,23.7 12.91,35.9 4.88,12.2 9.93,24.9 15.14,38 22.13,51.8 50.28,109.1 87.23,169.2 36.91,60 82.6,122.8 138.6,184.9 56.08,62 123.24,122.4 200.7,178.5 39.36,27 80.53,54.1 125.11,78.1 44.58,23.8 91.19,47 140.98,65.9 98.98,39.1 208.15,66.8 324.16,79.4 1068.5,106.1 2479.81,246.1 3923.84,389.4 180.57,17.9 361.64,35.9 542.63,53.9 l 135.71,13.5 67.82,6.7 8.44,0.8 7.44,0.5 14.87,1.1 29.73,2.1 c 79.34,4.4 158.94,1.5 237.54,-8.6 157.3,-20.4 309.3,-72.3 446.8,-147.6 68.5,-38.3 133,-83.1 192.9,-132.7 14.7,-12.8 30.4,-24.4 44.1,-38.2 14.3,-13.5 28.5,-26.9 42.7,-40.3 31.4,-31.2 62.6,-62.3 93.8,-93.3 498.5,-496.1 975.3,-970.4 1402.7,-1395.7 855.2,-849.9 1512.6,-1503.3 1751.3,-1740.5 89.6,-84.7 176.5,-172.2 261.2,-262 169.3,-165.2 339.2,-323.9 507.8,-494.7 38.3,-38.7 75.5,-76.3 113.3,-114.5 85,-84.6 170.1,-169.3 254.5,-253.3 123.3,-124.6 3624.8,-3622 4367.5,-4346.9 l 1.7,-1.8 c 35.1,-35.6 75.2,-73.8 100.2,-100.9 27.4,-30 52,-61.7 73.2,-94.7 42.5,-66 72.4,-136.5 91.5,-206.5 18.5,-70.1 27,-139.5 26.7,-204.6 0.4,-65.1 -7.9,-125.7 -18.8,-180.1 -11,-54.5 -26.1,-102.5 -39.8,-143.9 -14.2,-41.1 -26.8,-75.9 -35,-103.7 -16.6,-55.1 -10.8,-86.6 33.9,-79.8 2.2,0.4 4.5,0.8 6.6,1.2 5.7,1 12.3,3 19.6,6 7.2,3.1 15,7.3 23.6,12.4 17.4,10.1 36.6,25 57.9,44 42.1,38.4 89.5,96.2 130.7,173.4 20.1,38.7 38.7,82.1 53.8,129.6 14.8,47.6 25.9,99.3 32.1,153.8 12.4,109 3.6,230.1 -33.2,348.1"
       style="fill:#5d6b8b;fill-opacity:1;fill-rule:nonzero;stroke:none"
       id="path604"
       inkscape:export-filename="Documentos/INGENIERÃA INFORMATICA/3er CURSO/2ndo CUATRI/siu/P2/images/etiqueta.svg"
       inkscape:export-xdpi="96"
       inkscape:export-ydpi="96" /><path
       d="m 10102.8,14445.7 c -51.3,-37.2 -847.25,-810.5 -1082.99,-1046.3 -16.1,-17.5 -32.56,-35.6 -43.66,-38 -82.86,-67.8 -156.69,-141.3 -217.56,-221.9 -64.91,-63 -1269.36,-1275.1 -2495.46,-2509 l -28.74,-28.9 -7.19,-7.3 -3.59,-3.6 -1.8,-1.8 -2.7,-2.9 c -7.54,-8.1 -14.97,-16.3 -22.27,-24.6 -28.27,-34.2 -52.23,-72.4 -69.24,-113.7 -16.8,-41.3 -27.44,-84.8 -31.59,-129 -3.81,-44.1 -0.59,-88.7 8.68,-132 9,-43.4 26.03,-85.1 47.94,-123.6 5.74,-9.4 11.07,-19.2 17.55,-28.2 6.44,-9 13.02,-17.9 19.72,-26.7 6.78,-8.7 14.39,-16.6 21.73,-24.8 l 11.11,-11.9 7.19,-7.2 c 38.38,-38.1 76.68,-76.1 114.85,-114.1 152.72,-151.7 303.57,-301.7 450.37,-447.5 293.55,-291.8 570.88,-567.5 814.38,-809.5 486.56,-484.6 837.95,-834.5 913.57,-909.8 92.49,-91 180,-187.9 275.92,-273 20.87,-20.4 41.31,-40.4 62.18,-60.7 55.83,-60.4 1210.4,-1216.1 2379.2,-2386.8 584.3,-585.6 1172.2,-1174.8 1628.6,-1632.3 14.2,-14.3 28.4,-28.5 42.3,-42.5 l 10.5,-10.6 5.2,-5.2 1.3,-1.3 2.2,-2 4.3,-4.1 17.5,-15.9 8.9,-7.7 9.4,-7.2 c 49.8,-38.5 107.4,-65.1 166.2,-78.7 58.8,-13.7 118.8,-14.6 175.5,-4.3 56.7,10.3 110.1,31.9 156.3,61.7 11.5,7.5 22.4,15.8 33.2,23.8 10.8,8.1 20.4,17.5 30.3,26.3 l 7.3,6.8 4.6,4.5 8.7,8.6 c 5.7,5.7 11.4,11.4 17.1,17 22.7,22.5 44.6,44.4 65.9,65.5 42.6,42.3 82.3,81.7 118.9,118 146.3,145.1 243,240.2 273.1,268.5 331.6,311.7 656.2,633.7 984.1,951.6 81.4,81.1 162.8,162.2 243.8,242.8 73.2,73.7 1459.8,1468.6 2912.3,2929.7 181.5,182.7 364,366.4 545.2,548.7 l 33.9,34.2 4.2,4.2 6.8,7.3 13.4,14.8 c 9.1,9.8 17.1,20.5 24.9,31.4 31.5,43.3 55.1,92.5 69.2,144 28.5,103 17.9,215 -28.7,310.6 -5.4,12.2 -12,23.6 -18.9,35 l -10.3,17 -11.6,16.1 c -7.8,10.6 -15.6,21.3 -24.6,30.9 l -13.2,14.5 -6.7,7.2 -4.7,4.7 c -22.4,22.3 -44.8,44.5 -67.2,66.7 -44.7,44.4 -89.2,88.6 -133.4,132.6 -354.2,351.7 -692.9,687.9 -996.4,989.4 -607.7,602.3 -1074.8,1065.4 -1244.4,1233.5 -64.3,59.5 -125.9,121.6 -185.2,186.1 -120.8,116.6 -243,227.6 -362.3,349.1 -27.1,27.6 -53.5,54.3 -80.2,81.4 -60.4,60 -120.8,120 -180.7,179.6 -87.4,88.6 -2572.7,2569.8 -3102.3,3081.6 l -1.2,1.4 c -102.2,102.6 -203,195 -296.9,273.7 -23.5,19.6 -46.5,38.4 -69.1,56.3 -12.2,9.5 -24.1,18.8 -35.9,28 -7.7,5.9 -15.4,11.7 -23.2,17 -8.1,5 -16.2,9.8 -24.2,14.5 -32.7,17.4 -65.8,29.9 -98.2,35.4 -4,0.8 -8,1.5 -12,2.3 -4,0.4 -7.9,0.9 -11.9,1.3 -7.9,0.8 -15.6,1.6 -23.2,2 -7.6,-0.1 -15.1,-0.1 -22.6,-0.2 -3.6,-0.1 -7.2,-0.2 -10.8,-0.3 -3.6,-0.4 -7.2,-0.8 -10.7,-1.2 -56.5,-6.2 -101.5,-26.8 -132.6,-50.4 -8,-5.4 -14.7,-12.3 -21,-18.2 -3.1,-3.1 -6.1,-6 -8.9,-9 -2.6,-3.2 -5.1,-6.3 -7.5,-9.4 -4.6,-6.3 -8.8,-12 -12.1,-17.8 -3.2,-6.1 -5.9,-11.8 -8,-17.2 -4.5,-10.5 -6,-20.8 -6,-29.5 0,-8.6 1.7,-15.8 4.9,-21.9 6.3,-12 18.6,-19.2 34.4,-23.4 1.6,-0.5 3.1,-0.8 4.6,-1.2 4,-1.1 8.2,-1.7 12.7,-2.1 4.7,-0.7 9.6,-1.2 14.6,-1.4 2.5,-0.1 5.1,-0.1 7.7,0 2.6,-0.2 5.4,-0.3 8.2,-0.5 5.7,-0.4 11,0.2 17.1,-0.6 6,-0.6 11.7,-0.2 18,-1.3 3.1,-0.4 6.2,-0.7 9.3,-0.9 3.1,-0.4 6.3,-1.1 9.4,-1.6 6.2,-0.5 12.8,-2.8 19.1,-3.8 3.1,-0.8 6.4,-2.1 9.5,-2.9 l 4.8,-1.3 4.7,-2 c 6.3,-1.9 12.3,-5.3 18.4,-7.7 3,-1.8 5.9,-3.6 8.8,-5 3.1,-1.3 5.6,-3.9 8.5,-5.5 11,-7.6 20.9,-16.5 29.7,-26.8 1,-1.4 2.1,-2.7 3.2,-4 l 4.3,-4.9 c 5.5,-6.1 11.1,-12.4 16.7,-18.6 11.4,-12.4 23,-25 34.7,-37.7 23.7,-25.3 48.4,-50.9 74,-76.4 181,-180.2 375.7,-374.5 428.1,-425.6 43.7,-43.9 86.6,-86.9 130.3,-130.7 18,-20 45.9,-51 64.6,-71.8 3.2,-3.7 44.2,-45.6 114,-116.2 69.9,-70.5 168.3,-170 286,-288.9 235.9,-237.5 549.1,-553 865.4,-871.7 633,-637.1 1279,-1286.4 1343.6,-1350.1 360.3,-355.4 715.3,-716.1 1078.7,-1069 67.5,-65.6 717.9,-715.3 1659.9,-1657.5 117.8,-117.8 240.1,-240.2 366.4,-366.5 63.2,-63.2 127.3,-127.4 192.4,-192.5 l 24.4,-24.4 12.3,-12.3 c 1.3,-1.3 1.1,-1.2 1.6,-1.8 l 1,-1.2 2,-2.4 c 3.3,-2.7 5,-6.6 7.8,-9.6 1.4,-1.6 1.9,-3.6 3.1,-5.3 0.9,-1.8 2.5,-3.3 3,-5.3 0.8,-1.9 1.6,-3.8 2.6,-5.6 1.1,-1.7 1.2,-3.9 2.1,-5.8 1.8,-3.7 2,-8 3.4,-11.9 1,-8.3 2.7,-16.7 1.5,-25.1 v -3.2 l -0.6,-3.1 c -0.4,-2.1 -0.4,-4.3 -0.8,-6.3 -1.5,-4 -1.6,-8.3 -3.5,-12.1 -2.3,-8.1 -6.8,-15.2 -11.1,-22.4 -2.7,-3.2 -4.7,-7 -8.1,-9.9 l -2.1,-2.5 -1,-1.3 -3,-3 -12.8,-12.8 c -17,-17 -34.1,-34.1 -51.3,-51.2 -68.5,-68.5 -137.8,-137.8 -207.9,-207.8 -140,-140 -283,-282.8 -428.2,-427.9 C 17218.9,7428.5 16601.3,6811.5 15983.6,6194.3 15365.7,5577.2 14747.8,4960 14166.1,4378.9 13875.2,4088.4 13593.4,3807 13325.2,3539.2 l -25.1,-25.1 c -2.6,-2.8 -2.6,-2.4 -3.6,-3.3 l -2.3,-2 c -1.6,-1.3 -2.8,-3.1 -4.6,-4 -3.4,-2.2 -6.3,-5 -9.9,-6.6 -3.2,-2.4 -7,-3.5 -10.5,-5.4 -7.3,-2.6 -14.8,-5.5 -22.8,-6 -3.9,-1.1 -7.9,-0.4 -11.9,-1.1 -1.9,-0.1 -3.9,0.4 -5.9,0.4 -2,0 -4,-0.1 -5.9,0.5 -1.9,0.3 -3.9,0.6 -5.9,0.7 -1.9,0.4 -3.7,1.1 -5.6,1.5 -4,0.4 -7.3,2.7 -11.1,3.4 -6.8,3.5 -14,6.3 -19.9,11.4 -3.3,1.9 -5.9,5.1 -8.9,7.5 -0.5,0 -5.8,5.5 -9.6,9.2 l -11.9,12 c -16,16 -31.8,31.9 -47.7,47.7 -126.5,126.7 -249.1,249.4 -367.1,367.6 -944,945.7 -1597.5,1600.3 -1669.3,1672.2 -193,194.3 -389.2,382.1 -582.3,581.3 -337.1,348.3 -679.54,694.5 -1019.07,1041.1 -63.86,65.2 -483.01,482.4 -1079.07,1075 -298.07,296.3 -640.32,636.5 -1004.47,998.4 -182.1,180.9 -369.68,367.3 -559.95,556.4 -95.13,94.5 -190.94,189.7 -287.08,285.3 l -36.06,35.8 -18.05,17.9 -8.96,8.9 c -0.83,1.1 -1.7,2.2 -2.63,3.2 -7.5,8.1 -13.1,17 -16.94,27 -7.8,19.9 -7.42,43.9 0.99,63.6 2.06,5 4.71,9.6 7.58,14.2 1.87,2 3.01,4.5 4.84,6.6 1.01,0.9 1.97,1.9 2.88,3 l 1.33,1.6 0.64,0.9 c 0.22,0.3 0.26,0.4 1.23,1.4 l 71.83,72.2 c 47.86,48.2 95.67,96.3 143.39,144.3 95.44,96.1 190.52,191.7 284.88,286.7 188.73,189.9 374.62,376.9 554.88,558.3 360.61,362.7 698.75,702.7 992.26,997.9 587.2,590.2 996.32,1000.6 1050.65,1052.8 82.02,67 159.31,152.2 235.84,228.9 111.05,111.2 228.16,218 330.86,335.1 58.3,62.1 117.4,125 175.7,187.1 131.8,141 245.8,278.8 380,419.9 35.6,33.4 55,60.3 75.8,88.4 22.5,27.9 44.5,55.7 68.3,84 127,152.6 281.5,312.1 414.6,466.1 84.8,97.9 180.9,204.7 198.2,263.2 73.3,103.4 103.5,167.6 59.7,171.8 -89,9 -241.4,-129 -303,-186.2 -137.5,-127.7 -275.1,-259.5 -413.9,-385.1 -112.1,-101.7 -228.2,-217.9 -307.6,-333 -104.2,-150.9 -269,-308.6 -433.1,-461.1 -3.3,-0.9 -6.3,-1.3 -9.3,-1.6 5.7,17 38.7,50.6 55.1,73.7 21.2,30.2 62.1,79.3 7.1,40.9"
       style="fill:#5d6b8b;fill-opacity:1;fill-rule:nonzero;stroke:none"
       id="path606" /><path
       d="m 14504.7,9958.5 c 17.9,-40.7 38.1,-72.5 61.7,-92.2 23.5,-19.5 49.8,-26.8 77.9,-17.4 1.4,0.4 2.8,0.9 4.1,1.4 14,4.9 27.5,16.1 40,32.6 6.2,8.2 12.2,17.7 17.8,28.4 5.4,10.7 10.5,22.6 15.2,35.4 19.1,51.4 29.4,118.9 28.3,191.2 -1.9,63.8 -4.8,129.9 -9.4,184.4 -3.9,54.7 -9.4,97.7 -11.3,115.9 -3.4,30.7 -6.6,60.8 -10.6,91.4 -0.5,13.4 -1.3,34.3 -1.8,48.3 0,1.2 -0.8,9.1 -2.5,22.8 -2.1,13.7 -5,33.2 -8.7,57.8 -7.7,49 -20.1,117.9 -38.5,199.9 -36.3,163.7 -100.6,379.7 -200.2,587.8 -49.7,103.9 -108.1,205.5 -172.2,297.4 -63.9,91.9 -133.6,173.7 -201,240.1 -33.2,33.6 -66.9,62.5 -97.2,88.5 -31.4,25 -59.2,47.4 -84.8,64.7 -24.8,18.2 -46.4,31.6 -62.7,41.9 -16.3,10.4 -27.5,17.4 -33,20.2 -238.5,136.9 -509.5,209.1 -778.6,204.6 -6.1,0.1 -18.7,-0.4 -37.4,-0.7 -9.3,-0.2 -20.2,-0.4 -32.5,-0.6 -12.4,-0.7 -26.2,-1.4 -41.4,-2.2 -60.8,-3.7 -144.6,-11.2 -246.1,-32.5 -25.3,-5.8 -51.9,-11 -79.3,-18.7 -13.7,-3.7 -27.7,-7.4 -41.9,-11.2 -14.2,-4.4 -28.6,-8.9 -43.2,-13.4 -7.4,-2.4 -14.8,-4.7 -22.2,-7 -7.4,-2.7 -14.8,-5.3 -22.4,-8 -14.9,-5.4 -30.3,-10.7 -45.7,-16.6 -30.6,-12.5 -62.4,-25 -94.2,-40.2 -128,-58.8 -264.5,-143.7 -391.2,-262.8 -126.9,-118.8 -239.5,-271.9 -321.6,-449 -82.9,-176.8 -133.9,-377.7 -147.5,-588.2 -6.1,-105.2 -2.6,-212.9 11.6,-320.9 3.9,-27 8,-54.1 13,-81 5.5,-27 10.3,-54.1 17.4,-80.9 l 1.2,-5 c 0.3,-1.2 0.1,-0.6 0.2,-0.9 v -0.3 c 0,-0.3 0.2,-0.6 0.3,-0.9 l 0.5,-2 1.1,-3.8 c 0.7,-2.6 1.6,-5.1 2.4,-7.6 3.5,-10.1 8.2,-19.6 13.7,-28.5 0.1,-0.7 -0.4,-1.4 -1.1,-1.5 -0.7,-0.1 -1.2,0.5 -1.8,0.9 l -3.3,2.3 c -2.3,1.5 -4.6,3.1 -7,4.4 -4.6,2.8 -9.5,5.1 -14.4,7.2 -5.1,2.2 -10.6,4 -15.5,5.5 l -19.9,5.2 c -7.2,2 -14.5,3.7 -21.9,5.3 l -44,9.6 c -29.6,5.4 -59.1,11.1 -88.8,14.7 -29.7,4.5 -59.5,6.9 -89.3,9.7 -29.8,1.7 -59.6,3.7 -89.5,3.8 -59.6,0.9 -119.2,-1.6 -178.3,-8.2 -236,-24.9 -465.5,-107.6 -656,-243.3 -191.2,-136.3 -334.18,-319.1 -425.33,-510.8 -91.61,-192 -134.8,-389.7 -147.96,-572.3 -6.53,-91.5 -5.87,-179.7 0.53,-263.4 6.6,-83.7 18.59,-162.8 33.84,-236.8 14.88,-74.1 35.14,-142.6 55.55,-205.9 11.01,-31.3 21.17,-61.8 33,-90.3 5.75,-14.3 11.09,-28.4 16.9,-42 6.01,-13.6 11.88,-26.8 17.62,-39.7 46.55,-103.3 94.6,-182.8 131.85,-239.3 9.4,-14.1 18,-26.8 25.7,-38.2 7.9,-10.9 14.9,-20.5 20.9,-28.8 12.1,-16.5 20.1,-27.9 24.4,-33.2 43.1,-57 90.6,-110.1 139.8,-161.4 49.6,-51 101.6,-99.5 154.3,-148.3 92.7,-84.4 192.9,-160.8 298.5,-227.5 52.5,-33.9 106.7,-64.7 161.4,-94.5 27.5,-14.3 54.9,-29.2 82.9,-42.6 l 41.8,-20.4 42.2,-19.5 c 21.3,-9.4 101.2,-44.8 228.7,-86.9 127.4,-42.1 302.9,-89.7 512.5,-121.5 52.3,-8.2 106.8,-14.8 163.1,-20.8 14.1,-1.3 28.3,-2.6 42.6,-4 7.1,-0.6 14.3,-1.3 21.5,-1.9 7.3,-0.6 15,-0.9 22.5,-1.3 30.3,-1.4 61,-2.9 92.1,-4.4 15.7,-1 30.8,-0.7 46.1,-0.5 15.3,0.1 30.7,0.2 46.2,0.4 30.9,0.4 62.6,0 93.4,2.2 31,1.7 62.3,3.4 94,5.1 7.8,0.5 15.8,1 23.7,1.4 l 23.5,2.1 c 15.7,1.5 31.5,2.9 47.3,4.4 253.2,23.3 514.8,66.2 772.7,120.6 258,54.2 512.5,118.8 750.1,187.8 29.6,8.6 59.1,17.2 88.3,25.7 29.1,9 57.9,17.9 86.4,26.8 28.6,8.9 56.8,17.6 84.7,26.3 27.8,9.2 55.3,18.3 82.5,27.3 13.5,4.5 27,9 40.4,13.4 6.7,2.2 13.4,4.4 20.1,6.6 l 9.9,3.3 13.8,4.8 c 44.3,15.7 88,31.1 131,46.4 21.5,7.5 42.8,15.1 63.9,22.6 10.6,3.7 21.1,7.4 31.6,11.1 l 15.7,5.5 3.9,1.4 c 0.6,1.1 0.4,2.9 0.6,4.3 l 0.8,9.1 c 4.2,48.3 8.4,95.7 12.4,142.2 2,23.1 4.4,46.5 5.7,68.7 1,15.2 1.9,30.3 2.9,45.2 1.3,24.3 3.2,48.5 4.1,71.5 2,46.3 4.4,90.6 5.7,132.1 1.4,41.5 2.8,80.6 4,117.1 1,36.4 1.9,70.2 2.8,101.1 3.1,123.6 4.9,201.7 6,219.6 11.6,50 7.2,104.9 8,156.5 1.3,74.8 10,149.9 1.1,223.9 -1.9,40.4 -3.9,81.5 -5.8,121.9 -4.8,91.7 -19.9,176.3 -22.6,268.5 2.2,23.1 -2.8,38.7 -7.5,55.2 -3.3,17 -7,33.7 -9.8,51.2 -7.6,47 -11.4,96.7 -14.9,146.8 -2.9,50 -5.7,100.4 -10.9,148.5 -6.3,61.3 -10.6,129.3 -37.7,156.3 -17.3,60.3 -39.1,94 -73.8,83.2 -70.8,-21.6 -88.1,-120.7 -92.7,-160.7 -5.8,-44.9 -10.9,-90.3 -15.6,-135.4 -4.8,-45.1 -10,-90.3 -15.9,-134.8 -9.8,-72.1 -11.7,-150.7 12,-216.9 30.9,-86.7 23.7,-195.1 13.5,-301.4 -1.7,-1.4 -3.6,-2.5 -5.4,-3.6 -7.9,7.8 -7.9,30.2 -12.5,43.6 -5.9,17.4 -11.2,47.8 -23.5,16.6 -10.8,-29.9 -35.4,-556.7 -40.5,-713.3 0.7,-11.2 1.5,-22.7 -4.8,-27 -12.2,-49.9 -13.7,-98.9 -1.8,-146.2 -0.4,-10.5 -3,-68.3 -7,-161.7 -0.5,-11.6 -1.1,-23.8 -1.7,-36.6 -0.7,-12.5 -1.5,-25.6 -2.4,-39.2 -0.7,-12.5 -1.5,-25.5 -2.3,-38.9 -0.1,-1.4 -0.1,-2.9 -0.1,-4.4 0,-1.3 -0.1,-2.6 -0.1,-4 l -0.1,-2.2 v -0.2 l -0.7,-0.3 -1.6,-0.6 -3.1,-1.2 c -8.5,-3.2 -17.4,-6.5 -26.7,-10 l -3.5,-1.3 -1.8,-0.6 -6.7,-2.2 c -9.2,-3.1 -18.5,-6.2 -27.9,-9.3 -18.8,-6.2 -37.9,-12.6 -57.4,-19 -19.4,-6.5 -39.2,-13 -59.2,-19.7 -20.2,-6.3 -40.7,-12.6 -61.5,-19.1 -41.6,-12.7 -84,-26.7 -127.9,-39.2 -43.8,-12.8 -88.6,-25.9 -134.1,-39.2 -182.7,-51.2 -379,-100.8 -577.2,-144.1 -198.2,-43.3 -398.4,-80.2 -587.9,-106.1 -189.4,-26.1 -368.4,-40.3 -520.1,-38.9 -19.3,-0.7 -37.1,1.1 -55.1,1.7 -17.9,0.8 -35.5,1.6 -52.7,2.4 -16.9,0.4 -34.8,2.7 -51.8,4.1 -17.1,1.4 -33.7,3.1 -49.9,5.1 -65,6.9 -122.8,15.9 -172.4,24.2 -99.1,17.1 -165,33.3 -188.2,39.2 -57.2,12.7 -111.4,35.4 -168.6,44.8 -12.6,3.7 -24.9,7.4 -37.4,11.1 -4.2,1.9 -19,6.7 -42.3,15.5 -11.8,4.4 -25.7,9.5 -41.8,15.4 -15.9,6.2 -33.8,13.1 -53.7,20.9 -39.3,16.2 -86.2,35.5 -138,60.3 -52,24.2 -108.9,53.5 -168.8,88.2 -119.8,69.1 -251.6,160.5 -373.7,277 -61.1,58.2 -119.7,122.4 -173.6,191.9 l -10.2,12.9 -9.7,13.4 -19.5,26.7 c -13,17.9 -24.3,36.1 -36.7,54.1 -11.4,18.5 -22.8,37.2 -34,56 -10.3,19.4 -21.5,38.3 -31.3,58 -80.2,156.9 -130.8,330.7 -150.6,497.5 -20,167.1 -9.7,326.6 19.4,459.3 14.5,66.5 33.2,126.5 53.1,179.1 5.3,13 10.4,25.7 15.3,38 5,12.3 10.9,23.6 16,34.9 9.9,22.8 21.4,42.7 31.2,61.5 9.9,18.7 20.6,34.8 29.3,49.8 9.1,14.7 18.3,27 25.6,38 3.8,5.4 7.1,10.6 10.4,15 3.5,4.3 6.6,8.2 9.3,11.7 5.5,6.9 9.7,12 12.4,15.2 l 11.3,13.1 12,12.5 23.6,25.1 c 8,8.2 16.6,15.9 24.8,23.9 8.3,7.8 16.1,16.2 25,23.4 34.1,30.7 69.2,58.3 106.3,84 74.6,50.5 156.5,91.7 243.7,119.4 21.4,8.2 43.6,14.6 65.5,21.5 22.3,5.8 44.5,12 67.1,16.6 3.8,0.7 13.8,3.5 35,7.2 10.6,1.9 23.9,4.9 40.7,7.1 8.4,1.2 17.7,2.6 27.8,4.1 10.3,1.1 21.4,2.3 33.6,3.6 24.3,2.3 52.7,4.3 85.7,4.9 16.5,0.8 34.2,-0.2 53.1,-0.2 9.4,-0.2 19.2,-0.9 29.2,-1.4 10.1,-0.5 20.5,-0.9 31.1,-2.1 42.7,-3.1 90.2,-10.1 142.5,-21.4 6.5,-1.4 13.1,-2.9 19.9,-4.3 6.6,-1.8 13.3,-3.5 20.1,-5.3 7.6,-2 15.3,-4.1 23,-6.1 8.1,-2.5 16.2,-5 24.4,-7.5 16.4,-6.1 33.1,-12.2 49.9,-18.4 16.9,-6.4 33.8,-12.2 51.3,-19.3 18.2,-9.2 36.6,-18.6 55.2,-28 9.3,-4.8 18.7,-9.5 28.1,-14.3 9.5,-5 18.5,-8.7 29.6,-16.6 21.2,-14 42.7,-28.1 64.5,-42.3 45,-30.9 71,-27.1 107.3,-35.8 4.4,-0.8 8.8,-1.7 13.3,-2.5 l 3.3,-0.6 c 1.2,-0.3 2.3,-0.5 2.9,-0.3 l 4.3,0.8 c 5.8,1 11.7,2 17.8,3 6,1.1 12.1,2.1 18.4,3.2 5.9,1.1 13.7,1.8 16.8,3.8 8.2,3.4 16.7,6.8 25.5,10.4 l 3.3,1.4 1.7,0.6 1.1,0.7 4.2,2.5 c 2.9,1.7 5.8,3.5 8.8,5.2 2.8,1.7 6.3,3.7 8.6,5.2 1.9,1.4 3.9,2.8 5.9,4.2 2,1.4 4,2.8 6.1,4.3 1.1,0.8 1.5,1 4.1,3.1 2.4,2 6.5,5.6 10.1,9.2 3.8,3.7 7.2,7.5 9.1,9.8 1.8,2 2.1,2.7 3,4.1 1.7,2.4 3.3,4.9 5,7.4 1.7,2.5 3.4,5.1 5,7.6 0.8,0.9 2,3.6 3.1,5.5 l 3.2,6.3 c 2.2,4.2 4.4,8.4 6.6,12.7 l 3.3,6.6 3.3,10.5 c 2.1,7.1 4.3,14.2 6.5,21.4 l 3.2,10.9 c 0.5,1.9 1.3,3.3 1.5,5.7 v 9 c 0,11.9 -0.1,24 -0.1,36.1 0,6.1 -0.1,12.2 -0.1,18.3 v 9.2 4.6 c -0.3,1.7 -2.1,4.7 -3.1,6.9 -18.6,38.8 -37.5,78.1 -56.6,117.9 -19.1,38.7 -38.5,78 -58.1,117.7 -13.7,37.4 -26.8,74.8 -40.4,112.7 -2.8,9.4 -5.6,18.9 -8.4,28.3 -2.8,9.5 -4.7,19 -7.3,28.5 -2.2,8.5 -4.3,17 -6.5,25.5 -3.6,17.3 -7.2,34.8 -10.9,52.4 -2.8,17.8 -6.3,35.7 -8.8,53.9 -2.1,18.2 -5.2,36.5 -6.6,55.2 -7.2,74.5 -8.2,152.2 -2.1,230.7 11.6,157.3 54.8,317.8 125.2,461.8 71.4,143.6 169.9,269.3 286,363.1 115.6,95 245.8,160.8 368.1,202.5 61.3,21.1 120.9,35.5 176.4,46.2 27.7,5.7 54.7,9.1 80.2,12.9 12.9,1.6 25.4,2.7 37.7,4.1 12.2,1.4 24,2.5 35.6,3.1 92.7,6.6 163.2,2.1 204.2,-0.5 18.5,-0.4 37,-1.5 55.3,-3.9 18.2,-3.1 36.4,-6.7 54.2,-11.6 69.8,-9.6 139.6,-20 206.4,-46.2 15.1,-6.2 29.6,-12.1 44.4,-18.2 16.6,-6.6 32.7,-14.2 49.1,-21.2 16.2,-7.3 31.8,-15.7 47.7,-23.3 3,-1.4 10.7,-5.5 22.5,-12.4 11.7,-7 28.3,-15.3 47.2,-27.9 39.1,-23.4 89.8,-59.6 146.4,-109.1 56.4,-49.5 117.7,-113.5 176.5,-190.4 59.2,-76.5 115.2,-166.5 164.7,-263.3 49.6,-96.8 93.2,-200.2 128.3,-303.9 35.4,-103.5 63.5,-206.8 85,-302.8 43.2,-192.2 60.1,-354.6 69,-437.8 v -0.9 c 8.7,-131.3 31.9,-247.3 67.1,-328.8"
       style="fill:#5d6b8b;fill-opacity:1;fill-rule:nonzero;stroke:none"
       id="path608" /></g></svg>
