<?xml version="1.0" encoding="UTF-8" standalone="no"?>
<!-- Created with Inkscape (http://www.inkscape.org/) -->

<svg
   width="149.23877mm"
   height="149.23875mm"
   viewBox="0 0 149.23877 149.23875"
   version="1.1"
   id="svg21"
   xml:space="preserve"
   sodipodi:docname="Documento nuevo 1.2025_03_22_20_01_51.0.svg"
   xmlns:inkscape="http://www.inkscape.org/namespaces/inkscape"
   xmlns:sodipodi="http://sodipodi.sourceforge.net/DTD/sodipodi-0.dtd"
   xmlns="http://www.w3.org/2000/svg"
   xmlns:svg="http://www.w3.org/2000/svg"><sodipodi:namedview
     id="namedview23"
     pagecolor="#ffffff"
     bordercolor="#000000"
     borderopacity="0.25"
     inkscape:showpageshadow="2"
     inkscape:pageopacity="0.0"
     inkscape:pagecheckerboard="0"
     inkscape:deskcolor="#d1d1d1"
     inkscape:document-units="mm"
     showgrid="false" /><defs
     id="defs18" /><path
     d="m 149.23872,74.618505 c 0,41.211505 -33.407,74.620265 -74.618497,74.620265 -41.2115,0 -74.620299956363,-33.40876 -74.620299956363,-74.620265 C -7.6956363e-5,33.406999 33.408723,-6.1123752e-7 74.620223,-6.1123752e-7 115.83172,-6.1123752e-7 149.23872,33.406999 149.23872,74.618505"
     style="fill:#f6f9fd;fill-opacity:1;fill-rule:nonzero;stroke:none;stroke-width:0.0352778"
     id="path6349" /><path
     d="M 80.808623,93.504105 V 35.530016 c 0,-0.807862 -0.6548,-1.462617 -1.4626,-1.462617 h -0.03 c -0.8078,0 -1.4626,0.654755 -1.4626,1.462617 v 58.033009 c -4.367,0.78457 -7.6817,4.60057 -7.6817,9.193395 0,5.16008 4.1832,9.34332 9.3437,9.34332 5.16,0 9.3433,-4.18324 9.3433,-9.34332 0,-4.721235 -3.5024,-8.622605 -8.0504,-9.252315"
     style="fill:#a1d3fe;fill-opacity:1;fill-rule:nonzero;stroke:none;stroke-width:0.0352778"
     id="path6353" /><path
     d="m 73.085623,89.183285 c 0,-2.28353 0,-4.56671 0,-6.84989 0,-10.762541 0,-21.525439 0,-32.288337 0,-4.606572 0,-9.213498 0,-13.82007 0,-2.593623 -0.4382,-5.632803 1.0594,-7.889876 1.7074,-2.573514 6.4921,-2.838803 9.0625,-1.529644 1.9741,1.005769 2.7379,3.077281 2.7379,5.157611 0,3.052939 0,6.105878 0,9.158465 0,11.035242 0,22.070484 0,33.105374 0,4.993927 0,9.987847 0,14.981767 0,0.4057 0.1577,0.71014 0.394,0.91299 0.066,0.0621 0.1426,0.11994 0.2286,0.17251 7.8691,4.80342 9.1126,15.645345 2.5623,22.106475 -6.2576,6.1729 -16.7157,4.4898 -21.3872,-2.66101 -2.3954,-3.66677 -2.7037,-8.23877 -1.2852,-12.319355 0.6957,-2.0006 1.9862,-3.76202 3.4844,-5.2317 0.8259,-0.81068 3.1433,-1.69933 3.1433,-3.00531 z M 70.571023,48.0882 c 0,13.477876 0,26.956105 0,40.433985 -5.9853,4.01178 -8.7877,11.30547 -6.8644,18.332805 1.904,6.95537 8.5059,11.68788 15.5833,11.90625 7.2009,0.2219 13.5639,-4.69794 15.8732,-11.36156 2.4419,-7.04674 -0.6801,-14.823735 -6.7031,-18.876445 0,-17.264942 0,-34.529535 0,-51.794128 0,-2.314575 0.2233,-4.779433 -0.2018,-7.068961 -1.2929,-6.965951 -11.6949,-7.912454 -15.8179,-3.201812 -2.1593,2.466623 -1.8693,5.602817 -1.8693,8.618009 0,4.337403 0,8.674454 0,13.011857"
     style="fill:#272425;fill-opacity:1;fill-rule:nonzero;stroke:none;stroke-width:0.0352778"
     id="path6385" /><path
     d="m 91.061023,46.095005 c 1.8574,0 3.7144,0 5.5718,0 1.3398,0 1.3398,-2.077861 0,-2.077861 -1.8574,0 -3.7144,0 -5.5718,0 -1.3398,0 -1.3398,2.077861 0,2.077861"
     style="fill:#272425;fill-opacity:1;fill-rule:nonzero;stroke:none;stroke-width:0.0352778"
     id="path6387" /><path
     d="m 91.061023,58.469039 c 1.8574,0 3.7144,0 5.5718,0 1.3398,0 1.3398,-2.077508 0,-2.077508 -1.8574,0 -3.7144,0 -5.5718,0 -1.3398,0 -1.3398,2.077508 0,2.077508"
     style="fill:#272425;fill-opacity:1;fill-rule:nonzero;stroke:none;stroke-width:0.0352778"
     id="path6389" /><path
     d="m 91.061023,71.951148 c 1.8574,0 3.7144,0 5.5718,0 1.3398,0 1.3398,-2.077861 0,-2.077861 -1.8574,0 -3.7144,0 -5.5718,0 -1.3398,0 -1.3398,2.077861 0,2.077861"
     style="fill:#272425;fill-opacity:1;fill-rule:nonzero;stroke:none;stroke-width:0.0352778"
     id="path6391" /><path
     d="m 37.881923,35.189938 c 1.9328,-0.4445 3.8657,-0.889 5.7986,-1.332795 0.093,-0.02187 0.1739,-0.05468 0.2483,-0.09278 2.4959,1.563158 4.9919,3.125964 7.4881,4.689122 -2.4828,1.626659 -4.9653,3.25367 -7.4482,4.880681 -0.039,-0.0127 -0.075,-0.02822 -0.1178,-0.03739 -1.9417,-0.403931 -3.883,-0.808567 -5.8247,-1.21285 -1.2609,-0.262467 -1.7971,1.668286 -0.5327,1.931811 1.3747,0.286455 2.7492,0.572911 4.1239,0.859014 -1.0534,0.690033 -2.1067,1.380419 -3.1598,2.070805 -1.0756,0.704498 -0.073,2.440164 1.0111,1.72967 1.1003,-0.720725 2.201,-1.442156 3.3016,-2.163234 -0.2776,1.332795 -0.5553,2.665942 -0.8329,3.99909 -0.2625,1.260827 1.6687,1.79705 1.9318,0.532341 0.398,-1.910644 0.7959,-3.821642 1.1938,-5.732286 0.023,-0.11042 0.024,-0.213431 0.016,-0.311856 2.3643,-1.5494 4.7286,-3.0988 7.0926,-4.647847 0,2.759428 0,5.518856 0,8.278989 -0.048,0.03387 -0.095,0.0695 -0.1408,0.115359 -1.4023,1.401939 -2.8045,2.804583 -4.2068,4.206875 -0.9144,0.9144 0.5023,2.331155 1.4164,1.416755 0.9772,-0.976841 1.9544,-1.954389 2.9312,-2.93123 0,1.275291 0,2.55023 0,3.825522 0,1.291872 2.0034,1.291872 2.0034,0 0,-1.297164 0,-2.594681 0,-3.892197 0.9772,0.977194 1.9544,1.954036 2.9313,2.93123 0.9144,0.914048 2.3311,-0.502355 1.4167,-1.416755 -1.3801,-1.380067 -2.7601,-2.760134 -4.1405,-4.1402 -0.067,-0.06703 -0.1362,-0.117828 -0.2075,-0.160867 0,-2.801409 0,-5.602817 0,-8.404578 2.4197,1.515533 4.8394,3.030714 7.2591,4.545894 0,0.0702 0.011,0.143228 0.028,0.219428 0.4445,1.93287 0.8886,3.865739 1.3327,5.798609 0.2897,1.259064 2.2211,0.724958 1.9319,-0.532695 -0.3063,-1.332794 -0.6128,-2.665942 -0.919,-3.999089 1.0897,0.682625 2.1794,1.364897 3.2692,2.047522 1.0985,0.687564 2.1032,-1.046338 1.0114,-1.730022 -1.0915,-0.68333 -2.183,-1.367014 -3.2745,-2.050344 1.361,-0.312914 2.7224,-0.625828 4.0834,-0.938389 1.2587,-0.289631 0.725,-2.221089 -0.5327,-1.932164 -1.9022,0.437444 -3.8044,0.874889 -5.7065,1.31198 -0.079,0.01835 -0.151,0.04304 -0.2163,0.07303 -2.438,-1.526469 -4.8761,-3.053292 -7.3141,-4.579761 2.4278,-1.591028 4.8556,-3.182056 7.2838,-4.773084 l 0.077,0.02434 c 1.9107,0.397933 3.8217,0.795514 5.7323,1.193447 1.2605,0.26282 1.7971,-1.668286 0.5327,-1.931458 -1.3285,-0.276931 -2.6571,-0.553861 -3.9857,-0.830439 0.9511,-0.622653 1.9022,-1.246011 2.8529,-1.86937 1.0757,-0.70485 0.073,-2.440164 -1.011,-1.729669 -1.0167,0.666397 -2.0334,1.332441 -3.0501,1.998486 0.2871,-1.379008 0.5743,-2.75837 0.8618,-4.137731 0.2625,-1.260828 -1.6686,-1.79705 -1.9322,-0.532694 -0.4042,1.941689 -0.8085,3.883378 -1.2128,5.825067 -0.026,0.12453 -0.025,0.239889 -0.012,0.349602 -2.3629,1.548695 -4.7258,3.096684 -7.0891,4.645379 0,-2.922765 0,-5.845176 0,-8.76794 0.036,-0.02787 0.073,-0.05292 0.1076,-0.08784 1.3801,-1.380066 2.7602,-2.760133 4.1402,-4.1402 0.9144,-0.9144 -0.5023,-2.330803 -1.4164,-1.416755 -0.944,0.94368 -1.8877,1.887361 -2.8314,2.831041 0,-1.152877 0,-2.305403 0,-3.45828 0,-1.291873 -2.0034,-1.291873 -2.0034,0 0,1.197327 0,2.394655 0,3.591983 -1.0104,-1.010708 -2.0207,-2.021064 -3.0314,-3.031419 -0.9141,-0.914401 -2.3308,0.502355 -1.4164,1.416755 1.4023,1.402292 2.8046,2.804584 4.2072,4.206875 0.077,0.07726 0.1584,0.131939 0.2406,0.1778 0,2.864909 0,5.729817 0,8.594726 -2.4239,-1.518003 -4.8482,-3.036006 -7.2725,-4.554361 0,-0.0575 -0.01,-0.115359 -0.023,-0.176389 -0.4374,-1.902178 -0.8745,-3.804356 -1.312,-5.706534 -0.2893,-1.259064 -2.2207,-0.724958 -1.9318,0.532342 0.296,1.287286 0.5916,2.574219 0.8876,3.861505 -0.986,-0.617713 -1.972,-1.235075 -2.958,-1.852436 -1.0986,-0.688269 -2.1033,1.045986 -1.0111,1.72967 1.0065,0.630414 2.0129,1.260475 3.0194,1.890889 -1.4072,0.323497 -2.8141,0.646642 -4.2213,0.970139 -1.2591,0.28963 -0.725,2.221089 0.5327,1.932164"
     style="fill:#272425;fill-opacity:1;fill-rule:nonzero;stroke:none;stroke-width:0.0352778"
     id="path6393" /></svg>
