<?xml version="1.0" encoding="UTF-8" standalone="no"?>
<!-- Created with Inkscape (http://www.inkscape.org/) -->

<svg
   width="95.38208mm"
   height="82.726952mm"
   viewBox="0 0 95.38208 82.726952"
   version="1.1"
   id="svg21"
   xml:space="preserve"
   sodipodi:docname="Documento nuevo 1.2025_03_22_20_01_51.0.svg"
   xmlns:inkscape="http://www.inkscape.org/namespaces/inkscape"
   xmlns:sodipodi="http://sodipodi.sourceforge.net/DTD/sodipodi-0.dtd"
   xmlns="http://www.w3.org/2000/svg"
   xmlns:svg="http://www.w3.org/2000/svg"><sodipodi:namedview
     id="namedview23"
     pagecolor="#ffffff"
     bordercolor="#000000"
     borderopacity="0.25"
     inkscape:showpageshadow="2"
     inkscape:pageopacity="0.0"
     inkscape:pagecheckerboard="0"
     inkscape:deskcolor="#d1d1d1"
     inkscape:document-units="mm"
     showgrid="false"
     showguides="true"><sodipodi:guide
       position="-928.00977,-84.931632"
       orientation="1,0"
       id="guide12263"
       inkscape:locked="false" /><sodipodi:guide
       position="-778.61257,-113.59041"
       orientation="1,0"
       id="guide12265"
       inkscape:locked="false" /><sodipodi:guide
       position="-916.09337,-163.65723"
       orientation="0,-1"
       id="guide12267"
       inkscape:locked="false" /><sodipodi:guide
       position="-852.91307,-82.80876"
       orientation="1,0"
       id="guide12271"
       inkscape:locked="false" /><sodipodi:guide
       position="-702.98527,71.099481"
       orientation="1,0"
       id="guide13663"
       inkscape:locked="false" /></sodipodi:namedview><defs
     id="defs18" /><g
     id="clothings"
     transform="matrix(0.74261812,0,0,0.74261812,-18.690871,-25.484397)">
	
	
	
	
	
	
	
	
	
	
	
	
	
	
	
	
	
	
	
	
	
	
	
	
	
	
	
	
	<path
   style="fill:#f6f9fd;fill-opacity:1"
   d="m 131.884,42.545 c -8.251,-8.547 -19.14,-8.324 -25.652,-8.191 -0.731,0.015 -1.406,0.029 -2.021,0.029 -0.886,0 -1.604,0.778 -1.604,1.74 0,5.754 -5.929,10.437 -13.218,10.437 -7.289,0 -13.215,-4.683 -13.215,-10.437 0,-0.962 -0.721,-1.74 -1.604,-1.74 -0.614,0 -1.293,-0.015 -2.02,-0.029 -6.511,-0.133 -17.402,-0.357 -25.658,8.191 -8.643,8.958 -21.227,25.353 -21.353,25.518 -0.298,0.388 -0.422,0.896 -0.35,1.394 0.076,0.498 0.348,0.937 0.744,1.201 L 54.142,89.43 v 52.807 c 0,1.921 1.434,3.479 3.203,3.479 h 64.086 c 1.771,0 3.205,-1.558 3.205,-3.479 V 89.431 l 28.207,-18.772 c 0.399,-0.265 0.67,-0.703 0.746,-1.201 0.072,-0.498 -0.052,-1.006 -0.35,-1.394 -0.126,-0.167 -12.711,-16.561 -21.355,-25.519 z"
   id="path14983" />
	<path
   style="fill:#5d6b8b;fill-opacity:1"
   d="M 124.636,85.35 V 55.258 h -3.205 v 86.98 H 57.345 V 55.258 H 54.142 V 85.351 L 29.195,68.748 c 3.331,-4.279 12.944,-16.465 19.911,-23.685 7.297,-7.559 16.979,-7.358 23.383,-7.232 0.204,0.007 0.407,0.01 0.603,0.014 1.003,6.865 7.931,12.195 16.297,12.195 8.366,0 15.291,-5.33 16.297,-12.195 0.198,-0.003 0.4,-0.007 0.606,-0.014 6.405,-0.126 16.081,-0.328 23.382,7.232 6.963,7.217 16.58,19.406 19.911,23.685 z"
   id="path14985" />
	
	
	
	
	
	
	
	
	
	
	
	
	
	
	
	
	
	
	
	
	
	
	
	
	
	
	
	
	
	
	
	
	
	
	
	
	
	
	
	
	
	
	
	
	
	
	
	
	
	
	
	
	
	
	
	
	
	
	
	
	
	
	
	
	
	
	
	
</g></svg>
