<?xml version="1.0" encoding="UTF-8" standalone="no"?>
<!-- Created with Inkscape (http://www.inkscape.org/) -->

<svg
   width="16.992981mm"
   height="12.808182mm"
   viewBox="0 0 16.992981 12.808182"
   version="1.1"
   id="svg21"
   xml:space="preserve"
   sodipodi:docname="Documento nuevo 1.2025_03_22_20_01_51.0.svg"
   xmlns:inkscape="http://www.inkscape.org/namespaces/inkscape"
   xmlns:sodipodi="http://sodipodi.sourceforge.net/DTD/sodipodi-0.dtd"
   xmlns="http://www.w3.org/2000/svg"
   xmlns:svg="http://www.w3.org/2000/svg"><sodipodi:namedview
     id="namedview23"
     pagecolor="#ffffff"
     bordercolor="#000000"
     borderopacity="0.25"
     inkscape:showpageshadow="2"
     inkscape:pageopacity="0.0"
     inkscape:pagecheckerboard="0"
     inkscape:deskcolor="#d1d1d1"
     inkscape:document-units="mm"
     showgrid="false"
     showguides="true"><sodipodi:guide
       position="1704.3477,-191.37937"
       orientation="1,0"
       id="guide12263"
       inkscape:locked="false" /><sodipodi:guide
       position="1853.7449,-220.03815"
       orientation="1,0"
       id="guide12265"
       inkscape:locked="false" /><sodipodi:guide
       position="1716.2641,-270.10498"
       orientation="0,-1"
       id="guide12267"
       inkscape:locked="false" /><sodipodi:guide
       position="1779.4444,-189.2565"
       orientation="1,0"
       id="guide12271"
       inkscape:locked="false" /><sodipodi:guide
       position="1929.3722,-35.348257"
       orientation="1,0"
       id="guide13663"
       inkscape:locked="false" /></sodipodi:namedview><defs
     id="defs18" /><g
     id="Objects-1"
     transform="matrix(0.06794908,0,0,0.06794908,-32.874451,65.261218)">
	
	<g
   id="g30459">
		
		
	<path
   style="fill:#5d6b8b;fill-opacity:1;stroke:none;stroke-width:0.58703"
   d="m 539.58616,-959.39811 c -18.25834,2.6158 -31.55972,16.79019 -39.47581,32.62234 -14.41232,28.82486 -16.29186,63.4836 -16.29186,95.0986 0,17.07372 -0.81157,39.00217 13.52476,51.29689 10.46871,8.97801 27.5314,11.07723 39.89483,4.89934 12.38685,-6.18963 20.22252,-18.37575 31.6995,-25.8498 13.23516,-8.61875 27.12541,-8.03935 42.26604,-8.03935 7.89673,0 15.79052,-0.5201 23.48117,1.6114 26.26245,7.28032 38.24078,40.52726 68.68233,35.09901 23.98304,-4.27592 30.52544,-27.71009 30.52544,-49.03801 0,-39.62265 0.725,-91.60107 -28.23019,-122.68893 -15.69008,-16.84596 -43.76766,-20.31933 -64.52027,-10.97039 -11.47405,5.16878 -20.46558,15.97363 -34.04766,15.02676 -11.47289,-0.79954 -19.49404,-9.71415 -29.35142,-14.47143 -11.20754,-5.40829 -25.91731,-6.34988 -38.15686,-4.59643 m 126.79817,49.84576 c 11.67127,-2.23482 15.70183,15.76112 4.10919,18.35402 -11.99653,2.6839 -16.21786,-16.03526 -4.10919,-18.35402 m -104.49106,21.52046 c 4.69619,0 10.51367,-0.94218 14.65223,1.75815 5.8744,3.8327 5.29616,13.34022 -1.15942,16.27595 -3.80333,1.72997 -9.39595,0.75081 -13.49281,0.75081 0,4.13679 0.95859,9.66659 -0.83181,13.49284 -3.03143,6.47903 -12.59177,7.18817 -16.4955,1.12827 -2.56123,-3.97653 -1.45762,-10.09336 -1.45762,-14.62111 -4.13504,0 -9.66834,0.95979 -13.49286,-0.83182 -6.38922,-2.99326 -7.10243,-12.31762 -1.15937,-16.19494 4.13856,-2.70033 9.95599,-1.75815 14.65223,-1.75815 0,-4.57178 -1.09658,-10.70329 1.67541,-14.65047 4.15026,-5.90902 13.5844,-4.93339 16.38865,1.73643 1.57791,3.75346 0.72087,8.91462 0.72087,12.91404 m 85.70614,-2.73555 c 11.67131,-2.23482 15.70183,15.76112 4.10919,18.35402 -11.99653,2.6839 -16.21782,-16.03526 -4.10919,-18.35402 m 37.5698,0 c 11.67131,-2.23482 15.70187,15.76112 4.10923,18.35402 -11.99653,2.68331 -16.21786,-16.03526 -4.10923,-18.35402 m -18.78488,18.7849 c 11.67127,-2.23481 15.70183,15.76113 4.10919,18.35404 -11.99653,2.6833 -16.21786,-16.03527 -4.10919,-18.35404 z"
   id="path38272"
   inkscape:export-filename="Documentos/INGENIERÃA INFORMATICA/3er CURSO/2ndo CUATRI/siu/P2/images/mando_claro.svg"
   inkscape:export-xdpi="96"
   inkscape:export-ydpi="96" /></g>
	
	
</g></svg>
