<?xml version="1.0" encoding="UTF-8" standalone="no"?>
<!-- Created with Inkscape (http://www.inkscape.org/) -->

<svg
   version="1.1"
   id="svg2"
   width="700.2066"
   height="1228.5466"
   viewBox="0 0 700.2066 1228.5466"
   sodipodi:docname="892689_O97POM1.eps"
   xmlns:inkscape="http://www.inkscape.org/namespaces/inkscape"
   xmlns:sodipodi="http://sodipodi.sourceforge.net/DTD/sodipodi-0.dtd"
   xmlns="http://www.w3.org/2000/svg"
   xmlns:svg="http://www.w3.org/2000/svg">
  <defs
     id="defs6" />
  <sodipodi:namedview
     id="namedview4"
     pagecolor="#ffffff"
     bordercolor="#000000"
     borderopacity="0.25"
     inkscape:showpageshadow="2"
     inkscape:pageopacity="0.0"
     inkscape:pagecheckerboard="0"
     inkscape:deskcolor="#d1d1d1"
     showgrid="false" />
  <g
     id="g10"
     inkscape:groupmode="layer"
     inkscape:label="Page 1"
     transform="matrix(1.3333333,0,0,-1.3333333,-583.10797,5071.1332)">
    <path
       d="M 851.569,2881.94 H 548.247 c -15.386,0 -27.858,12.48 -27.858,27.86 0,15.39 12.472,27.86 27.858,27.86 h 303.322 c 15.386,0 27.858,-12.47 27.858,-27.86 0,-15.38 -12.472,-27.86 -27.858,-27.86"
       style="fill:#f6f9fd;fill-opacity:1;fill-rule:nonzero;stroke:none;stroke-width:0.1"
       id="path16" />
    <path
       d="m 699.908,2881.94 c -15.386,0 -27.858,12.48 -27.858,27.86 v 228.24 c 0,15.38 12.472,27.85 27.858,27.85 15.385,0 27.858,-12.47 27.858,-27.85 V 2909.8 c 0,-15.38 -12.473,-27.86 -27.858,-27.86"
       style="fill:#f6f9fd;fill-opacity:1;fill-rule:nonzero;stroke:none;stroke-width:0.1"
       id="path18" />
    <path
       d="m 701.425,3237.71 h -3.034 c -82.922,0 -150.144,67.22 -150.144,150.14 v 265.36 c 0,82.92 67.222,150.14 150.145,150.14 h 3.033 c 82.922,0 150.144,-67.22 150.144,-150.14 v -265.36 c 0,-82.92 -67.222,-150.14 -150.144,-150.14"
       style="fill:#f6f9fd;fill-opacity:1;fill-rule:nonzero;stroke:none;stroke-width:0.1"
       id="path20" />
    <path
       d="m 701.425,3126.79 h -3.034 c -69.731,0 -135.289,27.15 -184.598,76.46 -49.307,49.31 -76.462,114.87 -76.462,184.6 0,15.39 12.472,27.86 27.858,27.86 15.385,0 27.858,-12.47 27.858,-27.86 0,-54.85 21.36,-106.41 60.144,-145.2 38.785,-38.78 90.352,-60.14 145.2,-60.14 h 3.034 c 54.849,0 106.416,21.36 145.201,60.14 38.784,38.79 60.144,90.35 60.144,145.2 0,15.39 12.472,27.86 27.858,27.86 15.385,0 27.858,-12.47 27.858,-27.86 0,-69.73 -27.155,-135.29 -76.463,-184.6 -49.308,-49.31 -114.867,-76.46 -184.598,-76.46"
       style="fill:#f6f9fd;fill-opacity:1;fill-rule:nonzero;stroke:none;stroke-width:0.1"
       id="path22" />
  </g>
</svg>
