<?xml version="1.0" encoding="UTF-8" standalone="no"?>
<!-- Created with Inkscape (http://www.inkscape.org/) -->

<svg
   width="198.56458mm"
   height="262.11392mm"
   viewBox="0 0 198.56458 262.11392"
   version="1.1"
   id="svg21"
   xml:space="preserve"
   sodipodi:docname="Documento nuevo 1.2025_03_22_20_01_51.0.svg"
   xmlns:inkscape="http://www.inkscape.org/namespaces/inkscape"
   xmlns:sodipodi="http://sodipodi.sourceforge.net/DTD/sodipodi-0.dtd"
   xmlns="http://www.w3.org/2000/svg"
   xmlns:svg="http://www.w3.org/2000/svg"><sodipodi:namedview
     id="namedview23"
     pagecolor="#ffffff"
     bordercolor="#000000"
     borderopacity="0.25"
     inkscape:showpageshadow="2"
     inkscape:pageopacity="0.0"
     inkscape:pagecheckerboard="0"
     inkscape:deskcolor="#d1d1d1"
     inkscape:document-units="mm"
     showgrid="false"
     showguides="true"><sodipodi:guide
       position="712.45852,146.84478"
       orientation="1,0"
       id="guide12263"
       inkscape:locked="false" /><sodipodi:guide
       position="861.85572,118.186"
       orientation="1,0"
       id="guide12265"
       inkscape:locked="false" /><sodipodi:guide
       position="724.37492,68.119178"
       orientation="0,-1"
       id="guide12267"
       inkscape:locked="false" /><sodipodi:guide
       position="787.55522,148.96765"
       orientation="1,0"
       id="guide12271"
       inkscape:locked="false" /><sodipodi:guide
       position="937.48302,302.87589"
       orientation="1,0"
       id="guide13663"
       inkscape:locked="false" /></sodipodi:namedview><defs
     id="defs18" /><g
     id="g30197"
     transform="matrix(0.03527778,0,0,-0.03527778,-108.15115,361.24446)"><path
       d="m 7780,8340 c 0,-1049.34 -850.66,-1900 -1900,-1900 -1049.34,0 -1900,850.66 -1900,1900 0,1049.34 850.66,1900 1900,1900 1049.34,0 1900,-850.66 1900,-1900"
       style="fill:#f6f9fd;fill-opacity:1;fill-rule:nonzero;stroke:none"
       id="path30203" /><path
       d="M 8694.3,3792.9 C 7922.2,3177.6 6944,2810 5880,2810 4816,2810 3837.8,3177.6 3065.7,3792.9 3431.2,5000.7 4552.9,5880 5880,5880 c 1327.1,0 2448.8,-879.3 2814.3,-2087.1"
       style="fill:#f6f9fd;fill-opacity:1;fill-rule:nonzero;stroke:none"
       id="path30205" /></g></svg>
