<?xml version="1.0" encoding="UTF-8" standalone="no"?>
<!-- Created with Inkscape (http://www.inkscape.org/) -->

<svg
   width="149.23999mm"
   height="149.24052mm"
   viewBox="0 0 149.23999 149.24052"
   version="1.1"
   id="svg21"
   xml:space="preserve"
   sodipodi:docname="Documento nuevo 1.2025_03_22_20_01_51.0.svg"
   xmlns:inkscape="http://www.inkscape.org/namespaces/inkscape"
   xmlns:sodipodi="http://sodipodi.sourceforge.net/DTD/sodipodi-0.dtd"
   xmlns="http://www.w3.org/2000/svg"
   xmlns:svg="http://www.w3.org/2000/svg"><sodipodi:namedview
     id="namedview23"
     pagecolor="#ffffff"
     bordercolor="#000000"
     borderopacity="0.25"
     inkscape:showpageshadow="2"
     inkscape:pageopacity="0.0"
     inkscape:pagecheckerboard="0"
     inkscape:deskcolor="#d1d1d1"
     inkscape:document-units="mm"
     showgrid="false"
     showguides="true"><sodipodi:guide
       position="0.43897626,78.733115"
       orientation="1,0"
       id="guide12263"
       inkscape:locked="false" /><sodipodi:guide
       position="149.83618,50.074338"
       orientation="1,0"
       id="guide12265"
       inkscape:locked="false" /><sodipodi:guide
       position="12.355376,0.007513179"
       orientation="0,-1"
       id="guide12267"
       inkscape:locked="false" /><sodipodi:guide
       position="-13.915224,149.30514"
       orientation="0,-1"
       id="guide12269"
       inkscape:locked="false" /><sodipodi:guide
       position="75.535677,80.855987"
       orientation="1,0"
       id="guide12271"
       inkscape:locked="false" /><sodipodi:guide
       position="-124.27973,75.018088"
       orientation="0,-1"
       id="guide12336"
       inkscape:locked="false" /><sodipodi:guide
       position="225.46348,234.76423"
       orientation="1,0"
       id="guide13663"
       inkscape:locked="false" /></sodipodi:namedview><defs
     id="defs18" /><path
     d="m 149.23998,74.619916 c 0,41.211504 -33.4084,74.620594 -74.619899,74.620594 -41.2115,0 -74.620100157275,-33.40909 -74.620100157275,-74.620594 C -1.9157275e-5,33.408416 33.408581,6.2519421e-6 74.620081,6.2519421e-6 115.83158,6.2519421e-6 149.23998,33.408416 149.23998,74.619916"
     style="fill:#f6f9fd;fill-opacity:1;fill-rule:nonzero;stroke:none;stroke-width:0.0352778"
     id="path6343"
     inkscape:export-filename="Documentos/INGENIERÃA INFORMATICA/3er CURSO/2ndo CUATRI/siu/P2/images/ropa_deporte.svg"
     inkscape:export-xdpi="96"
     inkscape:export-ydpi="96" /><path
     style="fill:#090909;stroke:none;stroke-width:0.329906"
     d="m 73.625581,33.109196 c -2.5684,0.74485 -3.3449,3.94957 -4.3752,6.07934 -2.3746,4.90745 -4.5905,11.94544 -8.1513,16.06079 -1.0997,1.27083 -3.7377,1.16493 -5.2897,1.38135 -4.3974,0.61296 -8.8117,1.18272 -13.1963,1.88707 -3.3377,0.53609 -8.101,0.54633 -7.9022,5.08384 0.116,2.6419 2.198,3.95228 3.9433,5.62128 3.2552,3.113 6.3799,6.37214 9.5674,9.55442 1.1698,1.16786 3.4812,2.59734 3.8409,4.29372 0.3722,1.75544 -0.4981,4.18354 -0.7904,5.93336 -0.716,4.2878 -1.4297,8.58912 -2.2009,12.866354 -0.4414,2.44824 -1.357,5.91752 1.1643,7.58488 2.5568,1.69043 5.626,-0.23425 7.8833,-1.50668 3.8912,-2.19322 7.9862,-4.02552 11.8766,-6.21808 1.3739,-0.77462 3.7655,-2.646514 5.4183,-2.380604 1.597,0.25666 3.363,1.713864 4.8087,2.438994 3.8899,1.95107 7.6565,4.15121 11.5468,6.10128 2.1252,1.06527 4.7671,2.93981 7.2575,1.98308 3.386799,-1.30083 2.519199,-4.92485 2.061199,-7.67296 L 98.833681,89.004366 c -0.2907,-1.73332 -1.1775,-4.203 -0.7858,-5.93831 0.3804,-1.68746 2.450499,-3.12091 3.618499,-4.28877 3.2489,-3.24892 6.6489,-6.3187 9.8972,-9.56729 1.625,-1.62544 3.9841,-3.39869 3.9136,-5.93831 -0.1035,-3.721 -3.6607,-4.1126 -6.5529,-4.52927 -4.6154,-0.6651 -9.254199,-1.23583 -13.856099,-1.9877 -1.6499,-0.26952 -4.0952,-0.1821 -5.5382,-1.07519 -1.4044,-0.86917 -2.0827,-3.19775 -2.791,-4.61436 -1.9682,-3.93678 -4.0169,-7.86276 -5.8109,-11.87663 -1.383,-3.09399 -3.1051,-7.29673 -7.3025,-6.07934 m 1.6482,4.42981 7.5063,15.17568 3.7808,6.68456 6.8578,1.42421 17.484999,2.44823 c -2.5519,4.78034 -8.9276,9.41717 -12.866399,13.18339 -1.4024,1.34107 -3.3399,2.5218 -4.2297,4.30164 -1.0233,2.0474 0.1653,5.13335 0.5193,7.25794 0.9901,5.94095 1.9356,11.89642 3.0507,17.814934 l -15.5056,-8.019684 -6.9281,-3.16876 -6.928,3.26145 -15.1757,7.926994 2.8338,-17.485024 0.8672,-6.92803 -4.6907,-5.27851 -12.8664,-12.86634 c 5.9921,-0.25732 12.2178,-1.571 18.1449,-2.50399 2.1651,-0.34079 5.2197,-0.1854 6.8575,-1.83329 5.4779,-5.51286 5.5515,-16.09548 11.2873,-21.3954 z"
     id="path25193" /></svg>
