<?xml version="1.0" encoding="UTF-8" standalone="no"?>
<!-- Created with Inkscape (http://www.inkscape.org/) -->

<svg
   width="149.23999mm"
   height="149.24052mm"
   viewBox="0 0 149.23999 149.24052"
   version="1.1"
   id="svg21"
   xml:space="preserve"
   sodipodi:docname="Documento nuevo 1.2025_03_22_20_01_51.0.svg"
   xmlns:inkscape="http://www.inkscape.org/namespaces/inkscape"
   xmlns:sodipodi="http://sodipodi.sourceforge.net/DTD/sodipodi-0.dtd"
   xmlns="http://www.w3.org/2000/svg"
   xmlns:svg="http://www.w3.org/2000/svg"><sodipodi:namedview
     id="namedview23"
     pagecolor="#ffffff"
     bordercolor="#000000"
     borderopacity="0.25"
     inkscape:showpageshadow="2"
     inkscape:pageopacity="0.0"
     inkscape:pagecheckerboard="0"
     inkscape:deskcolor="#d1d1d1"
     inkscape:document-units="mm"
     showgrid="false"
     showguides="true"><sodipodi:guide
       position="0.43897626,78.733115"
       orientation="1,0"
       id="guide12263"
       inkscape:locked="false" /><sodipodi:guide
       position="149.83618,50.074338"
       orientation="1,0"
       id="guide12265"
       inkscape:locked="false" /><sodipodi:guide
       position="12.355376,0.007513179"
       orientation="0,-1"
       id="guide12267"
       inkscape:locked="false" /><sodipodi:guide
       position="-13.915224,149.30514"
       orientation="0,-1"
       id="guide12269"
       inkscape:locked="false" /><sodipodi:guide
       position="75.535677,80.855987"
       orientation="1,0"
       id="guide12271"
       inkscape:locked="false" /><sodipodi:guide
       position="-124.27973,75.018088"
       orientation="0,-1"
       id="guide12336"
       inkscape:locked="false" /><sodipodi:guide
       position="225.46348,234.76423"
       orientation="1,0"
       id="guide13663"
       inkscape:locked="false" /></sodipodi:namedview><defs
     id="defs18" /><path
     d="m 149.23998,74.619916 c 0,41.211504 -33.4084,74.620594 -74.619899,74.620594 -41.2115,0 -74.620100157275,-33.40909 -74.620100157275,-74.620594 C -1.9157275e-5,33.408416 33.408581,6.2519421e-6 74.620081,6.2519421e-6 115.83158,6.2519421e-6 149.23998,33.408416 149.23998,74.619916"
     style="fill:#f6f9fd;fill-opacity:1;fill-rule:nonzero;stroke:none;stroke-width:0.0352778"
     id="path6343"
     inkscape:export-filename="Documentos/INGENIERÃA INFORMATICA/3er CURSO/2ndo CUATRI/siu/P2/images/ropa_oscura.svg"
     inkscape:export-xdpi="96"
     inkscape:export-ydpi="96" /><path
     style="fill:#666666;stroke-width:0.742618"
     d="m 109.88818,41.103396 c -6.0969,-6.56549 -14.260499,-6.40286 -19.651899,-6.28924 l -0.7508,0.0156 c -0.6884,0.0134 -1.2654,0.51909 -1.3671,1.19933 -0.7174,4.92504 -5.7739,8.63813 -11.7587,8.63813 -5.981,0 -11.0397,-3.71235 -11.7593,-8.63813 -0.098,-0.68098 -0.6758,-1.18671 -1.3635,-1.19933 l -0.7507,-0.0156 c -5.3944,-0.10916 -13.5528,-0.27773 -19.6549,6.28924 -6.0427,6.50756 -9.5924,10.58899 -10.7992,12.10913 -0.4634,0.58073 -0.3899,1.4236 0.1679,1.92189 l 18.884,16.78689 c 0.1663,5.98996 -0.1938,10.38328 -0.658,15.93064 -0.5874,7.03928 -1.3211,15.803664 -1.3211,31.902134 0,0.77678 0.6298,1.40207 1.4043,1.40207 h 51.702599 c 0.776,0 1.4057,-0.62529 1.4057,-1.40207 0,-16.09921 -0.7329,-24.862854 -1.3211,-31.902134 -0.4641,-5.54661 -0.825,-9.94143 -0.6594,-15.92916 l 18.8833,-16.78837 c 0.5547,-0.49755 0.6312,-1.34116 0.1685,-1.92189 -1.203,-1.52014 -4.7542,-5.60231 -10.8006,-12.10913 z"
     id="path15033-6" /><path
     style="fill:#ffffff;fill-opacity:1;stroke-width:0.742618"
     d="m 101.80928,68.014386 c 0.2725,-4.57378 0.8228,-10.12485 1.7964,-17.55029 0.1017,-0.76787 -0.4419,-1.47187 -1.209,-1.57435 -0.7716,-0.098 -1.4726,0.44111 -1.5744,1.20824 -2.748399,20.95594 -2.211499,27.36548 -1.321799,37.9864 0.566599,6.78159 1.266899,15.174664 1.309199,30.265404 H 51.916481 c 0.041,-15.09074 0.7411,-23.483814 1.307,-30.265404 0.8896,-10.62167 1.4258,-17.0312 -1.3219,-37.9864 -0.1025,-0.76638 -0.8102,-1.30627 -1.5743,-1.20824 -0.7701,0.10174 -1.3115,0.80648 -1.2098,1.57435 0.9736,7.42395 1.5231,12.97428 1.7949,17.54807 l -15.8378,-14.08301 c 1.6464,-1.9516 4.8857,-5.61123 9.8152,-10.91723 5.1211,-5.51023 12.0178,-5.49538 17.1731,-5.39958 1.4778,5.69811 7.3994,9.86197 14.2968,9.86197 6.9005,0 12.8191,-4.16386 14.2984,-9.86197 5.1464,-0.10842 12.052699,-0.11065 17.174499,5.39958 4.9273,5.306 8.1681,8.96563 9.813,10.91723 z"
     id="path15035-1" /></svg>
