<?xml version="1.0" encoding="UTF-8" standalone="no"?>
<!-- Created with Inkscape (http://www.inkscape.org/) -->

<svg
   width="149.23999mm"
   height="149.24052mm"
   viewBox="0 0 149.23999 149.24052"
   version="1.1"
   id="svg21"
   xml:space="preserve"
   sodipodi:docname="Documento nuevo 1.2025_03_22_20_01_51.0.svg"
   xmlns:inkscape="http://www.inkscape.org/namespaces/inkscape"
   xmlns:sodipodi="http://sodipodi.sourceforge.net/DTD/sodipodi-0.dtd"
   xmlns="http://www.w3.org/2000/svg"
   xmlns:svg="http://www.w3.org/2000/svg"><sodipodi:namedview
     id="namedview23"
     pagecolor="#ffffff"
     bordercolor="#000000"
     borderopacity="0.25"
     inkscape:showpageshadow="2"
     inkscape:pageopacity="0.0"
     inkscape:pagecheckerboard="0"
     inkscape:deskcolor="#d1d1d1"
     inkscape:document-units="mm"
     showgrid="false"
     showguides="true"><sodipodi:guide
       position="0.43897626,78.733115"
       orientation="1,0"
       id="guide12263"
       inkscape:locked="false" /><sodipodi:guide
       position="149.83618,50.074338"
       orientation="1,0"
       id="guide12265"
       inkscape:locked="false" /><sodipodi:guide
       position="12.355376,0.007513179"
       orientation="0,-1"
       id="guide12267"
       inkscape:locked="false" /><sodipodi:guide
       position="-13.915224,149.30514"
       orientation="0,-1"
       id="guide12269"
       inkscape:locked="false" /><sodipodi:guide
       position="75.535677,80.855987"
       orientation="1,0"
       id="guide12271"
       inkscape:locked="false" /><sodipodi:guide
       position="-124.27973,75.018088"
       orientation="0,-1"
       id="guide12336"
       inkscape:locked="false" /><sodipodi:guide
       position="225.46348,234.76423"
       orientation="1,0"
       id="guide13663"
       inkscape:locked="false" /></sodipodi:namedview><defs
     id="defs18" /><path
     d="m 149.23998,74.619916 c 0,41.211504 -33.4084,74.620594 -74.619899,74.620594 -41.2115,0 -74.620100157275,-33.40909 -74.620100157275,-74.620594 C -1.9157275e-5,33.408416 33.408581,6.2519421e-6 74.620081,6.2519421e-6 115.83158,6.2519421e-6 149.23998,33.408416 149.23998,74.619916"
     style="fill:#f6f9fd;fill-opacity:1;fill-rule:nonzero;stroke:none;stroke-width:0.0352778"
     id="path6343"
     inkscape:export-filename="Documentos/INGENIERÃA INFORMATICA/3er CURSO/2ndo CUATRI/siu/P2/images/eco.svg"
     inkscape:export-xdpi="96"
     inkscape:export-ydpi="96" /><path
     style="fill:#666666;stroke-width:0.742618"
     d="m 97.419281,110.68071 c 0.4864,-0.50498 0.7478,-1.17928 0.7225,-1.87808 l -2.5776,-77.570924 c -0.045,-1.39092 -1.1852,-2.4952 -2.5769,-2.4952 h -18.2647 -18.2632 c -1.3917,0 -2.5316,1.10428 -2.5769,2.4952 l -2.5783,77.570924 c -0.024,0.6988 0.2361,1.37384 0.7233,1.87808 0.4856,0.50052 1.1555,0.78495 1.8543,0.78495 h 17.8325 c 1.359,0 2.4848,-1.05304 2.5724,-2.41054 l 0.4359,-6.77342 0.4374,6.77342 c 0.087,1.3575 1.2135,2.41054 2.5725,2.41054 h 17.8324 c 0.6988,-7.5e-4 1.3687,-0.28443 1.8544,-0.78495 z"
     id="path15067-1" /><path
     style="fill:#54acd2;stroke-width:0.742618"
     d="m 93.365281,42.668766 c -0.06,-0.0163 -0.1032,-0.0698 -0.1708,-0.0698 -3.8935,0 -7.066,-3.01131 -7.3994,-6.82094 h 7.3407 z"
     id="path15069-2" /><polygon
     style="fill:#54acd2"
     points="556.844,534.155 546.862,534.155 546.862,529.882 556.7,529.882 "
     id="polygon15071-7"
     transform="matrix(0.74261813,0,0,0.74261813,-320.42822,-362.18436)" /><rect
     x="78.992638"
     y="31.315619"
     style="fill:#54acd2;stroke-width:0.742618"
     width="5.3995762"
     height="3.173207"
     id="rect15073-0" /><rect
     x="75.368614"
     y="31.315619"
     style="fill:#54acd2;stroke-width:0.742618"
     width="2.3362765"
     height="3.173207"
     id="rect15075-9" /><polygon
     style="fill:#54acd2"
     points="536.121,554.336 532.975,557.482 532.975,535.892 536.121,535.892 "
     id="polygon15077-3"
     transform="matrix(0.74261813,0,0,0.74261813,-320.42822,-362.18436)" /><rect
     x="65.054405"
     y="31.315619"
     style="fill:#54acd2;stroke-width:0.742618"
     width="9.0242958"
     height="3.173207"
     id="rect15079-6" /><polygon
     style="fill:#54acd2"
     points="517.352,534.155 507.369,534.155 507.513,529.882 517.352,529.882 "
     id="polygon15081-0"
     transform="matrix(0.74261813,0,0,0.74261813,-320.42822,-362.18436)" /><path
     style="fill:#54acd2;stroke-width:0.742618"
     d="m 56.311581,35.778756 h 7.3416 c -0.3327,3.80963 -3.5067,6.82095 -7.3995,6.82095 -0.068,0 -0.1106,0.0527 -0.1708,0.0698 z"
     id="path15083-6" /><path
     style="fill:#54acd2;stroke-width:0.742618"
     d="m 75.434781,73.165126 h -1.4229 l -2.2976,35.722164 h -17.8325 l 2.1632,-65.084544 c 0.074,0.0275 0.1278,0.0854 0.2072,0.0854 4.605,0 8.3522,-3.58536 8.6887,-8.11013 h 9.1371 v 17.24508 c 0,0.0668 0.053,0.11287 0.073,0.17154 -0.069,0.21759 -0.059,0.45597 0.1159,0.62974 0.1262,0.12476 0.2904,0.19011 0.4545,0.19011 0.1671,0 0.3297,-0.0653 0.4567,-0.19011 l 3.6247,-3.62695 c 0.1218,-0.11882 0.1886,-0.28368 0.1886,-0.45522 v -13.96419 h 5.5125 c 0.3364,4.52477 4.0836,8.11013 8.6886,8.11013 0.08,0 0.1352,-0.0579 0.208,-0.0854 l 2.1625,65.084544 h -17.8325 z"
     id="path15085-2" /></svg>
