<?xml version="1.0" encoding="UTF-8" standalone="no"?>
<!-- Created with Inkscape (http://www.inkscape.org/) -->

<svg
   width="13.344238mm"
   height="14.552078mm"
   viewBox="0 0 13.344238 14.552078"
   version="1.1"
   id="svg21"
   xml:space="preserve"
   sodipodi:docname="Documento nuevo 1.2025_03_22_20_01_51.0.svg"
   xmlns:inkscape="http://www.inkscape.org/namespaces/inkscape"
   xmlns:sodipodi="http://sodipodi.sourceforge.net/DTD/sodipodi-0.dtd"
   xmlns="http://www.w3.org/2000/svg"
   xmlns:svg="http://www.w3.org/2000/svg"><sodipodi:namedview
     id="namedview23"
     pagecolor="#ffffff"
     bordercolor="#000000"
     borderopacity="0.25"
     inkscape:showpageshadow="2"
     inkscape:pageopacity="0.0"
     inkscape:pagecheckerboard="0"
     inkscape:deskcolor="#d1d1d1"
     inkscape:document-units="mm"
     showgrid="false"
     showguides="true"><sodipodi:guide
       position="290.3401,-135.20963"
       orientation="1,0"
       id="guide12263"
       inkscape:locked="false" /><sodipodi:guide
       position="439.73729,-163.8684"
       orientation="1,0"
       id="guide12265"
       inkscape:locked="false" /><sodipodi:guide
       position="302.2565,-213.93523"
       orientation="0,-1"
       id="guide12267"
       inkscape:locked="false" /><sodipodi:guide
       position="365.43679,-133.08676"
       orientation="1,0"
       id="guide12271"
       inkscape:locked="false" /><sodipodi:guide
       position="515.36459,20.82148"
       orientation="1,0"
       id="guide13663"
       inkscape:locked="false" /></sodipodi:namedview><defs
     id="defs18" /><g
     id="g60670"
     transform="matrix(0.26458333,0,0,0.26458333,-18.127089,-19.446873)"
     inkscape:export-filename="Documentos/INGENIERÃA INFORMATICA/3er CURSO/2ndo CUATRI/siu/P2/images/sucio.svg"
     inkscape:export-xdpi="96"
     inkscape:export-ydpi="96">
			
			<g
   id="g60668">
				<g
   id="_x36_22_x2C__Broom_x2C__Clean_x2C__Cleaning_x2C__Sweep">
					<g
   id="XMLID_2239_">
						<g
   id="XMLID_6963_">
							<g
   id="g60618">
								<g
   id="g60616">
									<g
   id="g60590">
										<path
   style="opacity:0.4;fill:#5d6b8b;fill-opacity:1"
   d="m 82.348,77.3 c 1.414,0 2.525,1.1 2.525,2.5 0,1.4 -1.111,2.5 -2.525,2.5 -1.414,0 -2.525,-1.1 -2.525,-2.5 0,-1.4 1.111,-2.5 2.525,-2.5 z"
   id="path60588" />
									</g>
									<g
   id="g60594">
										<path
   style="opacity:0.4;fill:#5d6b8b;fill-opacity:1"
   d="m 73.562,88.5 c 2.12,0 3.838,1.701 3.838,3.8 0,2.099 -1.718,3.8 -3.838,3.8 -2.12,0 -3.838,-1.701 -3.838,-3.8 0,-2.099 1.718,-3.8 3.838,-3.8 z"
   id="path60592" />
									</g>
									<g
   id="g60598">
										<path
   style="opacity:0.4;fill:#5d6b8b;fill-opacity:1"
   d="m 113.959,79.8 c 1.414,0 2.524,1.1 2.524,2.5 0,1.4 -1.111,2.5 -2.524,2.5 -1.414,0 -2.525,-1.1 -2.525,-2.5 0,-1.4 1.111,-2.5 2.525,-2.5 z"
   id="path60596" />
									</g>
									<g
   id="g60602">
										<path
   style="opacity:0.4;fill:#5d6b8b;fill-opacity:1"
   d="m 112.04,106 c -2.424,0 -4.444,-2 -4.444,-4.4 0,-1.6 0.808,-2.9 2.121,-3.7 0.707,-0.4 1.515,-0.7 2.323,-0.7 2.424,0 4.443,2 4.443,4.4 0,2 -1.313,3.6 -3.13,4.2 -0.404,0.1 -0.909,0.2 -1.313,0.2 z"
   id="path60600" />
									</g>
									<g
   id="g60606">
										<rect
   x="94.972"
   y="74.800003"
   style="opacity:0.4;fill:#5d6b8b;fill-opacity:1"
   width="5.0489998"
   height="13.8"
   id="rect60604" />
									</g>
									<g
   id="g60610">
										<path
   style="opacity:0.4;fill:#5d6b8b;fill-opacity:1"
   d="m 94.871,93.5 c -1.01,0 -2.02,0.1 -3.03,0.3 v -5.3 h 3.131 5.049 3.131 V 94 c -1.212,-0.3 -2.424,-0.5 -3.636,-0.5 z"
   id="path60608" />
									</g>
									<g
   id="g60614">
										<path
   style="opacity:0.4;fill:#5d6b8b;fill-opacity:1"
   d="m 103.152,94 c 2.525,0.7 4.747,2.1 6.464,3.9 -1.212,0.8 -2.121,2.1 -2.121,3.7 0,2.4 2.02,4.4 4.444,4.4 0.505,0 0.909,-0.1 1.313,-0.2 l 4.444,21.5 h -5.05 l -5.05,-8.8 -3.838,8.8 h -6.261 -5.05 -6.363 -8.786 l 3.737,-21.6 c 0.706,-5.9 5.049,-10.6 10.705,-11.8 1.01,-0.2 2.02,-0.3 3.03,-0.3 h 4.747 c 1.212,-0.1 2.525,0.1 3.635,0.4 z"
   id="path60612" />
									</g>
								</g>
							</g>
							<g
   id="g60662">
								<g
   id="g60660">
									<g
   id="g60622">
										<path
   style="fill:#f6f9fd;fill-opacity:1"
   d="m 100.021,89.8 c -0.707,0 -1.313,-0.6 -1.313,-1.3 V 76 h -2.525 v 12.5 c 0,0.7 -0.606,1.3 -1.313,1.3 -0.707,0 -1.313,-0.6 -1.313,-1.3 V 74.8 c 0,-0.7 0.606,-1.3 1.313,-1.3 h 5.05 c 0.707,0 1.313,0.6 1.313,1.3 v 13.8 c 0.101,0.6 -0.504,1.2 -1.212,1.2 z"
   id="path60620" />
									</g>
									<g
   id="g60626">
										<path
   style="fill:#f6f9fd;fill-opacity:1"
   d="m 103.152,95.2 c -0.707,0 -1.313,-0.6 -1.313,-1.3 v -4.2 h -8.887 v 4.1 c 0,0.7 -0.606,1.3 -1.313,1.3 -0.707,0 -1.313,-0.6 -1.313,-1.3 v -5.3 c 0,-0.7 0.606,-1.3 1.313,-1.3 h 11.412 c 0.707,0 1.313,0.6 1.313,1.3 V 94 c 0.101,0.7 -0.505,1.2 -1.212,1.2 z"
   id="path60624" />
									</g>
									<g
   id="g60630">
										<path
   style="fill:#f6f9fd;fill-opacity:1"
   d="m 97.497,128.5 c -0.707,0 -1.313,-0.6 -1.313,-1.3 v -12.4 c 0,-0.7 0.606,-1.3 1.313,-1.3 0.707,0 1.313,0.6 1.313,1.3 v 12.5 c 0,0.6 -0.606,1.2 -1.313,1.2 z"
   id="path60628" />
									</g>
									<g
   id="g60634">
										<path
   style="fill:#f6f9fd;fill-opacity:1"
   d="m 92.447,128.5 c -0.707,0 -1.313,-0.6 -1.313,-1.3 v -7.5 c 0,-0.7 0.606,-1.3 1.313,-1.3 0.707,0 1.313,0.6 1.313,1.3 v 7.5 c 0,0.7 -0.606,1.3 -1.313,1.3 z"
   id="path60632" />
									</g>
									<g
   id="g60638">
										<path
   style="fill:#f6f9fd;fill-opacity:1"
   d="m 86.186,128.5 c -0.707,0 -1.313,-0.6 -1.313,-1.3 V 116 c 0,-0.7 0.606,-1.3 1.313,-1.3 0.707,0 1.212,0.6 1.212,1.3 v 11.3 c -10e-4,0.6 -0.607,1.2 -1.212,1.2 z"
   id="path60636" />
									</g>
									<g
   id="g60642">
										<path
   style="fill:#f6f9fd;fill-opacity:1"
   d="m 73.562,97.3 c -2.828,0 -5.05,-2.2 -5.05,-5 0,-2.8 2.222,-5 5.05,-5 2.828,0 5.05,2.2 5.05,5 -10e-4,2.8 -2.324,5 -5.05,5 z m 0,-7.5 c -1.414,0 -2.525,1.1 -2.525,2.5 0,1.4 1.111,2.5 2.525,2.5 1.414,0 2.525,-1.1 2.525,-2.5 -0.001,-1.4 -1.213,-2.5 -2.525,-2.5 z"
   id="path60640" />
									</g>
									<g
   id="g60646">
										<path
   style="fill:#f6f9fd;fill-opacity:1"
   d="m 113.959,86 c -2.121,0 -3.838,-1.7 -3.838,-3.8 0,-2.1 1.717,-3.8 3.838,-3.8 2.121,0 3.837,1.7 3.837,3.8 0,2.1 -1.817,3.8 -3.837,3.8 z m 0,-5 c -0.707,0 -1.313,0.6 -1.313,1.3 0,0.7 0.606,1.3 1.313,1.3 0.707,0 1.313,-0.6 1.313,-1.3 -0.101,-0.7 -0.707,-1.3 -1.313,-1.3 z"
   id="path60644" />
									</g>
									<g
   id="g60650">
										<path
   style="fill:#f6f9fd;fill-opacity:1"
   d="m 82.348,83.5 c -2.121,0 -3.837,-1.7 -3.837,-3.8 0,-2.1 1.717,-3.7 3.837,-3.7 2.121,0 3.838,1.7 3.838,3.8 0,2.1 -1.717,3.7 -3.838,3.7 z m 0,-5 c -0.707,0 -1.313,0.6 -1.313,1.3 0,0.7 0.606,1.3 1.313,1.3 0.707,0 1.313,-0.6 1.313,-1.3 0,-0.7 -0.606,-1.3 -1.313,-1.3 z"
   id="path60648" />
									</g>
									<g
   id="g60654">
										<path
   style="fill:#f6f9fd;fill-opacity:1"
   d="m 117.696,128.5 h -5.05 c -0.404,0 -0.909,-0.2 -1.111,-0.6 l -3.838,-6.6 -2.828,6.4 c -0.202,0.5 -0.606,0.8 -1.111,0.8 h -26.46 c -0.404,0 -0.707,-0.2 -1.01,-0.4 -0.202,-0.3 -0.303,-0.7 -0.303,-1 l 3.737,-21.5 c 0.707,-6.3 5.454,-11.5 11.715,-12.9 1.111,-0.2 2.222,-0.4 3.333,-0.4 h 4.747 c 1.313,0 2.727,0.2 4.04,0.5 2.727,0.7 5.15,2.2 7.069,4.3 0.505,0.5 0.404,1.3 -0.101,1.8 -0.505,0.5 -1.313,0.4 -1.818,-0.1 -1.616,-1.7 -3.636,-2.9 -5.958,-3.6 -1.111,-0.3 -2.222,-0.4 -3.333,-0.4 H 94.77 c -0.909,0 -1.818,0.1 -2.727,0.3 -5.252,1.2 -9.19,5.5 -9.796,10.8 0,0 0,0 0,0.1 l -3.434,20 h 24.138 l 3.434,-8 c 0.202,-0.4 0.606,-0.7 1.111,-0.8 0.505,0 0.909,0.2 1.212,0.6 l 4.646,8.1 h 2.727 l -4.04,-20 c -0.101,-0.7 0.303,-1.3 1.01,-1.5 0.707,-0.1 1.313,0.3 1.515,1 l 4.343,21.6 c 0.101,0.4 0,0.7 -0.303,1 -0.204,0.3 -0.506,0.5 -0.91,0.5 z"
   id="path60652" />
									</g>
									<g
   id="g60658">
										<path
   style="fill:#f6f9fd;fill-opacity:1"
   d="m 112.04,107.3 c -3.131,0 -5.656,-2.5 -5.656,-5.6 0,-2 1.01,-3.7 2.727,-4.8 0.909,-0.6 1.918,-0.8 3.03,-0.8 3.13,0 5.655,2.5 5.655,5.6 0,2.5 -1.616,4.6 -3.938,5.4 -0.707,0.1 -1.313,0.2 -1.818,0.2 z m 0,-8.8 c -0.606,0 -1.212,0.2 -1.717,0.5 -0.909,0.6 -1.515,1.6 -1.515,2.7 0,1.7 1.414,3.1 3.131,3.1 0.303,0 0.606,0 0.909,-0.1 1.313,-0.4 2.222,-1.6 2.222,-3 0.101,-1.8 -1.313,-3.2 -3.03,-3.2 z"
   id="path60656" />
									</g>
								</g>
							</g>
						</g>
					</g>
				</g>
				<g
   id="Layer_1_1_">
				</g>
			</g>
		</g></svg>
