<?xml version="1.0" encoding="UTF-8" standalone="no"?>
<!-- Created with Inkscape (http://www.inkscape.org/) -->

<svg
   width="22.264679mm"
   height="22.264683mm"
   viewBox="0 0 22.264679 22.264683"
   version="1.1"
   id="svg21"
   xml:space="preserve"
   sodipodi:docname="Documento nuevo 1.2025_03_22_20_01_51.0.svg"
   xmlns:inkscape="http://www.inkscape.org/namespaces/inkscape"
   xmlns:sodipodi="http://sodipodi.sourceforge.net/DTD/sodipodi-0.dtd"
   xmlns="http://www.w3.org/2000/svg"
   xmlns:svg="http://www.w3.org/2000/svg"><sodipodi:namedview
     id="namedview23"
     pagecolor="#ffffff"
     bordercolor="#000000"
     borderopacity="0.25"
     inkscape:showpageshadow="2"
     inkscape:pageopacity="0.0"
     inkscape:pagecheckerboard="0"
     inkscape:deskcolor="#d1d1d1"
     inkscape:document-units="mm"
     showgrid="false" /><defs
     id="defs18" /><g
     id="g20569"
     transform="matrix(0.26458333,0,0,0.26458333,363.16705,-17.378185)"><g
       id="g20323">
		
		
		<g
   id="g23560"
   transform="translate(-1480.3629,-8.8666761)">
			
			
			
			
			
			
			
			
			
			
			
			
			<g
   id="g28009"><circle
     style="fill:#869ac8;fill-opacity:1;stroke:#000000;stroke-width:1.5;paint-order:stroke fill markers"
     id="path24136"
     cx="-1212.4797"
     cy="133.79221"
     r="37.465267"
     transform="translate(1362.0224,-17.676982)" /><path
     style="fill:#edf2fb;fill-opacity:1"
     d="m 149.838,74.548 c -23.237,0 -42.075,18.838 -42.075,42.075 0,23.238 18.838,42.075 42.075,42.075 23.238,0 42.075,-18.838 42.075,-42.075 0,-23.237 -18.838,-42.075 -42.075,-42.075 z m 0,77.538 c -19.586,0 -35.463,-15.877 -35.463,-35.463 0,-19.586 15.877,-35.463 35.463,-35.463 19.586,0 35.463,15.877 35.463,35.463 0,19.586 -15.878,35.463 -35.463,35.463 z"
     id="path23528" /><path
     style="fill:#a1d3fe;fill-opacity:1"
     d="m 183.123,113.762 c -2.938,0 -5.685,-0.814 -8.029,-2.229 -0.941,3.884 -4.439,6.769 -8.612,6.769 -3.043,0 -5.728,-1.535 -7.323,-3.871 -2.192,0.689 -4.524,1.061 -6.944,1.061 -4.456,0 -8.618,-1.261 -12.148,-3.445 -2.825,6.359 -9.195,10.795 -16.602,10.795 -2.59,0 -5.053,-0.544 -7.283,-1.521 2.288,16.543 16.483,29.283 33.655,29.283 18.767,0 33.98,-15.213 33.98,-33.98 0,-0.968 -0.043,-1.925 -0.122,-2.872 -0.19,0.006 -0.38,0.01 -0.572,0.01 z"
     id="path23530" /><g
     id="g23538">
				<g
   id="g23536">
					<g
   id="g23534">
						<path
   style="fill:#edf2fb;fill-opacity:1"
   d="m 179.62,120.98 c -1.709,15.681 -14.756,27.955 -30.772,28.449 0.332,0.01 0.665,0.017 0.999,0.017 16.472,0 30.032,-12.458 31.776,-28.466 z"
   id="path23532" />
					</g>
				</g>
			</g><path
     style="fill:#a1d3fe;fill-opacity:1"
     d="m 128.55,114.222 c 0,2.504 -2.03,4.535 -4.535,4.535 -2.505,0 -4.535,-2.03 -4.535,-4.535 0,-2.505 2.03,-4.535 4.535,-4.535 2.505,0 4.535,2.03 4.535,4.535 z"
     id="path23540" /><path
     style="fill:#edf2fb;fill-opacity:1"
     d="m 124.015,110.264 c -0.097,0 -0.193,0.005 -0.289,0.012 2.051,0.148 3.669,1.857 3.669,3.946 0,2.089 -1.618,3.798 -3.669,3.946 0.095,0.007 0.191,0.012 0.289,0.012 2.186,0 3.958,-1.772 3.958,-3.958 0,-2.186 -1.772,-3.958 -3.958,-3.958 z"
     id="path23542" /><path
     style="fill:#a1d3fe;fill-opacity:1"
     d="m 134.762,109.165 c 0,1.308 -1.06,2.368 -2.368,2.368 -1.308,0 -2.369,-1.06 -2.369,-2.368 0,-1.308 1.06,-2.369 2.369,-2.369 1.308,0 2.368,1.06 2.368,2.369 z"
     id="path23544" /><path
     style="fill:#edf2fb;fill-opacity:1"
     d="m 132.393,107.098 c -0.051,0 -0.101,0.002 -0.151,0.006 1.071,0.077 1.916,0.97 1.916,2.061 0,1.091 -0.845,1.984 -1.916,2.061 0.05,0.004 0.1,0.006 0.151,0.006 1.142,0 2.067,-0.925 2.067,-2.067 0.001,-1.142 -0.925,-2.067 -2.067,-2.067 z"
     id="path23546" /><circle
     style="fill:#a1d3fe;fill-opacity:1"
     cx="126.559"
     cy="102.399"
     r="3.0780001"
     id="circle23548" /><path
     style="fill:#edf2fb;fill-opacity:1"
     d="m 126.559,99.713 c -0.066,0 -0.131,0.003 -0.196,0.008 1.392,0.1 2.49,1.261 2.49,2.678 0,1.417 -1.098,2.578 -2.49,2.678 0.065,0.005 0.13,0.008 0.196,0.008 1.483,0 2.686,-1.202 2.686,-2.686 0,-1.484 -1.203,-2.686 -2.686,-2.686 z"
     id="path23550" /><circle
     style="fill:#a1d3fe;fill-opacity:1"
     cx="166.60201"
     cy="112.242"
     r="3.0780001"
     id="circle23552" /><path
     style="fill:#edf2fb;fill-opacity:1"
     d="m 166.602,109.556 c -0.066,0 -0.131,0.003 -0.196,0.008 1.392,0.1 2.49,1.261 2.49,2.678 0,1.417 -1.098,2.578 -2.49,2.678 0.065,0.005 0.13,0.008 0.196,0.008 1.484,0 2.686,-1.203 2.686,-2.686 0,-1.483 -1.202,-2.686 -2.686,-2.686 z"
     id="path23554" /><path
     style="fill:#edf2fb;fill-opacity:1"
     d="m 134.461,130.254 c -1.7,0 -3.078,1.378 -3.078,3.078 0,1.7 1.378,3.078 3.078,3.078 1.7,0 3.078,-1.378 3.078,-3.078 -10e-4,-1.7 -1.379,-3.078 -3.078,-3.078 z m 0,5.764 c -0.066,0 -0.131,-0.003 -0.196,-0.008 1.392,-0.1 2.49,-1.261 2.49,-2.678 0,-1.418 -1.098,-2.578 -2.49,-2.678 0.065,-0.005 0.13,-0.008 0.196,-0.008 1.483,0 2.686,1.203 2.686,2.686 0,1.483 -1.203,2.686 -2.686,2.686 z"
     id="path23556" /><path
     style="fill:#edf2fb;fill-opacity:1"
     d="m 158.01,126.65 c -2.695,0 -4.88,2.185 -4.88,4.88 0,2.695 2.185,4.88 4.88,4.88 2.695,0 4.88,-2.185 4.88,-4.88 0,-2.695 -2.185,-4.88 -4.88,-4.88 z m 0,9.139 c -0.105,0 -0.208,-0.005 -0.31,-0.013 2.207,-0.159 3.948,-1.999 3.948,-4.246 0,-2.247 -1.741,-4.087 -3.948,-4.246 0.103,-0.007 0.206,-0.012 0.31,-0.012 2.352,0 4.259,1.907 4.259,4.259 0,2.351 -1.907,4.258 -4.259,4.258 z"
     id="path23558" /></g>
		</g>
		
		
		
		
		
		
		
		
		
		
		
		
		
		
		
		
	</g></g></svg>
