<?xml version="1.0" encoding="UTF-8" standalone="no"?>
<!-- Created with Inkscape (http://www.inkscape.org/) -->

<svg
   width="86.373779mm"
   height="62.145264mm"
   viewBox="0 0 86.373779 62.145264"
   version="1.1"
   id="svg21"
   xml:space="preserve"
   sodipodi:docname="Documento nuevo 1.2025_03_22_20_01_51.0.svg"
   xmlns:inkscape="http://www.inkscape.org/namespaces/inkscape"
   xmlns:sodipodi="http://sodipodi.sourceforge.net/DTD/sodipodi-0.dtd"
   xmlns="http://www.w3.org/2000/svg"
   xmlns:svg="http://www.w3.org/2000/svg"><sodipodi:namedview
     id="namedview23"
     pagecolor="#ffffff"
     bordercolor="#000000"
     borderopacity="0.25"
     inkscape:showpageshadow="2"
     inkscape:pageopacity="0.0"
     inkscape:pagecheckerboard="0"
     inkscape:deskcolor="#d1d1d1"
     inkscape:document-units="mm"
     showgrid="false"
     showguides="true"><sodipodi:guide
       position="-1261.283,28.187672"
       orientation="1,0"
       id="guide12263"
       inkscape:locked="false" /><sodipodi:guide
       position="-1111.8858,-0.47110466"
       orientation="1,0"
       id="guide12265"
       inkscape:locked="false" /><sodipodi:guide
       position="-1249.3666,-50.537929"
       orientation="0,-1"
       id="guide12267"
       inkscape:locked="false" /><sodipodi:guide
       position="-1186.1863,30.310544"
       orientation="1,0"
       id="guide12271"
       inkscape:locked="false" /><sodipodi:guide
       position="-1036.2585,184.21879"
       orientation="1,0"
       id="guide13663"
       inkscape:locked="false" /></sodipodi:namedview><defs
     id="defs18" /><g
     id="clothings"
     transform="matrix(0.74261812,0,0,0.74261812,-351.96407,-159.18539)">
	
	
	
	
	
	
	
	
	
	
	
	
	
	
	
	
	
	
	
	
	
	
	
	
	
	
	
	
	
	
	
	
	
	
	
	
	
	
	
	<path
   style="fill:#f6f9fd;fill-opacity:1"
   d="m 574.524,217.109 c -0.369,-1.612 -1.802,-2.752 -3.453,-2.752 H 532.105 493.14 c -1.65,0 -3.083,1.139 -3.452,2.752 l -15.648,68.337 c -0.217,0.942 -0.036,1.936 0.502,2.746 0.534,0.808 1.38,1.362 2.337,1.532 l 46.786,8.264 c 0.209,0.034 0.413,0.053 0.618,0.053 1.465,0 2.81,-0.91 3.326,-2.329 l 2.005,-5.488 2.491,-0.146 2.495,0.146 2.002,5.488 c 0.518,1.419 1.861,2.329 3.326,2.329 0.206,0 0.411,-0.018 0.616,-0.053 l 46.789,-8.264 c 0.957,-0.169 1.803,-0.724 2.337,-1.532 0.537,-0.81 0.719,-1.804 0.499,-2.746 z"
   id="path15005" />
	<path
   style="opacity:0.5;fill:#5d6b8b;fill-opacity:1"
   d="m 493.141,217.9 c 7.436,0 23.516,0 38.081,0 v 7.203 h -39.729 z"
   id="path15007" />
	<path
   style="opacity:0.5;fill:#5d6b8b;fill-opacity:1"
   d="m 527.086,286.824 -2.805,7.674 -46.788,-8.264 13.601,-59.399 c 0.067,0.015 0.126,0.038 0.195,0.038 h 39.933 v 48.586 11.068 c 0,0.018 0.009,0.035 0.009,0.053 z"
   id="path15009" />
	<path
   style="opacity:0.5;fill:#5d6b8b;fill-opacity:1"
   d="m 541.988,217.9 c 11.755,0 23.163,0 29.083,0 l 1.651,7.203 h -30.734 z"
   id="path15011" />
	<path
   style="opacity:0.5;fill:#5d6b8b;fill-opacity:1"
   d="m 532.993,217.9 c 2.383,0 4.806,0 7.227,0 v 7.203 h -7.227 z"
   id="path15013" />
	<polygon
   style="opacity:0.5;fill:#5d6b8b;fill-opacity:1"
   points="532.993,273.455 532.993,226.873 540.22,226.873 540.22,266.876 "
   id="polygon15015" />
	<path
   style="opacity:0.5;fill:#5d6b8b;fill-opacity:1"
   d="m 539.931,294.498 -2.801,-7.674 -4.148,-0.244 c 0.004,-0.018 0.012,-0.035 0.012,-0.053 v -10.675 l 8.707,-7.928 c 0.184,-0.167 0.288,-0.407 0.288,-0.656 v -40.395 h 30.938 c 0.067,0 0.129,-0.023 0.192,-0.038 l 13.601,59.399 z"
   id="path15017" />
	
	
	
	
	
	
	
	
	
	
	
	
	
	
	
	
	
	
	
	
	
	
	
	
	
	
	
	
	
	
	
	
	
	
	
	
	
	
	
	
	
	
	
	
	
	
	
	
	
	
	
	
</g></svg>
