<?xml version="1.0" encoding="UTF-8" standalone="no"?>
<!-- Created with Inkscape (http://www.inkscape.org/) -->

<svg
   width="78.325439mm"
   height="75.144806mm"
   viewBox="0 0 78.325439 75.144806"
   version="1.1"
   id="svg21"
   xml:space="preserve"
   sodipodi:docname="Documento nuevo 1.2025_03_22_20_01_51.0.svg"
   xmlns:inkscape="http://www.inkscape.org/namespaces/inkscape"
   xmlns:sodipodi="http://sodipodi.sourceforge.net/DTD/sodipodi-0.dtd"
   xmlns="http://www.w3.org/2000/svg"
   xmlns:svg="http://www.w3.org/2000/svg"><sodipodi:namedview
     id="namedview23"
     pagecolor="#ffffff"
     bordercolor="#000000"
     borderopacity="0.25"
     inkscape:showpageshadow="2"
     inkscape:pageopacity="0.0"
     inkscape:pagecheckerboard="0"
     inkscape:deskcolor="#d1d1d1"
     inkscape:document-units="mm"
     showgrid="false"
     showguides="true"><sodipodi:guide
       position="-205.77148,36.804342"
       orientation="1,0"
       id="guide12263"
       inkscape:locked="false" /><sodipodi:guide
       position="-56.374279,8.1455643"
       orientation="1,0"
       id="guide12265"
       inkscape:locked="false" /><sodipodi:guide
       position="-193.85508,-41.92126"
       orientation="0,-1"
       id="guide12267"
       inkscape:locked="false" /><sodipodi:guide
       position="-130.67478,38.927214"
       orientation="1,0"
       id="guide12271"
       inkscape:locked="false" /><sodipodi:guide
       position="19.253022,192.83546"
       orientation="1,0"
       id="guide13663"
       inkscape:locked="false" /></sodipodi:namedview><defs
     id="defs18" /><path
     d="m 75.740327,29.484891 c -1.6553,-3.91399 -4.0247,-7.42829 -7.0425,-10.44595 -3.0176,-3.01766 -6.5319,-5.38708 -10.4459,-7.04235 -3.2627,-1.38006 -6.6883,-2.2122103 -10.2138,-2.4844303 v -3.61852 h 2.0967 c 1.6274,0 2.9466,-1.31931 2.9466,-2.9466 0,-1.62772 -1.3192,-2.947029950249 -2.9466,-2.947029950249 h -9.3535 c -1.6274,0 -2.9467,1.319309950249 -2.9467,2.947029950249 0,1.62729 1.3193,2.9466 2.9467,2.9466 h 2.0967 v 3.61895 c -5.82,0.45097 -11.3702,2.4262803 -16.1858,5.7807603 -2.6591,1.85256 -5.0269,4.08198 -7.037,6.62672 -1.6583,2.09893 -3.0485,4.38133 -4.1463,6.8046 H 6.9416269 c -1.425,0 -2.5802,1.1552 -2.5802,2.58004 0,1.42528 1.1552,2.58004 2.5802,2.58004 H 17.187627 c 0.017,5e-4 0.022,8.7e-4 0.033,8.7e-4 0.017,0 0.027,-5e-4 0.04,-8.7e-4 h 8.9557 c 1.4249,0 2.5801,-1.15476 2.5801,-2.58004 0,-1.42484 -1.1552,-2.58004 -2.5801,-2.58004 h -4.9275 c 0.7078,-1.25944 1.5142,-2.46505 2.4156,-3.60603 1.6962,-2.14674 3.6939,-4.02815 5.9375,-5.59082 4.6532,-3.24164 10.1225,-4.95507 15.8163,-4.95507 3.7412,0 7.3692,0.73224 10.7836,2.17646 3.2988,1.39511 6.2619,3.39326 8.8075,5.93841 2.545,2.54559 4.5432,5.50854 5.9384,8.80747 1.4442,3.41436 2.1765,7.04237 2.1765,10.78366 0,3.74126 -0.7323,7.3697 -2.1765,10.78364 -1.3952,3.29892 -3.3934,6.26231 -5.9384,8.80746 -2.5456,2.54518 -5.5087,4.54331 -8.8075,5.93885 -3.4144,1.44379 -7.0424,2.17602 -10.7836,2.17602 -5.6943,0 -11.1634,-1.71342 -15.8167,-4.95506 -2.2434,-1.56267 -4.2411,-3.44408 -5.9372,-5.59125 -0.9015,-1.14099 -1.7077,-2.34659 -2.4155,-3.60559 h 4.9275 c 1.4249,0 2.5801,-1.15521 2.5801,-2.58006 0,-1.42526 -1.1552,-2.58047 -2.5801,-2.58047 h -8.963 c -0.03,-5e-4 -0.062,-5e-4 -0.091,0 H 9.8973269 c -1.4249,0 -2.5802,1.15521 -2.5802,2.58047 0,1.42485 1.1553,2.58006 2.5802,2.58006 h 5.6129001 c 1.0977,2.42282 2.4879,4.70567 4.146,6.8046 2.0103,2.54429 4.3779,4.77416 7.037,6.62627 5.5229,3.84768 12.0124,5.88113 18.7662,5.88113 4.4356,0 8.7403,-0.86921 12.7938,-2.5835 3.914,-1.6557 7.4283,-4.02512 10.4459,-7.04279 3.0177,-3.01722 5.3872,-6.53195 7.0425,-10.44595 1.7146,-4.05356 2.5838,-8.35822 2.5838,-12.79383 0,-4.43563 -0.8692,-8.74029 -2.5838,-12.79386"
     style="fill:#f6f9fd;fill-opacity:1;fill-rule:nonzero;stroke:none;stroke-width:0.00430726"
     id="path13646" /><path
     d="m 46.536227,43.356411 c 0,5e-4 0,5e-4 0,5e-4 -0.5945,0.59396 -1.5619,0.59439 -2.1562,-5e-4 -0.2878,-0.28771 -0.4464,-0.67064 -0.4464,-1.07766 0,-0.40748 0.1579,-0.78996 0.4464,-1.07812 0.2972,-0.2972 0.6877,-0.4458 1.0781,-0.4458 0.3902,0 0.7808,0.14858 1.0781,0.4458 0.2877,0.28816 0.4462,0.67064 0.4462,1.07812 0,0.40702 -0.1578,0.78995 -0.4462,1.07766 z m 13.2387,-16.75823 -13.6467,9.03274 c -1.9275,-0.19297 -3.9235,0.44752 -5.397,1.92105 -1.2624,1.26244 -1.9581,2.94098 -1.9581,4.72678 0,1.78535 0.6957,3.46432 1.9581,4.72678 1.2624,1.26245 2.941,1.95807 4.7269,1.95807 1.7853,0 3.4643,-0.69562 4.7267,-1.95807 v 0 c 1.2624,-1.26246 1.9581,-2.94143 1.9581,-4.72678 0,-0.22701 -0.017,-0.45227 -0.033,-0.67495 l 9.0293,-13.64194 c 0.5918,-0.89419 -0.47,-1.9555 -1.3638,-1.36368"
     style="fill:#f6f9fd;fill-opacity:1;fill-rule:nonzero;stroke:none;stroke-width:0.00430726"
     id="path13648" /><path
     d="m 30.343827,42.278751 c 0,-1.42485 -1.155,-2.58006 -2.58,-2.58006 H 2.5802269 c -1.425,0 -2.58020002078,1.15521 -2.58020002078,2.58006 0,1.42482 1.15520002078,2.58004 2.58020002078,2.58004 H 27.763827 c 1.425,0 2.58,-1.15522 2.58,-2.58004"
     style="fill:#f6f9fd;fill-opacity:1;fill-rule:nonzero;stroke:none;stroke-width:0.00430726"
     id="path13650" /></svg>
